G04 #@! TF.GenerationSoftware,KiCad,Pcbnew,(5.1.4-0-10_14)*
G04 #@! TF.CreationDate,2019-10-10T22:30:47+02:00*
G04 #@! TF.ProjectId,raspberry-to-caetla,72617370-6265-4727-9279-2d746f2d6361,1.0.8*
G04 #@! TF.SameCoordinates,Original*
G04 #@! TF.FileFunction,Paste,Top*
G04 #@! TF.FilePolarity,Positive*
%FSLAX46Y46*%
G04 Gerber Fmt 4.6, Leading zero omitted, Abs format (unit mm)*
G04 Created by KiCad (PCBNEW (5.1.4-0-10_14)) date 2019-10-10 22:30:47*
%MOMM*%
%LPD*%
G04 APERTURE LIST*
%ADD10R,0.650000X1.060000*%
%ADD11C,0.100000*%
%ADD12C,0.975000*%
%ADD13R,0.550000X1.950000*%
G04 APERTURE END LIST*
D10*
X99944000Y-63754000D03*
X98044000Y-63754000D03*
X98044000Y-61554000D03*
X98994000Y-61554000D03*
X99944000Y-61554000D03*
X62865000Y-60411000D03*
X64765000Y-60411000D03*
X64765000Y-62611000D03*
X63815000Y-62611000D03*
X62865000Y-62611000D03*
X66675000Y-60411000D03*
X68575000Y-60411000D03*
X68575000Y-62611000D03*
X67625000Y-62611000D03*
X66675000Y-62611000D03*
X70424000Y-60495000D03*
X72324000Y-60495000D03*
X72324000Y-62695000D03*
X71374000Y-62695000D03*
X70424000Y-62695000D03*
X74107000Y-60495000D03*
X76007000Y-60495000D03*
X76007000Y-62695000D03*
X75057000Y-62695000D03*
X74107000Y-62695000D03*
D11*
G36*
X75410142Y-66999174D02*
G01*
X75433803Y-67002684D01*
X75457007Y-67008496D01*
X75479529Y-67016554D01*
X75501153Y-67026782D01*
X75521670Y-67039079D01*
X75540883Y-67053329D01*
X75558607Y-67069393D01*
X75574671Y-67087117D01*
X75588921Y-67106330D01*
X75601218Y-67126847D01*
X75611446Y-67148471D01*
X75619504Y-67170993D01*
X75625316Y-67194197D01*
X75628826Y-67217858D01*
X75630000Y-67241750D01*
X75630000Y-67729250D01*
X75628826Y-67753142D01*
X75625316Y-67776803D01*
X75619504Y-67800007D01*
X75611446Y-67822529D01*
X75601218Y-67844153D01*
X75588921Y-67864670D01*
X75574671Y-67883883D01*
X75558607Y-67901607D01*
X75540883Y-67917671D01*
X75521670Y-67931921D01*
X75501153Y-67944218D01*
X75479529Y-67954446D01*
X75457007Y-67962504D01*
X75433803Y-67968316D01*
X75410142Y-67971826D01*
X75386250Y-67973000D01*
X74473750Y-67973000D01*
X74449858Y-67971826D01*
X74426197Y-67968316D01*
X74402993Y-67962504D01*
X74380471Y-67954446D01*
X74358847Y-67944218D01*
X74338330Y-67931921D01*
X74319117Y-67917671D01*
X74301393Y-67901607D01*
X74285329Y-67883883D01*
X74271079Y-67864670D01*
X74258782Y-67844153D01*
X74248554Y-67822529D01*
X74240496Y-67800007D01*
X74234684Y-67776803D01*
X74231174Y-67753142D01*
X74230000Y-67729250D01*
X74230000Y-67241750D01*
X74231174Y-67217858D01*
X74234684Y-67194197D01*
X74240496Y-67170993D01*
X74248554Y-67148471D01*
X74258782Y-67126847D01*
X74271079Y-67106330D01*
X74285329Y-67087117D01*
X74301393Y-67069393D01*
X74319117Y-67053329D01*
X74338330Y-67039079D01*
X74358847Y-67026782D01*
X74380471Y-67016554D01*
X74402993Y-67008496D01*
X74426197Y-67002684D01*
X74449858Y-66999174D01*
X74473750Y-66998000D01*
X75386250Y-66998000D01*
X75410142Y-66999174D01*
X75410142Y-66999174D01*
G37*
D12*
X74930000Y-67485500D03*
D11*
G36*
X75410142Y-65124174D02*
G01*
X75433803Y-65127684D01*
X75457007Y-65133496D01*
X75479529Y-65141554D01*
X75501153Y-65151782D01*
X75521670Y-65164079D01*
X75540883Y-65178329D01*
X75558607Y-65194393D01*
X75574671Y-65212117D01*
X75588921Y-65231330D01*
X75601218Y-65251847D01*
X75611446Y-65273471D01*
X75619504Y-65295993D01*
X75625316Y-65319197D01*
X75628826Y-65342858D01*
X75630000Y-65366750D01*
X75630000Y-65854250D01*
X75628826Y-65878142D01*
X75625316Y-65901803D01*
X75619504Y-65925007D01*
X75611446Y-65947529D01*
X75601218Y-65969153D01*
X75588921Y-65989670D01*
X75574671Y-66008883D01*
X75558607Y-66026607D01*
X75540883Y-66042671D01*
X75521670Y-66056921D01*
X75501153Y-66069218D01*
X75479529Y-66079446D01*
X75457007Y-66087504D01*
X75433803Y-66093316D01*
X75410142Y-66096826D01*
X75386250Y-66098000D01*
X74473750Y-66098000D01*
X74449858Y-66096826D01*
X74426197Y-66093316D01*
X74402993Y-66087504D01*
X74380471Y-66079446D01*
X74358847Y-66069218D01*
X74338330Y-66056921D01*
X74319117Y-66042671D01*
X74301393Y-66026607D01*
X74285329Y-66008883D01*
X74271079Y-65989670D01*
X74258782Y-65969153D01*
X74248554Y-65947529D01*
X74240496Y-65925007D01*
X74234684Y-65901803D01*
X74231174Y-65878142D01*
X74230000Y-65854250D01*
X74230000Y-65366750D01*
X74231174Y-65342858D01*
X74234684Y-65319197D01*
X74240496Y-65295993D01*
X74248554Y-65273471D01*
X74258782Y-65251847D01*
X74271079Y-65231330D01*
X74285329Y-65212117D01*
X74301393Y-65194393D01*
X74319117Y-65178329D01*
X74338330Y-65164079D01*
X74358847Y-65151782D01*
X74380471Y-65141554D01*
X74402993Y-65133496D01*
X74426197Y-65127684D01*
X74449858Y-65124174D01*
X74473750Y-65123000D01*
X75386250Y-65123000D01*
X75410142Y-65124174D01*
X75410142Y-65124174D01*
G37*
D12*
X74930000Y-65610500D03*
D13*
X92075000Y-66980000D03*
X90805000Y-66980000D03*
X89535000Y-66980000D03*
X88265000Y-66980000D03*
X86995000Y-66980000D03*
X85725000Y-66980000D03*
X84455000Y-66980000D03*
X83185000Y-66980000D03*
X81915000Y-66980000D03*
X80645000Y-66980000D03*
X80645000Y-57480000D03*
X81915000Y-57480000D03*
X83185000Y-57480000D03*
X84455000Y-57480000D03*
X85725000Y-57480000D03*
X86995000Y-57480000D03*
X88265000Y-57480000D03*
X89535000Y-57480000D03*
X90805000Y-57480000D03*
X92075000Y-57480000D03*
D11*
G36*
X67028142Y-67077674D02*
G01*
X67051803Y-67081184D01*
X67075007Y-67086996D01*
X67097529Y-67095054D01*
X67119153Y-67105282D01*
X67139670Y-67117579D01*
X67158883Y-67131829D01*
X67176607Y-67147893D01*
X67192671Y-67165617D01*
X67206921Y-67184830D01*
X67219218Y-67205347D01*
X67229446Y-67226971D01*
X67237504Y-67249493D01*
X67243316Y-67272697D01*
X67246826Y-67296358D01*
X67248000Y-67320250D01*
X67248000Y-67807750D01*
X67246826Y-67831642D01*
X67243316Y-67855303D01*
X67237504Y-67878507D01*
X67229446Y-67901029D01*
X67219218Y-67922653D01*
X67206921Y-67943170D01*
X67192671Y-67962383D01*
X67176607Y-67980107D01*
X67158883Y-67996171D01*
X67139670Y-68010421D01*
X67119153Y-68022718D01*
X67097529Y-68032946D01*
X67075007Y-68041004D01*
X67051803Y-68046816D01*
X67028142Y-68050326D01*
X67004250Y-68051500D01*
X66091750Y-68051500D01*
X66067858Y-68050326D01*
X66044197Y-68046816D01*
X66020993Y-68041004D01*
X65998471Y-68032946D01*
X65976847Y-68022718D01*
X65956330Y-68010421D01*
X65937117Y-67996171D01*
X65919393Y-67980107D01*
X65903329Y-67962383D01*
X65889079Y-67943170D01*
X65876782Y-67922653D01*
X65866554Y-67901029D01*
X65858496Y-67878507D01*
X65852684Y-67855303D01*
X65849174Y-67831642D01*
X65848000Y-67807750D01*
X65848000Y-67320250D01*
X65849174Y-67296358D01*
X65852684Y-67272697D01*
X65858496Y-67249493D01*
X65866554Y-67226971D01*
X65876782Y-67205347D01*
X65889079Y-67184830D01*
X65903329Y-67165617D01*
X65919393Y-67147893D01*
X65937117Y-67131829D01*
X65956330Y-67117579D01*
X65976847Y-67105282D01*
X65998471Y-67095054D01*
X66020993Y-67086996D01*
X66044197Y-67081184D01*
X66067858Y-67077674D01*
X66091750Y-67076500D01*
X67004250Y-67076500D01*
X67028142Y-67077674D01*
X67028142Y-67077674D01*
G37*
D12*
X66548000Y-67564000D03*
D11*
G36*
X67028142Y-65202674D02*
G01*
X67051803Y-65206184D01*
X67075007Y-65211996D01*
X67097529Y-65220054D01*
X67119153Y-65230282D01*
X67139670Y-65242579D01*
X67158883Y-65256829D01*
X67176607Y-65272893D01*
X67192671Y-65290617D01*
X67206921Y-65309830D01*
X67219218Y-65330347D01*
X67229446Y-65351971D01*
X67237504Y-65374493D01*
X67243316Y-65397697D01*
X67246826Y-65421358D01*
X67248000Y-65445250D01*
X67248000Y-65932750D01*
X67246826Y-65956642D01*
X67243316Y-65980303D01*
X67237504Y-66003507D01*
X67229446Y-66026029D01*
X67219218Y-66047653D01*
X67206921Y-66068170D01*
X67192671Y-66087383D01*
X67176607Y-66105107D01*
X67158883Y-66121171D01*
X67139670Y-66135421D01*
X67119153Y-66147718D01*
X67097529Y-66157946D01*
X67075007Y-66166004D01*
X67051803Y-66171816D01*
X67028142Y-66175326D01*
X67004250Y-66176500D01*
X66091750Y-66176500D01*
X66067858Y-66175326D01*
X66044197Y-66171816D01*
X66020993Y-66166004D01*
X65998471Y-66157946D01*
X65976847Y-66147718D01*
X65956330Y-66135421D01*
X65937117Y-66121171D01*
X65919393Y-66105107D01*
X65903329Y-66087383D01*
X65889079Y-66068170D01*
X65876782Y-66047653D01*
X65866554Y-66026029D01*
X65858496Y-66003507D01*
X65852684Y-65980303D01*
X65849174Y-65956642D01*
X65848000Y-65932750D01*
X65848000Y-65445250D01*
X65849174Y-65421358D01*
X65852684Y-65397697D01*
X65858496Y-65374493D01*
X65866554Y-65351971D01*
X65876782Y-65330347D01*
X65889079Y-65309830D01*
X65903329Y-65290617D01*
X65919393Y-65272893D01*
X65937117Y-65256829D01*
X65956330Y-65242579D01*
X65976847Y-65230282D01*
X65998471Y-65220054D01*
X66020993Y-65211996D01*
X66044197Y-65206184D01*
X66067858Y-65202674D01*
X66091750Y-65201500D01*
X67004250Y-65201500D01*
X67028142Y-65202674D01*
X67028142Y-65202674D01*
G37*
D12*
X66548000Y-65689000D03*
D11*
G36*
X69822142Y-66999174D02*
G01*
X69845803Y-67002684D01*
X69869007Y-67008496D01*
X69891529Y-67016554D01*
X69913153Y-67026782D01*
X69933670Y-67039079D01*
X69952883Y-67053329D01*
X69970607Y-67069393D01*
X69986671Y-67087117D01*
X70000921Y-67106330D01*
X70013218Y-67126847D01*
X70023446Y-67148471D01*
X70031504Y-67170993D01*
X70037316Y-67194197D01*
X70040826Y-67217858D01*
X70042000Y-67241750D01*
X70042000Y-67729250D01*
X70040826Y-67753142D01*
X70037316Y-67776803D01*
X70031504Y-67800007D01*
X70023446Y-67822529D01*
X70013218Y-67844153D01*
X70000921Y-67864670D01*
X69986671Y-67883883D01*
X69970607Y-67901607D01*
X69952883Y-67917671D01*
X69933670Y-67931921D01*
X69913153Y-67944218D01*
X69891529Y-67954446D01*
X69869007Y-67962504D01*
X69845803Y-67968316D01*
X69822142Y-67971826D01*
X69798250Y-67973000D01*
X68885750Y-67973000D01*
X68861858Y-67971826D01*
X68838197Y-67968316D01*
X68814993Y-67962504D01*
X68792471Y-67954446D01*
X68770847Y-67944218D01*
X68750330Y-67931921D01*
X68731117Y-67917671D01*
X68713393Y-67901607D01*
X68697329Y-67883883D01*
X68683079Y-67864670D01*
X68670782Y-67844153D01*
X68660554Y-67822529D01*
X68652496Y-67800007D01*
X68646684Y-67776803D01*
X68643174Y-67753142D01*
X68642000Y-67729250D01*
X68642000Y-67241750D01*
X68643174Y-67217858D01*
X68646684Y-67194197D01*
X68652496Y-67170993D01*
X68660554Y-67148471D01*
X68670782Y-67126847D01*
X68683079Y-67106330D01*
X68697329Y-67087117D01*
X68713393Y-67069393D01*
X68731117Y-67053329D01*
X68750330Y-67039079D01*
X68770847Y-67026782D01*
X68792471Y-67016554D01*
X68814993Y-67008496D01*
X68838197Y-67002684D01*
X68861858Y-66999174D01*
X68885750Y-66998000D01*
X69798250Y-66998000D01*
X69822142Y-66999174D01*
X69822142Y-66999174D01*
G37*
D12*
X69342000Y-67485500D03*
D11*
G36*
X69822142Y-65124174D02*
G01*
X69845803Y-65127684D01*
X69869007Y-65133496D01*
X69891529Y-65141554D01*
X69913153Y-65151782D01*
X69933670Y-65164079D01*
X69952883Y-65178329D01*
X69970607Y-65194393D01*
X69986671Y-65212117D01*
X70000921Y-65231330D01*
X70013218Y-65251847D01*
X70023446Y-65273471D01*
X70031504Y-65295993D01*
X70037316Y-65319197D01*
X70040826Y-65342858D01*
X70042000Y-65366750D01*
X70042000Y-65854250D01*
X70040826Y-65878142D01*
X70037316Y-65901803D01*
X70031504Y-65925007D01*
X70023446Y-65947529D01*
X70013218Y-65969153D01*
X70000921Y-65989670D01*
X69986671Y-66008883D01*
X69970607Y-66026607D01*
X69952883Y-66042671D01*
X69933670Y-66056921D01*
X69913153Y-66069218D01*
X69891529Y-66079446D01*
X69869007Y-66087504D01*
X69845803Y-66093316D01*
X69822142Y-66096826D01*
X69798250Y-66098000D01*
X68885750Y-66098000D01*
X68861858Y-66096826D01*
X68838197Y-66093316D01*
X68814993Y-66087504D01*
X68792471Y-66079446D01*
X68770847Y-66069218D01*
X68750330Y-66056921D01*
X68731117Y-66042671D01*
X68713393Y-66026607D01*
X68697329Y-66008883D01*
X68683079Y-65989670D01*
X68670782Y-65969153D01*
X68660554Y-65947529D01*
X68652496Y-65925007D01*
X68646684Y-65901803D01*
X68643174Y-65878142D01*
X68642000Y-65854250D01*
X68642000Y-65366750D01*
X68643174Y-65342858D01*
X68646684Y-65319197D01*
X68652496Y-65295993D01*
X68660554Y-65273471D01*
X68670782Y-65251847D01*
X68683079Y-65231330D01*
X68697329Y-65212117D01*
X68713393Y-65194393D01*
X68731117Y-65178329D01*
X68750330Y-65164079D01*
X68770847Y-65151782D01*
X68792471Y-65141554D01*
X68814993Y-65133496D01*
X68838197Y-65127684D01*
X68861858Y-65124174D01*
X68885750Y-65123000D01*
X69798250Y-65123000D01*
X69822142Y-65124174D01*
X69822142Y-65124174D01*
G37*
D12*
X69342000Y-65610500D03*
D11*
G36*
X72616142Y-66999174D02*
G01*
X72639803Y-67002684D01*
X72663007Y-67008496D01*
X72685529Y-67016554D01*
X72707153Y-67026782D01*
X72727670Y-67039079D01*
X72746883Y-67053329D01*
X72764607Y-67069393D01*
X72780671Y-67087117D01*
X72794921Y-67106330D01*
X72807218Y-67126847D01*
X72817446Y-67148471D01*
X72825504Y-67170993D01*
X72831316Y-67194197D01*
X72834826Y-67217858D01*
X72836000Y-67241750D01*
X72836000Y-67729250D01*
X72834826Y-67753142D01*
X72831316Y-67776803D01*
X72825504Y-67800007D01*
X72817446Y-67822529D01*
X72807218Y-67844153D01*
X72794921Y-67864670D01*
X72780671Y-67883883D01*
X72764607Y-67901607D01*
X72746883Y-67917671D01*
X72727670Y-67931921D01*
X72707153Y-67944218D01*
X72685529Y-67954446D01*
X72663007Y-67962504D01*
X72639803Y-67968316D01*
X72616142Y-67971826D01*
X72592250Y-67973000D01*
X71679750Y-67973000D01*
X71655858Y-67971826D01*
X71632197Y-67968316D01*
X71608993Y-67962504D01*
X71586471Y-67954446D01*
X71564847Y-67944218D01*
X71544330Y-67931921D01*
X71525117Y-67917671D01*
X71507393Y-67901607D01*
X71491329Y-67883883D01*
X71477079Y-67864670D01*
X71464782Y-67844153D01*
X71454554Y-67822529D01*
X71446496Y-67800007D01*
X71440684Y-67776803D01*
X71437174Y-67753142D01*
X71436000Y-67729250D01*
X71436000Y-67241750D01*
X71437174Y-67217858D01*
X71440684Y-67194197D01*
X71446496Y-67170993D01*
X71454554Y-67148471D01*
X71464782Y-67126847D01*
X71477079Y-67106330D01*
X71491329Y-67087117D01*
X71507393Y-67069393D01*
X71525117Y-67053329D01*
X71544330Y-67039079D01*
X71564847Y-67026782D01*
X71586471Y-67016554D01*
X71608993Y-67008496D01*
X71632197Y-67002684D01*
X71655858Y-66999174D01*
X71679750Y-66998000D01*
X72592250Y-66998000D01*
X72616142Y-66999174D01*
X72616142Y-66999174D01*
G37*
D12*
X72136000Y-67485500D03*
D11*
G36*
X72616142Y-65124174D02*
G01*
X72639803Y-65127684D01*
X72663007Y-65133496D01*
X72685529Y-65141554D01*
X72707153Y-65151782D01*
X72727670Y-65164079D01*
X72746883Y-65178329D01*
X72764607Y-65194393D01*
X72780671Y-65212117D01*
X72794921Y-65231330D01*
X72807218Y-65251847D01*
X72817446Y-65273471D01*
X72825504Y-65295993D01*
X72831316Y-65319197D01*
X72834826Y-65342858D01*
X72836000Y-65366750D01*
X72836000Y-65854250D01*
X72834826Y-65878142D01*
X72831316Y-65901803D01*
X72825504Y-65925007D01*
X72817446Y-65947529D01*
X72807218Y-65969153D01*
X72794921Y-65989670D01*
X72780671Y-66008883D01*
X72764607Y-66026607D01*
X72746883Y-66042671D01*
X72727670Y-66056921D01*
X72707153Y-66069218D01*
X72685529Y-66079446D01*
X72663007Y-66087504D01*
X72639803Y-66093316D01*
X72616142Y-66096826D01*
X72592250Y-66098000D01*
X71679750Y-66098000D01*
X71655858Y-66096826D01*
X71632197Y-66093316D01*
X71608993Y-66087504D01*
X71586471Y-66079446D01*
X71564847Y-66069218D01*
X71544330Y-66056921D01*
X71525117Y-66042671D01*
X71507393Y-66026607D01*
X71491329Y-66008883D01*
X71477079Y-65989670D01*
X71464782Y-65969153D01*
X71454554Y-65947529D01*
X71446496Y-65925007D01*
X71440684Y-65901803D01*
X71437174Y-65878142D01*
X71436000Y-65854250D01*
X71436000Y-65366750D01*
X71437174Y-65342858D01*
X71440684Y-65319197D01*
X71446496Y-65295993D01*
X71454554Y-65273471D01*
X71464782Y-65251847D01*
X71477079Y-65231330D01*
X71491329Y-65212117D01*
X71507393Y-65194393D01*
X71525117Y-65178329D01*
X71544330Y-65164079D01*
X71564847Y-65151782D01*
X71586471Y-65141554D01*
X71608993Y-65133496D01*
X71632197Y-65127684D01*
X71655858Y-65124174D01*
X71679750Y-65123000D01*
X72592250Y-65123000D01*
X72616142Y-65124174D01*
X72616142Y-65124174D01*
G37*
D12*
X72136000Y-65610500D03*
D11*
G36*
X60805142Y-62251674D02*
G01*
X60828803Y-62255184D01*
X60852007Y-62260996D01*
X60874529Y-62269054D01*
X60896153Y-62279282D01*
X60916670Y-62291579D01*
X60935883Y-62305829D01*
X60953607Y-62321893D01*
X60969671Y-62339617D01*
X60983921Y-62358830D01*
X60996218Y-62379347D01*
X61006446Y-62400971D01*
X61014504Y-62423493D01*
X61020316Y-62446697D01*
X61023826Y-62470358D01*
X61025000Y-62494250D01*
X61025000Y-62981750D01*
X61023826Y-63005642D01*
X61020316Y-63029303D01*
X61014504Y-63052507D01*
X61006446Y-63075029D01*
X60996218Y-63096653D01*
X60983921Y-63117170D01*
X60969671Y-63136383D01*
X60953607Y-63154107D01*
X60935883Y-63170171D01*
X60916670Y-63184421D01*
X60896153Y-63196718D01*
X60874529Y-63206946D01*
X60852007Y-63215004D01*
X60828803Y-63220816D01*
X60805142Y-63224326D01*
X60781250Y-63225500D01*
X59868750Y-63225500D01*
X59844858Y-63224326D01*
X59821197Y-63220816D01*
X59797993Y-63215004D01*
X59775471Y-63206946D01*
X59753847Y-63196718D01*
X59733330Y-63184421D01*
X59714117Y-63170171D01*
X59696393Y-63154107D01*
X59680329Y-63136383D01*
X59666079Y-63117170D01*
X59653782Y-63096653D01*
X59643554Y-63075029D01*
X59635496Y-63052507D01*
X59629684Y-63029303D01*
X59626174Y-63005642D01*
X59625000Y-62981750D01*
X59625000Y-62494250D01*
X59626174Y-62470358D01*
X59629684Y-62446697D01*
X59635496Y-62423493D01*
X59643554Y-62400971D01*
X59653782Y-62379347D01*
X59666079Y-62358830D01*
X59680329Y-62339617D01*
X59696393Y-62321893D01*
X59714117Y-62305829D01*
X59733330Y-62291579D01*
X59753847Y-62279282D01*
X59775471Y-62269054D01*
X59797993Y-62260996D01*
X59821197Y-62255184D01*
X59844858Y-62251674D01*
X59868750Y-62250500D01*
X60781250Y-62250500D01*
X60805142Y-62251674D01*
X60805142Y-62251674D01*
G37*
D12*
X60325000Y-62738000D03*
D11*
G36*
X60805142Y-60376674D02*
G01*
X60828803Y-60380184D01*
X60852007Y-60385996D01*
X60874529Y-60394054D01*
X60896153Y-60404282D01*
X60916670Y-60416579D01*
X60935883Y-60430829D01*
X60953607Y-60446893D01*
X60969671Y-60464617D01*
X60983921Y-60483830D01*
X60996218Y-60504347D01*
X61006446Y-60525971D01*
X61014504Y-60548493D01*
X61020316Y-60571697D01*
X61023826Y-60595358D01*
X61025000Y-60619250D01*
X61025000Y-61106750D01*
X61023826Y-61130642D01*
X61020316Y-61154303D01*
X61014504Y-61177507D01*
X61006446Y-61200029D01*
X60996218Y-61221653D01*
X60983921Y-61242170D01*
X60969671Y-61261383D01*
X60953607Y-61279107D01*
X60935883Y-61295171D01*
X60916670Y-61309421D01*
X60896153Y-61321718D01*
X60874529Y-61331946D01*
X60852007Y-61340004D01*
X60828803Y-61345816D01*
X60805142Y-61349326D01*
X60781250Y-61350500D01*
X59868750Y-61350500D01*
X59844858Y-61349326D01*
X59821197Y-61345816D01*
X59797993Y-61340004D01*
X59775471Y-61331946D01*
X59753847Y-61321718D01*
X59733330Y-61309421D01*
X59714117Y-61295171D01*
X59696393Y-61279107D01*
X59680329Y-61261383D01*
X59666079Y-61242170D01*
X59653782Y-61221653D01*
X59643554Y-61200029D01*
X59635496Y-61177507D01*
X59629684Y-61154303D01*
X59626174Y-61130642D01*
X59625000Y-61106750D01*
X59625000Y-60619250D01*
X59626174Y-60595358D01*
X59629684Y-60571697D01*
X59635496Y-60548493D01*
X59643554Y-60525971D01*
X59653782Y-60504347D01*
X59666079Y-60483830D01*
X59680329Y-60464617D01*
X59696393Y-60446893D01*
X59714117Y-60430829D01*
X59733330Y-60416579D01*
X59753847Y-60404282D01*
X59775471Y-60394054D01*
X59797993Y-60385996D01*
X59821197Y-60380184D01*
X59844858Y-60376674D01*
X59868750Y-60375500D01*
X60781250Y-60375500D01*
X60805142Y-60376674D01*
X60805142Y-60376674D01*
G37*
D12*
X60325000Y-60863000D03*
D11*
G36*
X60805142Y-65202674D02*
G01*
X60828803Y-65206184D01*
X60852007Y-65211996D01*
X60874529Y-65220054D01*
X60896153Y-65230282D01*
X60916670Y-65242579D01*
X60935883Y-65256829D01*
X60953607Y-65272893D01*
X60969671Y-65290617D01*
X60983921Y-65309830D01*
X60996218Y-65330347D01*
X61006446Y-65351971D01*
X61014504Y-65374493D01*
X61020316Y-65397697D01*
X61023826Y-65421358D01*
X61025000Y-65445250D01*
X61025000Y-65932750D01*
X61023826Y-65956642D01*
X61020316Y-65980303D01*
X61014504Y-66003507D01*
X61006446Y-66026029D01*
X60996218Y-66047653D01*
X60983921Y-66068170D01*
X60969671Y-66087383D01*
X60953607Y-66105107D01*
X60935883Y-66121171D01*
X60916670Y-66135421D01*
X60896153Y-66147718D01*
X60874529Y-66157946D01*
X60852007Y-66166004D01*
X60828803Y-66171816D01*
X60805142Y-66175326D01*
X60781250Y-66176500D01*
X59868750Y-66176500D01*
X59844858Y-66175326D01*
X59821197Y-66171816D01*
X59797993Y-66166004D01*
X59775471Y-66157946D01*
X59753847Y-66147718D01*
X59733330Y-66135421D01*
X59714117Y-66121171D01*
X59696393Y-66105107D01*
X59680329Y-66087383D01*
X59666079Y-66068170D01*
X59653782Y-66047653D01*
X59643554Y-66026029D01*
X59635496Y-66003507D01*
X59629684Y-65980303D01*
X59626174Y-65956642D01*
X59625000Y-65932750D01*
X59625000Y-65445250D01*
X59626174Y-65421358D01*
X59629684Y-65397697D01*
X59635496Y-65374493D01*
X59643554Y-65351971D01*
X59653782Y-65330347D01*
X59666079Y-65309830D01*
X59680329Y-65290617D01*
X59696393Y-65272893D01*
X59714117Y-65256829D01*
X59733330Y-65242579D01*
X59753847Y-65230282D01*
X59775471Y-65220054D01*
X59797993Y-65211996D01*
X59821197Y-65206184D01*
X59844858Y-65202674D01*
X59868750Y-65201500D01*
X60781250Y-65201500D01*
X60805142Y-65202674D01*
X60805142Y-65202674D01*
G37*
D12*
X60325000Y-65689000D03*
D11*
G36*
X60805142Y-67077674D02*
G01*
X60828803Y-67081184D01*
X60852007Y-67086996D01*
X60874529Y-67095054D01*
X60896153Y-67105282D01*
X60916670Y-67117579D01*
X60935883Y-67131829D01*
X60953607Y-67147893D01*
X60969671Y-67165617D01*
X60983921Y-67184830D01*
X60996218Y-67205347D01*
X61006446Y-67226971D01*
X61014504Y-67249493D01*
X61020316Y-67272697D01*
X61023826Y-67296358D01*
X61025000Y-67320250D01*
X61025000Y-67807750D01*
X61023826Y-67831642D01*
X61020316Y-67855303D01*
X61014504Y-67878507D01*
X61006446Y-67901029D01*
X60996218Y-67922653D01*
X60983921Y-67943170D01*
X60969671Y-67962383D01*
X60953607Y-67980107D01*
X60935883Y-67996171D01*
X60916670Y-68010421D01*
X60896153Y-68022718D01*
X60874529Y-68032946D01*
X60852007Y-68041004D01*
X60828803Y-68046816D01*
X60805142Y-68050326D01*
X60781250Y-68051500D01*
X59868750Y-68051500D01*
X59844858Y-68050326D01*
X59821197Y-68046816D01*
X59797993Y-68041004D01*
X59775471Y-68032946D01*
X59753847Y-68022718D01*
X59733330Y-68010421D01*
X59714117Y-67996171D01*
X59696393Y-67980107D01*
X59680329Y-67962383D01*
X59666079Y-67943170D01*
X59653782Y-67922653D01*
X59643554Y-67901029D01*
X59635496Y-67878507D01*
X59629684Y-67855303D01*
X59626174Y-67831642D01*
X59625000Y-67807750D01*
X59625000Y-67320250D01*
X59626174Y-67296358D01*
X59629684Y-67272697D01*
X59635496Y-67249493D01*
X59643554Y-67226971D01*
X59653782Y-67205347D01*
X59666079Y-67184830D01*
X59680329Y-67165617D01*
X59696393Y-67147893D01*
X59714117Y-67131829D01*
X59733330Y-67117579D01*
X59753847Y-67105282D01*
X59775471Y-67095054D01*
X59797993Y-67086996D01*
X59821197Y-67081184D01*
X59844858Y-67077674D01*
X59868750Y-67076500D01*
X60781250Y-67076500D01*
X60805142Y-67077674D01*
X60805142Y-67077674D01*
G37*
D12*
X60325000Y-67564000D03*
D11*
G36*
X95222142Y-61138674D02*
G01*
X95245803Y-61142184D01*
X95269007Y-61147996D01*
X95291529Y-61156054D01*
X95313153Y-61166282D01*
X95333670Y-61178579D01*
X95352883Y-61192829D01*
X95370607Y-61208893D01*
X95386671Y-61226617D01*
X95400921Y-61245830D01*
X95413218Y-61266347D01*
X95423446Y-61287971D01*
X95431504Y-61310493D01*
X95437316Y-61333697D01*
X95440826Y-61357358D01*
X95442000Y-61381250D01*
X95442000Y-61868750D01*
X95440826Y-61892642D01*
X95437316Y-61916303D01*
X95431504Y-61939507D01*
X95423446Y-61962029D01*
X95413218Y-61983653D01*
X95400921Y-62004170D01*
X95386671Y-62023383D01*
X95370607Y-62041107D01*
X95352883Y-62057171D01*
X95333670Y-62071421D01*
X95313153Y-62083718D01*
X95291529Y-62093946D01*
X95269007Y-62102004D01*
X95245803Y-62107816D01*
X95222142Y-62111326D01*
X95198250Y-62112500D01*
X94285750Y-62112500D01*
X94261858Y-62111326D01*
X94238197Y-62107816D01*
X94214993Y-62102004D01*
X94192471Y-62093946D01*
X94170847Y-62083718D01*
X94150330Y-62071421D01*
X94131117Y-62057171D01*
X94113393Y-62041107D01*
X94097329Y-62023383D01*
X94083079Y-62004170D01*
X94070782Y-61983653D01*
X94060554Y-61962029D01*
X94052496Y-61939507D01*
X94046684Y-61916303D01*
X94043174Y-61892642D01*
X94042000Y-61868750D01*
X94042000Y-61381250D01*
X94043174Y-61357358D01*
X94046684Y-61333697D01*
X94052496Y-61310493D01*
X94060554Y-61287971D01*
X94070782Y-61266347D01*
X94083079Y-61245830D01*
X94097329Y-61226617D01*
X94113393Y-61208893D01*
X94131117Y-61192829D01*
X94150330Y-61178579D01*
X94170847Y-61166282D01*
X94192471Y-61156054D01*
X94214993Y-61147996D01*
X94238197Y-61142184D01*
X94261858Y-61138674D01*
X94285750Y-61137500D01*
X95198250Y-61137500D01*
X95222142Y-61138674D01*
X95222142Y-61138674D01*
G37*
D12*
X94742000Y-61625000D03*
D11*
G36*
X95222142Y-63013674D02*
G01*
X95245803Y-63017184D01*
X95269007Y-63022996D01*
X95291529Y-63031054D01*
X95313153Y-63041282D01*
X95333670Y-63053579D01*
X95352883Y-63067829D01*
X95370607Y-63083893D01*
X95386671Y-63101617D01*
X95400921Y-63120830D01*
X95413218Y-63141347D01*
X95423446Y-63162971D01*
X95431504Y-63185493D01*
X95437316Y-63208697D01*
X95440826Y-63232358D01*
X95442000Y-63256250D01*
X95442000Y-63743750D01*
X95440826Y-63767642D01*
X95437316Y-63791303D01*
X95431504Y-63814507D01*
X95423446Y-63837029D01*
X95413218Y-63858653D01*
X95400921Y-63879170D01*
X95386671Y-63898383D01*
X95370607Y-63916107D01*
X95352883Y-63932171D01*
X95333670Y-63946421D01*
X95313153Y-63958718D01*
X95291529Y-63968946D01*
X95269007Y-63977004D01*
X95245803Y-63982816D01*
X95222142Y-63986326D01*
X95198250Y-63987500D01*
X94285750Y-63987500D01*
X94261858Y-63986326D01*
X94238197Y-63982816D01*
X94214993Y-63977004D01*
X94192471Y-63968946D01*
X94170847Y-63958718D01*
X94150330Y-63946421D01*
X94131117Y-63932171D01*
X94113393Y-63916107D01*
X94097329Y-63898383D01*
X94083079Y-63879170D01*
X94070782Y-63858653D01*
X94060554Y-63837029D01*
X94052496Y-63814507D01*
X94046684Y-63791303D01*
X94043174Y-63767642D01*
X94042000Y-63743750D01*
X94042000Y-63256250D01*
X94043174Y-63232358D01*
X94046684Y-63208697D01*
X94052496Y-63185493D01*
X94060554Y-63162971D01*
X94070782Y-63141347D01*
X94083079Y-63120830D01*
X94097329Y-63101617D01*
X94113393Y-63083893D01*
X94131117Y-63067829D01*
X94150330Y-63053579D01*
X94170847Y-63041282D01*
X94192471Y-63031054D01*
X94214993Y-63022996D01*
X94238197Y-63017184D01*
X94261858Y-63013674D01*
X94285750Y-63012500D01*
X95198250Y-63012500D01*
X95222142Y-63013674D01*
X95222142Y-63013674D01*
G37*
D12*
X94742000Y-63500000D03*
M02*
