G04 #@! TF.GenerationSoftware,KiCad,Pcbnew,(5.1.4-0-10_14)*
G04 #@! TF.CreationDate,2019-10-10T22:30:47+02:00*
G04 #@! TF.ProjectId,raspberry-to-caetla,72617370-6265-4727-9279-2d746f2d6361,1.0.8*
G04 #@! TF.SameCoordinates,Original*
G04 #@! TF.FileFunction,Soldermask,Bot*
G04 #@! TF.FilePolarity,Negative*
%FSLAX46Y46*%
G04 Gerber Fmt 4.6, Leading zero omitted, Abs format (unit mm)*
G04 Created by KiCad (PCBNEW (5.1.4-0-10_14)) date 2019-10-10 22:30:47*
%MOMM*%
%LPD*%
G04 APERTURE LIST*
%ADD10C,0.100000*%
G04 APERTURE END LIST*
D10*
G36*
X112204780Y-72559565D02*
G01*
X112504237Y-72619131D01*
X113068401Y-72852815D01*
X113576135Y-73192072D01*
X114007928Y-73623865D01*
X114347185Y-74131599D01*
X114580869Y-74695763D01*
X114591798Y-74750707D01*
X114680109Y-75194675D01*
X114700000Y-75294677D01*
X114700000Y-75905323D01*
X114580869Y-76504237D01*
X114347185Y-77068401D01*
X114007928Y-77576135D01*
X113576135Y-78007928D01*
X113068401Y-78347185D01*
X112504237Y-78580869D01*
X112204780Y-78640434D01*
X111905325Y-78700000D01*
X111294675Y-78700000D01*
X110995220Y-78640434D01*
X110695763Y-78580869D01*
X110131599Y-78347185D01*
X109623865Y-78007928D01*
X109192072Y-77576135D01*
X108852815Y-77068401D01*
X108619131Y-76504237D01*
X108500000Y-75905323D01*
X108500000Y-75294677D01*
X108519892Y-75194675D01*
X108608202Y-74750707D01*
X108619131Y-74695763D01*
X108852815Y-74131599D01*
X109192072Y-73623865D01*
X109623865Y-73192072D01*
X110131599Y-72852815D01*
X110695763Y-72619131D01*
X110995220Y-72559565D01*
X111294675Y-72500000D01*
X111905325Y-72500000D01*
X112204780Y-72559565D01*
X112204780Y-72559565D01*
G37*
G36*
X54204780Y-72459566D02*
G01*
X54504237Y-72519131D01*
X55068401Y-72752815D01*
X55576135Y-73092072D01*
X56007928Y-73523865D01*
X56347185Y-74031599D01*
X56580869Y-74595763D01*
X56611689Y-74750706D01*
X56700000Y-75194675D01*
X56700000Y-75805325D01*
X56640434Y-76104780D01*
X56580869Y-76404237D01*
X56347185Y-76968401D01*
X56007928Y-77476135D01*
X55576135Y-77907928D01*
X55068401Y-78247185D01*
X54504237Y-78480869D01*
X54204780Y-78540434D01*
X53905325Y-78600000D01*
X53294675Y-78600000D01*
X52995220Y-78540434D01*
X52695763Y-78480869D01*
X52131599Y-78247185D01*
X51623865Y-77907928D01*
X51192072Y-77476135D01*
X50852815Y-76968401D01*
X50619131Y-76404237D01*
X50559566Y-76104780D01*
X50500000Y-75805325D01*
X50500000Y-75194675D01*
X50588311Y-74750706D01*
X50619131Y-74595763D01*
X50852815Y-74031599D01*
X51192072Y-73523865D01*
X51623865Y-73092072D01*
X52131599Y-72752815D01*
X52695763Y-72519131D01*
X52995220Y-72459566D01*
X53294675Y-72400000D01*
X53905325Y-72400000D01*
X54204780Y-72459566D01*
X54204780Y-72459566D01*
G37*
G36*
X94159294Y-74028633D02*
G01*
X94331695Y-74080931D01*
X94490583Y-74165858D01*
X94629849Y-74280151D01*
X94744142Y-74419417D01*
X94829069Y-74578305D01*
X94881367Y-74750706D01*
X94899025Y-74930000D01*
X94881367Y-75109294D01*
X94829069Y-75281695D01*
X94744142Y-75440583D01*
X94629849Y-75579849D01*
X94490583Y-75694142D01*
X94331695Y-75779069D01*
X94159294Y-75831367D01*
X94024931Y-75844600D01*
X93935069Y-75844600D01*
X93800706Y-75831367D01*
X93628305Y-75779069D01*
X93469417Y-75694142D01*
X93330151Y-75579849D01*
X93215858Y-75440583D01*
X93130931Y-75281695D01*
X93078633Y-75109294D01*
X93060975Y-74930000D01*
X93078633Y-74750706D01*
X93130931Y-74578305D01*
X93215858Y-74419417D01*
X93330151Y-74280151D01*
X93469417Y-74165858D01*
X93628305Y-74080931D01*
X93800706Y-74028633D01*
X93935069Y-74015400D01*
X94024931Y-74015400D01*
X94159294Y-74028633D01*
X94159294Y-74028633D01*
G37*
G36*
X91619294Y-74028633D02*
G01*
X91791695Y-74080931D01*
X91950583Y-74165858D01*
X92089849Y-74280151D01*
X92204142Y-74419417D01*
X92289069Y-74578305D01*
X92341367Y-74750706D01*
X92359025Y-74930000D01*
X92341367Y-75109294D01*
X92289069Y-75281695D01*
X92204142Y-75440583D01*
X92089849Y-75579849D01*
X91950583Y-75694142D01*
X91791695Y-75779069D01*
X91619294Y-75831367D01*
X91484931Y-75844600D01*
X91395069Y-75844600D01*
X91260706Y-75831367D01*
X91088305Y-75779069D01*
X90929417Y-75694142D01*
X90790151Y-75579849D01*
X90675858Y-75440583D01*
X90590931Y-75281695D01*
X90538633Y-75109294D01*
X90520975Y-74930000D01*
X90538633Y-74750706D01*
X90590931Y-74578305D01*
X90675858Y-74419417D01*
X90790151Y-74280151D01*
X90929417Y-74165858D01*
X91088305Y-74080931D01*
X91260706Y-74028633D01*
X91395069Y-74015400D01*
X91484931Y-74015400D01*
X91619294Y-74028633D01*
X91619294Y-74028633D01*
G37*
G36*
X89079294Y-74028633D02*
G01*
X89251695Y-74080931D01*
X89410583Y-74165858D01*
X89549849Y-74280151D01*
X89664142Y-74419417D01*
X89749069Y-74578305D01*
X89801367Y-74750706D01*
X89819025Y-74930000D01*
X89801367Y-75109294D01*
X89749069Y-75281695D01*
X89664142Y-75440583D01*
X89549849Y-75579849D01*
X89410583Y-75694142D01*
X89251695Y-75779069D01*
X89079294Y-75831367D01*
X88944931Y-75844600D01*
X88855069Y-75844600D01*
X88720706Y-75831367D01*
X88548305Y-75779069D01*
X88389417Y-75694142D01*
X88250151Y-75579849D01*
X88135858Y-75440583D01*
X88050931Y-75281695D01*
X87998633Y-75109294D01*
X87980975Y-74930000D01*
X87998633Y-74750706D01*
X88050931Y-74578305D01*
X88135858Y-74419417D01*
X88250151Y-74280151D01*
X88389417Y-74165858D01*
X88548305Y-74080931D01*
X88720706Y-74028633D01*
X88855069Y-74015400D01*
X88944931Y-74015400D01*
X89079294Y-74028633D01*
X89079294Y-74028633D01*
G37*
G36*
X86539294Y-74028633D02*
G01*
X86711695Y-74080931D01*
X86870583Y-74165858D01*
X87009849Y-74280151D01*
X87124142Y-74419417D01*
X87209069Y-74578305D01*
X87261367Y-74750706D01*
X87279025Y-74930000D01*
X87261367Y-75109294D01*
X87209069Y-75281695D01*
X87124142Y-75440583D01*
X87009849Y-75579849D01*
X86870583Y-75694142D01*
X86711695Y-75779069D01*
X86539294Y-75831367D01*
X86404931Y-75844600D01*
X86315069Y-75844600D01*
X86180706Y-75831367D01*
X86008305Y-75779069D01*
X85849417Y-75694142D01*
X85710151Y-75579849D01*
X85595858Y-75440583D01*
X85510931Y-75281695D01*
X85458633Y-75109294D01*
X85440975Y-74930000D01*
X85458633Y-74750706D01*
X85510931Y-74578305D01*
X85595858Y-74419417D01*
X85710151Y-74280151D01*
X85849417Y-74165858D01*
X86008305Y-74080931D01*
X86180706Y-74028633D01*
X86315069Y-74015400D01*
X86404931Y-74015400D01*
X86539294Y-74028633D01*
X86539294Y-74028633D01*
G37*
G36*
X83999294Y-74028633D02*
G01*
X84171695Y-74080931D01*
X84330583Y-74165858D01*
X84469849Y-74280151D01*
X84584142Y-74419417D01*
X84669069Y-74578305D01*
X84721367Y-74750706D01*
X84739025Y-74930000D01*
X84721367Y-75109294D01*
X84669069Y-75281695D01*
X84584142Y-75440583D01*
X84469849Y-75579849D01*
X84330583Y-75694142D01*
X84171695Y-75779069D01*
X83999294Y-75831367D01*
X83864931Y-75844600D01*
X83775069Y-75844600D01*
X83640706Y-75831367D01*
X83468305Y-75779069D01*
X83309417Y-75694142D01*
X83170151Y-75579849D01*
X83055858Y-75440583D01*
X82970931Y-75281695D01*
X82918633Y-75109294D01*
X82900975Y-74930000D01*
X82918633Y-74750706D01*
X82970931Y-74578305D01*
X83055858Y-74419417D01*
X83170151Y-74280151D01*
X83309417Y-74165858D01*
X83468305Y-74080931D01*
X83640706Y-74028633D01*
X83775069Y-74015400D01*
X83864931Y-74015400D01*
X83999294Y-74028633D01*
X83999294Y-74028633D01*
G37*
G36*
X81459294Y-74028633D02*
G01*
X81631695Y-74080931D01*
X81790583Y-74165858D01*
X81929849Y-74280151D01*
X82044142Y-74419417D01*
X82129069Y-74578305D01*
X82181367Y-74750706D01*
X82199025Y-74930000D01*
X82181367Y-75109294D01*
X82129069Y-75281695D01*
X82044142Y-75440583D01*
X81929849Y-75579849D01*
X81790583Y-75694142D01*
X81631695Y-75779069D01*
X81459294Y-75831367D01*
X81324931Y-75844600D01*
X81235069Y-75844600D01*
X81100706Y-75831367D01*
X80928305Y-75779069D01*
X80769417Y-75694142D01*
X80630151Y-75579849D01*
X80515858Y-75440583D01*
X80430931Y-75281695D01*
X80378633Y-75109294D01*
X80360975Y-74930000D01*
X80378633Y-74750706D01*
X80430931Y-74578305D01*
X80515858Y-74419417D01*
X80630151Y-74280151D01*
X80769417Y-74165858D01*
X80928305Y-74080931D01*
X81100706Y-74028633D01*
X81235069Y-74015400D01*
X81324931Y-74015400D01*
X81459294Y-74028633D01*
X81459294Y-74028633D01*
G37*
G36*
X78919294Y-74028633D02*
G01*
X79091695Y-74080931D01*
X79250583Y-74165858D01*
X79389849Y-74280151D01*
X79504142Y-74419417D01*
X79589069Y-74578305D01*
X79641367Y-74750706D01*
X79659025Y-74930000D01*
X79641367Y-75109294D01*
X79589069Y-75281695D01*
X79504142Y-75440583D01*
X79389849Y-75579849D01*
X79250583Y-75694142D01*
X79091695Y-75779069D01*
X78919294Y-75831367D01*
X78784931Y-75844600D01*
X78695069Y-75844600D01*
X78560706Y-75831367D01*
X78388305Y-75779069D01*
X78229417Y-75694142D01*
X78090151Y-75579849D01*
X77975858Y-75440583D01*
X77890931Y-75281695D01*
X77838633Y-75109294D01*
X77820975Y-74930000D01*
X77838633Y-74750706D01*
X77890931Y-74578305D01*
X77975858Y-74419417D01*
X78090151Y-74280151D01*
X78229417Y-74165858D01*
X78388305Y-74080931D01*
X78560706Y-74028633D01*
X78695069Y-74015400D01*
X78784931Y-74015400D01*
X78919294Y-74028633D01*
X78919294Y-74028633D01*
G37*
G36*
X76379294Y-74028633D02*
G01*
X76551695Y-74080931D01*
X76710583Y-74165858D01*
X76849849Y-74280151D01*
X76964142Y-74419417D01*
X77049069Y-74578305D01*
X77101367Y-74750706D01*
X77119025Y-74930000D01*
X77101367Y-75109294D01*
X77049069Y-75281695D01*
X76964142Y-75440583D01*
X76849849Y-75579849D01*
X76710583Y-75694142D01*
X76551695Y-75779069D01*
X76379294Y-75831367D01*
X76244931Y-75844600D01*
X76155069Y-75844600D01*
X76020706Y-75831367D01*
X75848305Y-75779069D01*
X75689417Y-75694142D01*
X75550151Y-75579849D01*
X75435858Y-75440583D01*
X75350931Y-75281695D01*
X75298633Y-75109294D01*
X75280975Y-74930000D01*
X75298633Y-74750706D01*
X75350931Y-74578305D01*
X75435858Y-74419417D01*
X75550151Y-74280151D01*
X75689417Y-74165858D01*
X75848305Y-74080931D01*
X76020706Y-74028633D01*
X76155069Y-74015400D01*
X76244931Y-74015400D01*
X76379294Y-74028633D01*
X76379294Y-74028633D01*
G37*
G36*
X73839294Y-74028633D02*
G01*
X74011695Y-74080931D01*
X74170583Y-74165858D01*
X74309849Y-74280151D01*
X74424142Y-74419417D01*
X74509069Y-74578305D01*
X74561367Y-74750706D01*
X74579025Y-74930000D01*
X74561367Y-75109294D01*
X74509069Y-75281695D01*
X74424142Y-75440583D01*
X74309849Y-75579849D01*
X74170583Y-75694142D01*
X74011695Y-75779069D01*
X73839294Y-75831367D01*
X73704931Y-75844600D01*
X73615069Y-75844600D01*
X73480706Y-75831367D01*
X73308305Y-75779069D01*
X73149417Y-75694142D01*
X73010151Y-75579849D01*
X72895858Y-75440583D01*
X72810931Y-75281695D01*
X72758633Y-75109294D01*
X72740975Y-74930000D01*
X72758633Y-74750706D01*
X72810931Y-74578305D01*
X72895858Y-74419417D01*
X73010151Y-74280151D01*
X73149417Y-74165858D01*
X73308305Y-74080931D01*
X73480706Y-74028633D01*
X73615069Y-74015400D01*
X73704931Y-74015400D01*
X73839294Y-74028633D01*
X73839294Y-74028633D01*
G37*
G36*
X71299294Y-74028633D02*
G01*
X71471695Y-74080931D01*
X71630583Y-74165858D01*
X71769849Y-74280151D01*
X71884142Y-74419417D01*
X71969069Y-74578305D01*
X72021367Y-74750706D01*
X72039025Y-74930000D01*
X72021367Y-75109294D01*
X71969069Y-75281695D01*
X71884142Y-75440583D01*
X71769849Y-75579849D01*
X71630583Y-75694142D01*
X71471695Y-75779069D01*
X71299294Y-75831367D01*
X71164931Y-75844600D01*
X71075069Y-75844600D01*
X70940706Y-75831367D01*
X70768305Y-75779069D01*
X70609417Y-75694142D01*
X70470151Y-75579849D01*
X70355858Y-75440583D01*
X70270931Y-75281695D01*
X70218633Y-75109294D01*
X70200975Y-74930000D01*
X70218633Y-74750706D01*
X70270931Y-74578305D01*
X70355858Y-74419417D01*
X70470151Y-74280151D01*
X70609417Y-74165858D01*
X70768305Y-74080931D01*
X70940706Y-74028633D01*
X71075069Y-74015400D01*
X71164931Y-74015400D01*
X71299294Y-74028633D01*
X71299294Y-74028633D01*
G37*
G36*
X68759294Y-74028633D02*
G01*
X68931695Y-74080931D01*
X69090583Y-74165858D01*
X69229849Y-74280151D01*
X69344142Y-74419417D01*
X69429069Y-74578305D01*
X69481367Y-74750706D01*
X69499025Y-74930000D01*
X69481367Y-75109294D01*
X69429069Y-75281695D01*
X69344142Y-75440583D01*
X69229849Y-75579849D01*
X69090583Y-75694142D01*
X68931695Y-75779069D01*
X68759294Y-75831367D01*
X68624931Y-75844600D01*
X68535069Y-75844600D01*
X68400706Y-75831367D01*
X68228305Y-75779069D01*
X68069417Y-75694142D01*
X67930151Y-75579849D01*
X67815858Y-75440583D01*
X67730931Y-75281695D01*
X67678633Y-75109294D01*
X67660975Y-74930000D01*
X67678633Y-74750706D01*
X67730931Y-74578305D01*
X67815858Y-74419417D01*
X67930151Y-74280151D01*
X68069417Y-74165858D01*
X68228305Y-74080931D01*
X68400706Y-74028633D01*
X68535069Y-74015400D01*
X68624931Y-74015400D01*
X68759294Y-74028633D01*
X68759294Y-74028633D01*
G37*
G36*
X99239294Y-74028633D02*
G01*
X99411695Y-74080931D01*
X99570583Y-74165858D01*
X99709849Y-74280151D01*
X99824142Y-74419417D01*
X99909069Y-74578305D01*
X99961367Y-74750706D01*
X99979025Y-74930000D01*
X99961367Y-75109294D01*
X99909069Y-75281695D01*
X99824142Y-75440583D01*
X99709849Y-75579849D01*
X99570583Y-75694142D01*
X99411695Y-75779069D01*
X99239294Y-75831367D01*
X99104931Y-75844600D01*
X99015069Y-75844600D01*
X98880706Y-75831367D01*
X98708305Y-75779069D01*
X98549417Y-75694142D01*
X98410151Y-75579849D01*
X98295858Y-75440583D01*
X98210931Y-75281695D01*
X98158633Y-75109294D01*
X98140975Y-74930000D01*
X98158633Y-74750706D01*
X98210931Y-74578305D01*
X98295858Y-74419417D01*
X98410151Y-74280151D01*
X98549417Y-74165858D01*
X98708305Y-74080931D01*
X98880706Y-74028633D01*
X99015069Y-74015400D01*
X99104931Y-74015400D01*
X99239294Y-74028633D01*
X99239294Y-74028633D01*
G37*
G36*
X96699294Y-74028633D02*
G01*
X96871695Y-74080931D01*
X97030583Y-74165858D01*
X97169849Y-74280151D01*
X97284142Y-74419417D01*
X97369069Y-74578305D01*
X97421367Y-74750706D01*
X97439025Y-74930000D01*
X97421367Y-75109294D01*
X97369069Y-75281695D01*
X97284142Y-75440583D01*
X97169849Y-75579849D01*
X97030583Y-75694142D01*
X96871695Y-75779069D01*
X96699294Y-75831367D01*
X96564931Y-75844600D01*
X96475069Y-75844600D01*
X96340706Y-75831367D01*
X96168305Y-75779069D01*
X96009417Y-75694142D01*
X95870151Y-75579849D01*
X95755858Y-75440583D01*
X95670931Y-75281695D01*
X95618633Y-75109294D01*
X95600975Y-74930000D01*
X95618633Y-74750706D01*
X95670931Y-74578305D01*
X95755858Y-74419417D01*
X95870151Y-74280151D01*
X96009417Y-74165858D01*
X96168305Y-74080931D01*
X96340706Y-74028633D01*
X96475069Y-74015400D01*
X96564931Y-74015400D01*
X96699294Y-74028633D01*
X96699294Y-74028633D01*
G37*
G36*
X86539294Y-71488633D02*
G01*
X86711695Y-71540931D01*
X86870583Y-71625858D01*
X87009849Y-71740151D01*
X87124142Y-71879417D01*
X87209069Y-72038305D01*
X87261367Y-72210706D01*
X87279025Y-72390000D01*
X87261367Y-72569294D01*
X87209069Y-72741695D01*
X87124142Y-72900583D01*
X87009849Y-73039849D01*
X86870583Y-73154142D01*
X86711695Y-73239069D01*
X86539294Y-73291367D01*
X86404931Y-73304600D01*
X86315069Y-73304600D01*
X86180706Y-73291367D01*
X86008305Y-73239069D01*
X85849417Y-73154142D01*
X85710151Y-73039849D01*
X85595858Y-72900583D01*
X85510931Y-72741695D01*
X85458633Y-72569294D01*
X85440975Y-72390000D01*
X85458633Y-72210706D01*
X85510931Y-72038305D01*
X85595858Y-71879417D01*
X85710151Y-71740151D01*
X85849417Y-71625858D01*
X86008305Y-71540931D01*
X86180706Y-71488633D01*
X86315069Y-71475400D01*
X86404931Y-71475400D01*
X86539294Y-71488633D01*
X86539294Y-71488633D01*
G37*
G36*
X99974600Y-73304600D02*
G01*
X98145400Y-73304600D01*
X98145400Y-71475400D01*
X99974600Y-71475400D01*
X99974600Y-73304600D01*
X99974600Y-73304600D01*
G37*
G36*
X96699294Y-71488633D02*
G01*
X96871695Y-71540931D01*
X97030583Y-71625858D01*
X97169849Y-71740151D01*
X97284142Y-71879417D01*
X97369069Y-72038305D01*
X97421367Y-72210706D01*
X97439025Y-72390000D01*
X97421367Y-72569294D01*
X97369069Y-72741695D01*
X97284142Y-72900583D01*
X97169849Y-73039849D01*
X97030583Y-73154142D01*
X96871695Y-73239069D01*
X96699294Y-73291367D01*
X96564931Y-73304600D01*
X96475069Y-73304600D01*
X96340706Y-73291367D01*
X96168305Y-73239069D01*
X96009417Y-73154142D01*
X95870151Y-73039849D01*
X95755858Y-72900583D01*
X95670931Y-72741695D01*
X95618633Y-72569294D01*
X95600975Y-72390000D01*
X95618633Y-72210706D01*
X95670931Y-72038305D01*
X95755858Y-71879417D01*
X95870151Y-71740151D01*
X96009417Y-71625858D01*
X96168305Y-71540931D01*
X96340706Y-71488633D01*
X96475069Y-71475400D01*
X96564931Y-71475400D01*
X96699294Y-71488633D01*
X96699294Y-71488633D01*
G37*
G36*
X94159294Y-71488633D02*
G01*
X94331695Y-71540931D01*
X94490583Y-71625858D01*
X94629849Y-71740151D01*
X94744142Y-71879417D01*
X94829069Y-72038305D01*
X94881367Y-72210706D01*
X94899025Y-72390000D01*
X94881367Y-72569294D01*
X94829069Y-72741695D01*
X94744142Y-72900583D01*
X94629849Y-73039849D01*
X94490583Y-73154142D01*
X94331695Y-73239069D01*
X94159294Y-73291367D01*
X94024931Y-73304600D01*
X93935069Y-73304600D01*
X93800706Y-73291367D01*
X93628305Y-73239069D01*
X93469417Y-73154142D01*
X93330151Y-73039849D01*
X93215858Y-72900583D01*
X93130931Y-72741695D01*
X93078633Y-72569294D01*
X93060975Y-72390000D01*
X93078633Y-72210706D01*
X93130931Y-72038305D01*
X93215858Y-71879417D01*
X93330151Y-71740151D01*
X93469417Y-71625858D01*
X93628305Y-71540931D01*
X93800706Y-71488633D01*
X93935069Y-71475400D01*
X94024931Y-71475400D01*
X94159294Y-71488633D01*
X94159294Y-71488633D01*
G37*
G36*
X91619294Y-71488633D02*
G01*
X91791695Y-71540931D01*
X91950583Y-71625858D01*
X92089849Y-71740151D01*
X92204142Y-71879417D01*
X92289069Y-72038305D01*
X92341367Y-72210706D01*
X92359025Y-72390000D01*
X92341367Y-72569294D01*
X92289069Y-72741695D01*
X92204142Y-72900583D01*
X92089849Y-73039849D01*
X91950583Y-73154142D01*
X91791695Y-73239069D01*
X91619294Y-73291367D01*
X91484931Y-73304600D01*
X91395069Y-73304600D01*
X91260706Y-73291367D01*
X91088305Y-73239069D01*
X90929417Y-73154142D01*
X90790151Y-73039849D01*
X90675858Y-72900583D01*
X90590931Y-72741695D01*
X90538633Y-72569294D01*
X90520975Y-72390000D01*
X90538633Y-72210706D01*
X90590931Y-72038305D01*
X90675858Y-71879417D01*
X90790151Y-71740151D01*
X90929417Y-71625858D01*
X91088305Y-71540931D01*
X91260706Y-71488633D01*
X91395069Y-71475400D01*
X91484931Y-71475400D01*
X91619294Y-71488633D01*
X91619294Y-71488633D01*
G37*
G36*
X89079294Y-71488633D02*
G01*
X89251695Y-71540931D01*
X89410583Y-71625858D01*
X89549849Y-71740151D01*
X89664142Y-71879417D01*
X89749069Y-72038305D01*
X89801367Y-72210706D01*
X89819025Y-72390000D01*
X89801367Y-72569294D01*
X89749069Y-72741695D01*
X89664142Y-72900583D01*
X89549849Y-73039849D01*
X89410583Y-73154142D01*
X89251695Y-73239069D01*
X89079294Y-73291367D01*
X88944931Y-73304600D01*
X88855069Y-73304600D01*
X88720706Y-73291367D01*
X88548305Y-73239069D01*
X88389417Y-73154142D01*
X88250151Y-73039849D01*
X88135858Y-72900583D01*
X88050931Y-72741695D01*
X87998633Y-72569294D01*
X87980975Y-72390000D01*
X87998633Y-72210706D01*
X88050931Y-72038305D01*
X88135858Y-71879417D01*
X88250151Y-71740151D01*
X88389417Y-71625858D01*
X88548305Y-71540931D01*
X88720706Y-71488633D01*
X88855069Y-71475400D01*
X88944931Y-71475400D01*
X89079294Y-71488633D01*
X89079294Y-71488633D01*
G37*
G36*
X83999294Y-71488633D02*
G01*
X84171695Y-71540931D01*
X84330583Y-71625858D01*
X84469849Y-71740151D01*
X84584142Y-71879417D01*
X84669069Y-72038305D01*
X84721367Y-72210706D01*
X84739025Y-72390000D01*
X84721367Y-72569294D01*
X84669069Y-72741695D01*
X84584142Y-72900583D01*
X84469849Y-73039849D01*
X84330583Y-73154142D01*
X84171695Y-73239069D01*
X83999294Y-73291367D01*
X83864931Y-73304600D01*
X83775069Y-73304600D01*
X83640706Y-73291367D01*
X83468305Y-73239069D01*
X83309417Y-73154142D01*
X83170151Y-73039849D01*
X83055858Y-72900583D01*
X82970931Y-72741695D01*
X82918633Y-72569294D01*
X82900975Y-72390000D01*
X82918633Y-72210706D01*
X82970931Y-72038305D01*
X83055858Y-71879417D01*
X83170151Y-71740151D01*
X83309417Y-71625858D01*
X83468305Y-71540931D01*
X83640706Y-71488633D01*
X83775069Y-71475400D01*
X83864931Y-71475400D01*
X83999294Y-71488633D01*
X83999294Y-71488633D01*
G37*
G36*
X81459294Y-71488633D02*
G01*
X81631695Y-71540931D01*
X81790583Y-71625858D01*
X81929849Y-71740151D01*
X82044142Y-71879417D01*
X82129069Y-72038305D01*
X82181367Y-72210706D01*
X82199025Y-72390000D01*
X82181367Y-72569294D01*
X82129069Y-72741695D01*
X82044142Y-72900583D01*
X81929849Y-73039849D01*
X81790583Y-73154142D01*
X81631695Y-73239069D01*
X81459294Y-73291367D01*
X81324931Y-73304600D01*
X81235069Y-73304600D01*
X81100706Y-73291367D01*
X80928305Y-73239069D01*
X80769417Y-73154142D01*
X80630151Y-73039849D01*
X80515858Y-72900583D01*
X80430931Y-72741695D01*
X80378633Y-72569294D01*
X80360975Y-72390000D01*
X80378633Y-72210706D01*
X80430931Y-72038305D01*
X80515858Y-71879417D01*
X80630151Y-71740151D01*
X80769417Y-71625858D01*
X80928305Y-71540931D01*
X81100706Y-71488633D01*
X81235069Y-71475400D01*
X81324931Y-71475400D01*
X81459294Y-71488633D01*
X81459294Y-71488633D01*
G37*
G36*
X78919294Y-71488633D02*
G01*
X79091695Y-71540931D01*
X79250583Y-71625858D01*
X79389849Y-71740151D01*
X79504142Y-71879417D01*
X79589069Y-72038305D01*
X79641367Y-72210706D01*
X79659025Y-72390000D01*
X79641367Y-72569294D01*
X79589069Y-72741695D01*
X79504142Y-72900583D01*
X79389849Y-73039849D01*
X79250583Y-73154142D01*
X79091695Y-73239069D01*
X78919294Y-73291367D01*
X78784931Y-73304600D01*
X78695069Y-73304600D01*
X78560706Y-73291367D01*
X78388305Y-73239069D01*
X78229417Y-73154142D01*
X78090151Y-73039849D01*
X77975858Y-72900583D01*
X77890931Y-72741695D01*
X77838633Y-72569294D01*
X77820975Y-72390000D01*
X77838633Y-72210706D01*
X77890931Y-72038305D01*
X77975858Y-71879417D01*
X78090151Y-71740151D01*
X78229417Y-71625858D01*
X78388305Y-71540931D01*
X78560706Y-71488633D01*
X78695069Y-71475400D01*
X78784931Y-71475400D01*
X78919294Y-71488633D01*
X78919294Y-71488633D01*
G37*
G36*
X76379294Y-71488633D02*
G01*
X76551695Y-71540931D01*
X76710583Y-71625858D01*
X76849849Y-71740151D01*
X76964142Y-71879417D01*
X77049069Y-72038305D01*
X77101367Y-72210706D01*
X77119025Y-72390000D01*
X77101367Y-72569294D01*
X77049069Y-72741695D01*
X76964142Y-72900583D01*
X76849849Y-73039849D01*
X76710583Y-73154142D01*
X76551695Y-73239069D01*
X76379294Y-73291367D01*
X76244931Y-73304600D01*
X76155069Y-73304600D01*
X76020706Y-73291367D01*
X75848305Y-73239069D01*
X75689417Y-73154142D01*
X75550151Y-73039849D01*
X75435858Y-72900583D01*
X75350931Y-72741695D01*
X75298633Y-72569294D01*
X75280975Y-72390000D01*
X75298633Y-72210706D01*
X75350931Y-72038305D01*
X75435858Y-71879417D01*
X75550151Y-71740151D01*
X75689417Y-71625858D01*
X75848305Y-71540931D01*
X76020706Y-71488633D01*
X76155069Y-71475400D01*
X76244931Y-71475400D01*
X76379294Y-71488633D01*
X76379294Y-71488633D01*
G37*
G36*
X73839294Y-71488633D02*
G01*
X74011695Y-71540931D01*
X74170583Y-71625858D01*
X74309849Y-71740151D01*
X74424142Y-71879417D01*
X74509069Y-72038305D01*
X74561367Y-72210706D01*
X74579025Y-72390000D01*
X74561367Y-72569294D01*
X74509069Y-72741695D01*
X74424142Y-72900583D01*
X74309849Y-73039849D01*
X74170583Y-73154142D01*
X74011695Y-73239069D01*
X73839294Y-73291367D01*
X73704931Y-73304600D01*
X73615069Y-73304600D01*
X73480706Y-73291367D01*
X73308305Y-73239069D01*
X73149417Y-73154142D01*
X73010151Y-73039849D01*
X72895858Y-72900583D01*
X72810931Y-72741695D01*
X72758633Y-72569294D01*
X72740975Y-72390000D01*
X72758633Y-72210706D01*
X72810931Y-72038305D01*
X72895858Y-71879417D01*
X73010151Y-71740151D01*
X73149417Y-71625858D01*
X73308305Y-71540931D01*
X73480706Y-71488633D01*
X73615069Y-71475400D01*
X73704931Y-71475400D01*
X73839294Y-71488633D01*
X73839294Y-71488633D01*
G37*
G36*
X71299294Y-71488633D02*
G01*
X71471695Y-71540931D01*
X71630583Y-71625858D01*
X71769849Y-71740151D01*
X71884142Y-71879417D01*
X71969069Y-72038305D01*
X72021367Y-72210706D01*
X72039025Y-72390000D01*
X72021367Y-72569294D01*
X71969069Y-72741695D01*
X71884142Y-72900583D01*
X71769849Y-73039849D01*
X71630583Y-73154142D01*
X71471695Y-73239069D01*
X71299294Y-73291367D01*
X71164931Y-73304600D01*
X71075069Y-73304600D01*
X70940706Y-73291367D01*
X70768305Y-73239069D01*
X70609417Y-73154142D01*
X70470151Y-73039849D01*
X70355858Y-72900583D01*
X70270931Y-72741695D01*
X70218633Y-72569294D01*
X70200975Y-72390000D01*
X70218633Y-72210706D01*
X70270931Y-72038305D01*
X70355858Y-71879417D01*
X70470151Y-71740151D01*
X70609417Y-71625858D01*
X70768305Y-71540931D01*
X70940706Y-71488633D01*
X71075069Y-71475400D01*
X71164931Y-71475400D01*
X71299294Y-71488633D01*
X71299294Y-71488633D01*
G37*
G36*
X68759294Y-71488633D02*
G01*
X68931695Y-71540931D01*
X69090583Y-71625858D01*
X69229849Y-71740151D01*
X69344142Y-71879417D01*
X69429069Y-72038305D01*
X69481367Y-72210706D01*
X69499025Y-72390000D01*
X69481367Y-72569294D01*
X69429069Y-72741695D01*
X69344142Y-72900583D01*
X69229849Y-73039849D01*
X69090583Y-73154142D01*
X68931695Y-73239069D01*
X68759294Y-73291367D01*
X68624931Y-73304600D01*
X68535069Y-73304600D01*
X68400706Y-73291367D01*
X68228305Y-73239069D01*
X68069417Y-73154142D01*
X67930151Y-73039849D01*
X67815858Y-72900583D01*
X67730931Y-72741695D01*
X67678633Y-72569294D01*
X67660975Y-72390000D01*
X67678633Y-72210706D01*
X67730931Y-72038305D01*
X67815858Y-71879417D01*
X67930151Y-71740151D01*
X68069417Y-71625858D01*
X68228305Y-71540931D01*
X68400706Y-71488633D01*
X68535069Y-71475400D01*
X68624931Y-71475400D01*
X68759294Y-71488633D01*
X68759294Y-71488633D01*
G37*
G36*
X52815442Y-63875518D02*
G01*
X52881627Y-63882037D01*
X53051466Y-63933557D01*
X53207991Y-64017222D01*
X53243729Y-64046552D01*
X53345186Y-64129814D01*
X53428448Y-64231271D01*
X53457778Y-64267009D01*
X53541443Y-64423534D01*
X53592963Y-64593373D01*
X53610359Y-64770000D01*
X53592963Y-64946627D01*
X53541443Y-65116466D01*
X53457778Y-65272991D01*
X53428448Y-65308729D01*
X53345186Y-65410186D01*
X53243729Y-65493448D01*
X53207991Y-65522778D01*
X53051466Y-65606443D01*
X52881627Y-65657963D01*
X52815442Y-65664482D01*
X52749260Y-65671000D01*
X52660740Y-65671000D01*
X52594558Y-65664482D01*
X52528373Y-65657963D01*
X52358534Y-65606443D01*
X52202009Y-65522778D01*
X52166271Y-65493448D01*
X52064814Y-65410186D01*
X51981552Y-65308729D01*
X51952222Y-65272991D01*
X51868557Y-65116466D01*
X51817037Y-64946627D01*
X51799641Y-64770000D01*
X51817037Y-64593373D01*
X51868557Y-64423534D01*
X51952222Y-64267009D01*
X51981552Y-64231271D01*
X52064814Y-64129814D01*
X52166271Y-64046552D01*
X52202009Y-64017222D01*
X52358534Y-63933557D01*
X52528373Y-63882037D01*
X52594558Y-63875518D01*
X52660740Y-63869000D01*
X52749260Y-63869000D01*
X52815442Y-63875518D01*
X52815442Y-63875518D01*
G37*
G36*
X52815443Y-61335519D02*
G01*
X52881627Y-61342037D01*
X53051466Y-61393557D01*
X53207991Y-61477222D01*
X53243729Y-61506552D01*
X53345186Y-61589814D01*
X53428448Y-61691271D01*
X53457778Y-61727009D01*
X53541443Y-61883534D01*
X53592963Y-62053373D01*
X53610359Y-62230000D01*
X53592963Y-62406627D01*
X53541443Y-62576466D01*
X53457778Y-62732991D01*
X53428448Y-62768729D01*
X53345186Y-62870186D01*
X53243729Y-62953448D01*
X53207991Y-62982778D01*
X53051466Y-63066443D01*
X52881627Y-63117963D01*
X52815443Y-63124481D01*
X52749260Y-63131000D01*
X52660740Y-63131000D01*
X52594557Y-63124481D01*
X52528373Y-63117963D01*
X52358534Y-63066443D01*
X52202009Y-62982778D01*
X52166271Y-62953448D01*
X52064814Y-62870186D01*
X51981552Y-62768729D01*
X51952222Y-62732991D01*
X51868557Y-62576466D01*
X51817037Y-62406627D01*
X51799641Y-62230000D01*
X51817037Y-62053373D01*
X51868557Y-61883534D01*
X51952222Y-61727009D01*
X51981552Y-61691271D01*
X52064814Y-61589814D01*
X52166271Y-61506552D01*
X52202009Y-61477222D01*
X52358534Y-61393557D01*
X52528373Y-61342037D01*
X52594557Y-61335519D01*
X52660740Y-61329000D01*
X52749260Y-61329000D01*
X52815443Y-61335519D01*
X52815443Y-61335519D01*
G37*
G36*
X53606000Y-60591000D02*
G01*
X51804000Y-60591000D01*
X51804000Y-58789000D01*
X53606000Y-58789000D01*
X53606000Y-60591000D01*
X53606000Y-60591000D01*
G37*
G36*
X112204780Y-49459566D02*
G01*
X112504237Y-49519131D01*
X113068401Y-49752815D01*
X113576135Y-50092072D01*
X114007928Y-50523865D01*
X114347185Y-51031599D01*
X114580869Y-51595763D01*
X114592546Y-51654468D01*
X114700000Y-52194675D01*
X114700000Y-52805325D01*
X114642336Y-53095221D01*
X114580869Y-53404237D01*
X114347185Y-53968401D01*
X114007928Y-54476135D01*
X113576135Y-54907928D01*
X113068401Y-55247185D01*
X112504237Y-55480869D01*
X112204780Y-55540434D01*
X111905325Y-55600000D01*
X111294675Y-55600000D01*
X110995220Y-55540434D01*
X110695763Y-55480869D01*
X110131599Y-55247185D01*
X109623865Y-54907928D01*
X109192072Y-54476135D01*
X108852815Y-53968401D01*
X108619131Y-53404237D01*
X108557664Y-53095221D01*
X108500000Y-52805325D01*
X108500000Y-52194675D01*
X108607454Y-51654468D01*
X108619131Y-51595763D01*
X108852815Y-51031599D01*
X109192072Y-50523865D01*
X109623865Y-50092072D01*
X110131599Y-49752815D01*
X110695763Y-49519131D01*
X110995220Y-49459566D01*
X111294675Y-49400000D01*
X111905325Y-49400000D01*
X112204780Y-49459566D01*
X112204780Y-49459566D01*
G37*
G36*
X54104780Y-49459566D02*
G01*
X54404237Y-49519131D01*
X54968401Y-49752815D01*
X55476135Y-50092072D01*
X55907928Y-50523865D01*
X56247185Y-51031599D01*
X56480869Y-51595763D01*
X56492546Y-51654468D01*
X56600000Y-52194675D01*
X56600000Y-52805325D01*
X56542336Y-53095221D01*
X56480869Y-53404237D01*
X56247185Y-53968401D01*
X55907928Y-54476135D01*
X55476135Y-54907928D01*
X54968401Y-55247185D01*
X54404237Y-55480869D01*
X54104780Y-55540434D01*
X53805325Y-55600000D01*
X53194675Y-55600000D01*
X52895220Y-55540434D01*
X52595763Y-55480869D01*
X52031599Y-55247185D01*
X51523865Y-54907928D01*
X51092072Y-54476135D01*
X50752815Y-53968401D01*
X50519131Y-53404237D01*
X50457664Y-53095221D01*
X50400000Y-52805325D01*
X50400000Y-52194675D01*
X50507454Y-51654468D01*
X50519131Y-51595763D01*
X50752815Y-51031599D01*
X51092072Y-50523865D01*
X51523865Y-50092072D01*
X52031599Y-49752815D01*
X52595763Y-49519131D01*
X52895220Y-49459566D01*
X53194675Y-49400000D01*
X53805325Y-49400000D01*
X54104780Y-49459566D01*
X54104780Y-49459566D01*
G37*
G36*
X106790443Y-52953519D02*
G01*
X106856627Y-52960037D01*
X107026466Y-53011557D01*
X107182991Y-53095222D01*
X107218729Y-53124552D01*
X107320186Y-53207814D01*
X107403448Y-53309271D01*
X107432778Y-53345009D01*
X107516443Y-53501534D01*
X107567963Y-53671373D01*
X107585359Y-53848000D01*
X107567963Y-54024627D01*
X107516443Y-54194466D01*
X107432778Y-54350991D01*
X107403448Y-54386729D01*
X107320186Y-54488186D01*
X107218729Y-54571448D01*
X107182991Y-54600778D01*
X107026466Y-54684443D01*
X106856627Y-54735963D01*
X106790442Y-54742482D01*
X106724260Y-54749000D01*
X106635740Y-54749000D01*
X106569558Y-54742482D01*
X106503373Y-54735963D01*
X106333534Y-54684443D01*
X106177009Y-54600778D01*
X106141271Y-54571448D01*
X106039814Y-54488186D01*
X105956552Y-54386729D01*
X105927222Y-54350991D01*
X105843557Y-54194466D01*
X105792037Y-54024627D01*
X105774641Y-53848000D01*
X105792037Y-53671373D01*
X105843557Y-53501534D01*
X105927222Y-53345009D01*
X105956552Y-53309271D01*
X106039814Y-53207814D01*
X106141271Y-53124552D01*
X106177009Y-53095222D01*
X106333534Y-53011557D01*
X106503373Y-52960037D01*
X106569557Y-52953519D01*
X106635740Y-52947000D01*
X106724260Y-52947000D01*
X106790443Y-52953519D01*
X106790443Y-52953519D01*
G37*
G36*
X104250443Y-52953519D02*
G01*
X104316627Y-52960037D01*
X104486466Y-53011557D01*
X104642991Y-53095222D01*
X104678729Y-53124552D01*
X104780186Y-53207814D01*
X104863448Y-53309271D01*
X104892778Y-53345009D01*
X104976443Y-53501534D01*
X105027963Y-53671373D01*
X105045359Y-53848000D01*
X105027963Y-54024627D01*
X104976443Y-54194466D01*
X104892778Y-54350991D01*
X104863448Y-54386729D01*
X104780186Y-54488186D01*
X104678729Y-54571448D01*
X104642991Y-54600778D01*
X104486466Y-54684443D01*
X104316627Y-54735963D01*
X104250442Y-54742482D01*
X104184260Y-54749000D01*
X104095740Y-54749000D01*
X104029558Y-54742482D01*
X103963373Y-54735963D01*
X103793534Y-54684443D01*
X103637009Y-54600778D01*
X103601271Y-54571448D01*
X103499814Y-54488186D01*
X103416552Y-54386729D01*
X103387222Y-54350991D01*
X103303557Y-54194466D01*
X103252037Y-54024627D01*
X103234641Y-53848000D01*
X103252037Y-53671373D01*
X103303557Y-53501534D01*
X103387222Y-53345009D01*
X103416552Y-53309271D01*
X103499814Y-53207814D01*
X103601271Y-53124552D01*
X103637009Y-53095222D01*
X103793534Y-53011557D01*
X103963373Y-52960037D01*
X104029557Y-52953519D01*
X104095740Y-52947000D01*
X104184260Y-52947000D01*
X104250443Y-52953519D01*
X104250443Y-52953519D01*
G37*
G36*
X59321000Y-54749000D02*
G01*
X57519000Y-54749000D01*
X57519000Y-52947000D01*
X59321000Y-52947000D01*
X59321000Y-54749000D01*
X59321000Y-54749000D01*
G37*
G36*
X61070443Y-52953519D02*
G01*
X61136627Y-52960037D01*
X61306466Y-53011557D01*
X61462991Y-53095222D01*
X61498729Y-53124552D01*
X61600186Y-53207814D01*
X61683448Y-53309271D01*
X61712778Y-53345009D01*
X61796443Y-53501534D01*
X61847963Y-53671373D01*
X61865359Y-53848000D01*
X61847963Y-54024627D01*
X61796443Y-54194466D01*
X61712778Y-54350991D01*
X61683448Y-54386729D01*
X61600186Y-54488186D01*
X61498729Y-54571448D01*
X61462991Y-54600778D01*
X61306466Y-54684443D01*
X61136627Y-54735963D01*
X61070442Y-54742482D01*
X61004260Y-54749000D01*
X60915740Y-54749000D01*
X60849558Y-54742482D01*
X60783373Y-54735963D01*
X60613534Y-54684443D01*
X60457009Y-54600778D01*
X60421271Y-54571448D01*
X60319814Y-54488186D01*
X60236552Y-54386729D01*
X60207222Y-54350991D01*
X60123557Y-54194466D01*
X60072037Y-54024627D01*
X60054641Y-53848000D01*
X60072037Y-53671373D01*
X60123557Y-53501534D01*
X60207222Y-53345009D01*
X60236552Y-53309271D01*
X60319814Y-53207814D01*
X60421271Y-53124552D01*
X60457009Y-53095222D01*
X60613534Y-53011557D01*
X60783373Y-52960037D01*
X60849557Y-52953519D01*
X60915740Y-52947000D01*
X61004260Y-52947000D01*
X61070443Y-52953519D01*
X61070443Y-52953519D01*
G37*
G36*
X63610443Y-52953519D02*
G01*
X63676627Y-52960037D01*
X63846466Y-53011557D01*
X64002991Y-53095222D01*
X64038729Y-53124552D01*
X64140186Y-53207814D01*
X64223448Y-53309271D01*
X64252778Y-53345009D01*
X64336443Y-53501534D01*
X64387963Y-53671373D01*
X64405359Y-53848000D01*
X64387963Y-54024627D01*
X64336443Y-54194466D01*
X64252778Y-54350991D01*
X64223448Y-54386729D01*
X64140186Y-54488186D01*
X64038729Y-54571448D01*
X64002991Y-54600778D01*
X63846466Y-54684443D01*
X63676627Y-54735963D01*
X63610442Y-54742482D01*
X63544260Y-54749000D01*
X63455740Y-54749000D01*
X63389558Y-54742482D01*
X63323373Y-54735963D01*
X63153534Y-54684443D01*
X62997009Y-54600778D01*
X62961271Y-54571448D01*
X62859814Y-54488186D01*
X62776552Y-54386729D01*
X62747222Y-54350991D01*
X62663557Y-54194466D01*
X62612037Y-54024627D01*
X62594641Y-53848000D01*
X62612037Y-53671373D01*
X62663557Y-53501534D01*
X62747222Y-53345009D01*
X62776552Y-53309271D01*
X62859814Y-53207814D01*
X62961271Y-53124552D01*
X62997009Y-53095222D01*
X63153534Y-53011557D01*
X63323373Y-52960037D01*
X63389557Y-52953519D01*
X63455740Y-52947000D01*
X63544260Y-52947000D01*
X63610443Y-52953519D01*
X63610443Y-52953519D01*
G37*
G36*
X66150443Y-52953519D02*
G01*
X66216627Y-52960037D01*
X66386466Y-53011557D01*
X66542991Y-53095222D01*
X66578729Y-53124552D01*
X66680186Y-53207814D01*
X66763448Y-53309271D01*
X66792778Y-53345009D01*
X66876443Y-53501534D01*
X66927963Y-53671373D01*
X66945359Y-53848000D01*
X66927963Y-54024627D01*
X66876443Y-54194466D01*
X66792778Y-54350991D01*
X66763448Y-54386729D01*
X66680186Y-54488186D01*
X66578729Y-54571448D01*
X66542991Y-54600778D01*
X66386466Y-54684443D01*
X66216627Y-54735963D01*
X66150442Y-54742482D01*
X66084260Y-54749000D01*
X65995740Y-54749000D01*
X65929558Y-54742482D01*
X65863373Y-54735963D01*
X65693534Y-54684443D01*
X65537009Y-54600778D01*
X65501271Y-54571448D01*
X65399814Y-54488186D01*
X65316552Y-54386729D01*
X65287222Y-54350991D01*
X65203557Y-54194466D01*
X65152037Y-54024627D01*
X65134641Y-53848000D01*
X65152037Y-53671373D01*
X65203557Y-53501534D01*
X65287222Y-53345009D01*
X65316552Y-53309271D01*
X65399814Y-53207814D01*
X65501271Y-53124552D01*
X65537009Y-53095222D01*
X65693534Y-53011557D01*
X65863373Y-52960037D01*
X65929557Y-52953519D01*
X65995740Y-52947000D01*
X66084260Y-52947000D01*
X66150443Y-52953519D01*
X66150443Y-52953519D01*
G37*
G36*
X68690443Y-52953519D02*
G01*
X68756627Y-52960037D01*
X68926466Y-53011557D01*
X69082991Y-53095222D01*
X69118729Y-53124552D01*
X69220186Y-53207814D01*
X69303448Y-53309271D01*
X69332778Y-53345009D01*
X69416443Y-53501534D01*
X69467963Y-53671373D01*
X69485359Y-53848000D01*
X69467963Y-54024627D01*
X69416443Y-54194466D01*
X69332778Y-54350991D01*
X69303448Y-54386729D01*
X69220186Y-54488186D01*
X69118729Y-54571448D01*
X69082991Y-54600778D01*
X68926466Y-54684443D01*
X68756627Y-54735963D01*
X68690442Y-54742482D01*
X68624260Y-54749000D01*
X68535740Y-54749000D01*
X68469558Y-54742482D01*
X68403373Y-54735963D01*
X68233534Y-54684443D01*
X68077009Y-54600778D01*
X68041271Y-54571448D01*
X67939814Y-54488186D01*
X67856552Y-54386729D01*
X67827222Y-54350991D01*
X67743557Y-54194466D01*
X67692037Y-54024627D01*
X67674641Y-53848000D01*
X67692037Y-53671373D01*
X67743557Y-53501534D01*
X67827222Y-53345009D01*
X67856552Y-53309271D01*
X67939814Y-53207814D01*
X68041271Y-53124552D01*
X68077009Y-53095222D01*
X68233534Y-53011557D01*
X68403373Y-52960037D01*
X68469557Y-52953519D01*
X68535740Y-52947000D01*
X68624260Y-52947000D01*
X68690443Y-52953519D01*
X68690443Y-52953519D01*
G37*
G36*
X71230443Y-52953519D02*
G01*
X71296627Y-52960037D01*
X71466466Y-53011557D01*
X71622991Y-53095222D01*
X71658729Y-53124552D01*
X71760186Y-53207814D01*
X71843448Y-53309271D01*
X71872778Y-53345009D01*
X71956443Y-53501534D01*
X72007963Y-53671373D01*
X72025359Y-53848000D01*
X72007963Y-54024627D01*
X71956443Y-54194466D01*
X71872778Y-54350991D01*
X71843448Y-54386729D01*
X71760186Y-54488186D01*
X71658729Y-54571448D01*
X71622991Y-54600778D01*
X71466466Y-54684443D01*
X71296627Y-54735963D01*
X71230442Y-54742482D01*
X71164260Y-54749000D01*
X71075740Y-54749000D01*
X71009558Y-54742482D01*
X70943373Y-54735963D01*
X70773534Y-54684443D01*
X70617009Y-54600778D01*
X70581271Y-54571448D01*
X70479814Y-54488186D01*
X70396552Y-54386729D01*
X70367222Y-54350991D01*
X70283557Y-54194466D01*
X70232037Y-54024627D01*
X70214641Y-53848000D01*
X70232037Y-53671373D01*
X70283557Y-53501534D01*
X70367222Y-53345009D01*
X70396552Y-53309271D01*
X70479814Y-53207814D01*
X70581271Y-53124552D01*
X70617009Y-53095222D01*
X70773534Y-53011557D01*
X70943373Y-52960037D01*
X71009557Y-52953519D01*
X71075740Y-52947000D01*
X71164260Y-52947000D01*
X71230443Y-52953519D01*
X71230443Y-52953519D01*
G37*
G36*
X73770443Y-52953519D02*
G01*
X73836627Y-52960037D01*
X74006466Y-53011557D01*
X74162991Y-53095222D01*
X74198729Y-53124552D01*
X74300186Y-53207814D01*
X74383448Y-53309271D01*
X74412778Y-53345009D01*
X74496443Y-53501534D01*
X74547963Y-53671373D01*
X74565359Y-53848000D01*
X74547963Y-54024627D01*
X74496443Y-54194466D01*
X74412778Y-54350991D01*
X74383448Y-54386729D01*
X74300186Y-54488186D01*
X74198729Y-54571448D01*
X74162991Y-54600778D01*
X74006466Y-54684443D01*
X73836627Y-54735963D01*
X73770442Y-54742482D01*
X73704260Y-54749000D01*
X73615740Y-54749000D01*
X73549558Y-54742482D01*
X73483373Y-54735963D01*
X73313534Y-54684443D01*
X73157009Y-54600778D01*
X73121271Y-54571448D01*
X73019814Y-54488186D01*
X72936552Y-54386729D01*
X72907222Y-54350991D01*
X72823557Y-54194466D01*
X72772037Y-54024627D01*
X72754641Y-53848000D01*
X72772037Y-53671373D01*
X72823557Y-53501534D01*
X72907222Y-53345009D01*
X72936552Y-53309271D01*
X73019814Y-53207814D01*
X73121271Y-53124552D01*
X73157009Y-53095222D01*
X73313534Y-53011557D01*
X73483373Y-52960037D01*
X73549557Y-52953519D01*
X73615740Y-52947000D01*
X73704260Y-52947000D01*
X73770443Y-52953519D01*
X73770443Y-52953519D01*
G37*
G36*
X76310443Y-52953519D02*
G01*
X76376627Y-52960037D01*
X76546466Y-53011557D01*
X76702991Y-53095222D01*
X76738729Y-53124552D01*
X76840186Y-53207814D01*
X76923448Y-53309271D01*
X76952778Y-53345009D01*
X77036443Y-53501534D01*
X77087963Y-53671373D01*
X77105359Y-53848000D01*
X77087963Y-54024627D01*
X77036443Y-54194466D01*
X76952778Y-54350991D01*
X76923448Y-54386729D01*
X76840186Y-54488186D01*
X76738729Y-54571448D01*
X76702991Y-54600778D01*
X76546466Y-54684443D01*
X76376627Y-54735963D01*
X76310442Y-54742482D01*
X76244260Y-54749000D01*
X76155740Y-54749000D01*
X76089558Y-54742482D01*
X76023373Y-54735963D01*
X75853534Y-54684443D01*
X75697009Y-54600778D01*
X75661271Y-54571448D01*
X75559814Y-54488186D01*
X75476552Y-54386729D01*
X75447222Y-54350991D01*
X75363557Y-54194466D01*
X75312037Y-54024627D01*
X75294641Y-53848000D01*
X75312037Y-53671373D01*
X75363557Y-53501534D01*
X75447222Y-53345009D01*
X75476552Y-53309271D01*
X75559814Y-53207814D01*
X75661271Y-53124552D01*
X75697009Y-53095222D01*
X75853534Y-53011557D01*
X76023373Y-52960037D01*
X76089557Y-52953519D01*
X76155740Y-52947000D01*
X76244260Y-52947000D01*
X76310443Y-52953519D01*
X76310443Y-52953519D01*
G37*
G36*
X78850443Y-52953519D02*
G01*
X78916627Y-52960037D01*
X79086466Y-53011557D01*
X79242991Y-53095222D01*
X79278729Y-53124552D01*
X79380186Y-53207814D01*
X79463448Y-53309271D01*
X79492778Y-53345009D01*
X79576443Y-53501534D01*
X79627963Y-53671373D01*
X79645359Y-53848000D01*
X79627963Y-54024627D01*
X79576443Y-54194466D01*
X79492778Y-54350991D01*
X79463448Y-54386729D01*
X79380186Y-54488186D01*
X79278729Y-54571448D01*
X79242991Y-54600778D01*
X79086466Y-54684443D01*
X78916627Y-54735963D01*
X78850442Y-54742482D01*
X78784260Y-54749000D01*
X78695740Y-54749000D01*
X78629558Y-54742482D01*
X78563373Y-54735963D01*
X78393534Y-54684443D01*
X78237009Y-54600778D01*
X78201271Y-54571448D01*
X78099814Y-54488186D01*
X78016552Y-54386729D01*
X77987222Y-54350991D01*
X77903557Y-54194466D01*
X77852037Y-54024627D01*
X77834641Y-53848000D01*
X77852037Y-53671373D01*
X77903557Y-53501534D01*
X77987222Y-53345009D01*
X78016552Y-53309271D01*
X78099814Y-53207814D01*
X78201271Y-53124552D01*
X78237009Y-53095222D01*
X78393534Y-53011557D01*
X78563373Y-52960037D01*
X78629557Y-52953519D01*
X78695740Y-52947000D01*
X78784260Y-52947000D01*
X78850443Y-52953519D01*
X78850443Y-52953519D01*
G37*
G36*
X81390443Y-52953519D02*
G01*
X81456627Y-52960037D01*
X81626466Y-53011557D01*
X81782991Y-53095222D01*
X81818729Y-53124552D01*
X81920186Y-53207814D01*
X82003448Y-53309271D01*
X82032778Y-53345009D01*
X82116443Y-53501534D01*
X82167963Y-53671373D01*
X82185359Y-53848000D01*
X82167963Y-54024627D01*
X82116443Y-54194466D01*
X82032778Y-54350991D01*
X82003448Y-54386729D01*
X81920186Y-54488186D01*
X81818729Y-54571448D01*
X81782991Y-54600778D01*
X81626466Y-54684443D01*
X81456627Y-54735963D01*
X81390442Y-54742482D01*
X81324260Y-54749000D01*
X81235740Y-54749000D01*
X81169558Y-54742482D01*
X81103373Y-54735963D01*
X80933534Y-54684443D01*
X80777009Y-54600778D01*
X80741271Y-54571448D01*
X80639814Y-54488186D01*
X80556552Y-54386729D01*
X80527222Y-54350991D01*
X80443557Y-54194466D01*
X80392037Y-54024627D01*
X80374641Y-53848000D01*
X80392037Y-53671373D01*
X80443557Y-53501534D01*
X80527222Y-53345009D01*
X80556552Y-53309271D01*
X80639814Y-53207814D01*
X80741271Y-53124552D01*
X80777009Y-53095222D01*
X80933534Y-53011557D01*
X81103373Y-52960037D01*
X81169557Y-52953519D01*
X81235740Y-52947000D01*
X81324260Y-52947000D01*
X81390443Y-52953519D01*
X81390443Y-52953519D01*
G37*
G36*
X83930443Y-52953519D02*
G01*
X83996627Y-52960037D01*
X84166466Y-53011557D01*
X84322991Y-53095222D01*
X84358729Y-53124552D01*
X84460186Y-53207814D01*
X84543448Y-53309271D01*
X84572778Y-53345009D01*
X84656443Y-53501534D01*
X84707963Y-53671373D01*
X84725359Y-53848000D01*
X84707963Y-54024627D01*
X84656443Y-54194466D01*
X84572778Y-54350991D01*
X84543448Y-54386729D01*
X84460186Y-54488186D01*
X84358729Y-54571448D01*
X84322991Y-54600778D01*
X84166466Y-54684443D01*
X83996627Y-54735963D01*
X83930442Y-54742482D01*
X83864260Y-54749000D01*
X83775740Y-54749000D01*
X83709558Y-54742482D01*
X83643373Y-54735963D01*
X83473534Y-54684443D01*
X83317009Y-54600778D01*
X83281271Y-54571448D01*
X83179814Y-54488186D01*
X83096552Y-54386729D01*
X83067222Y-54350991D01*
X82983557Y-54194466D01*
X82932037Y-54024627D01*
X82914641Y-53848000D01*
X82932037Y-53671373D01*
X82983557Y-53501534D01*
X83067222Y-53345009D01*
X83096552Y-53309271D01*
X83179814Y-53207814D01*
X83281271Y-53124552D01*
X83317009Y-53095222D01*
X83473534Y-53011557D01*
X83643373Y-52960037D01*
X83709557Y-52953519D01*
X83775740Y-52947000D01*
X83864260Y-52947000D01*
X83930443Y-52953519D01*
X83930443Y-52953519D01*
G37*
G36*
X86470443Y-52953519D02*
G01*
X86536627Y-52960037D01*
X86706466Y-53011557D01*
X86862991Y-53095222D01*
X86898729Y-53124552D01*
X87000186Y-53207814D01*
X87083448Y-53309271D01*
X87112778Y-53345009D01*
X87196443Y-53501534D01*
X87247963Y-53671373D01*
X87265359Y-53848000D01*
X87247963Y-54024627D01*
X87196443Y-54194466D01*
X87112778Y-54350991D01*
X87083448Y-54386729D01*
X87000186Y-54488186D01*
X86898729Y-54571448D01*
X86862991Y-54600778D01*
X86706466Y-54684443D01*
X86536627Y-54735963D01*
X86470442Y-54742482D01*
X86404260Y-54749000D01*
X86315740Y-54749000D01*
X86249558Y-54742482D01*
X86183373Y-54735963D01*
X86013534Y-54684443D01*
X85857009Y-54600778D01*
X85821271Y-54571448D01*
X85719814Y-54488186D01*
X85636552Y-54386729D01*
X85607222Y-54350991D01*
X85523557Y-54194466D01*
X85472037Y-54024627D01*
X85454641Y-53848000D01*
X85472037Y-53671373D01*
X85523557Y-53501534D01*
X85607222Y-53345009D01*
X85636552Y-53309271D01*
X85719814Y-53207814D01*
X85821271Y-53124552D01*
X85857009Y-53095222D01*
X86013534Y-53011557D01*
X86183373Y-52960037D01*
X86249557Y-52953519D01*
X86315740Y-52947000D01*
X86404260Y-52947000D01*
X86470443Y-52953519D01*
X86470443Y-52953519D01*
G37*
G36*
X89010443Y-52953519D02*
G01*
X89076627Y-52960037D01*
X89246466Y-53011557D01*
X89402991Y-53095222D01*
X89438729Y-53124552D01*
X89540186Y-53207814D01*
X89623448Y-53309271D01*
X89652778Y-53345009D01*
X89736443Y-53501534D01*
X89787963Y-53671373D01*
X89805359Y-53848000D01*
X89787963Y-54024627D01*
X89736443Y-54194466D01*
X89652778Y-54350991D01*
X89623448Y-54386729D01*
X89540186Y-54488186D01*
X89438729Y-54571448D01*
X89402991Y-54600778D01*
X89246466Y-54684443D01*
X89076627Y-54735963D01*
X89010442Y-54742482D01*
X88944260Y-54749000D01*
X88855740Y-54749000D01*
X88789558Y-54742482D01*
X88723373Y-54735963D01*
X88553534Y-54684443D01*
X88397009Y-54600778D01*
X88361271Y-54571448D01*
X88259814Y-54488186D01*
X88176552Y-54386729D01*
X88147222Y-54350991D01*
X88063557Y-54194466D01*
X88012037Y-54024627D01*
X87994641Y-53848000D01*
X88012037Y-53671373D01*
X88063557Y-53501534D01*
X88147222Y-53345009D01*
X88176552Y-53309271D01*
X88259814Y-53207814D01*
X88361271Y-53124552D01*
X88397009Y-53095222D01*
X88553534Y-53011557D01*
X88723373Y-52960037D01*
X88789557Y-52953519D01*
X88855740Y-52947000D01*
X88944260Y-52947000D01*
X89010443Y-52953519D01*
X89010443Y-52953519D01*
G37*
G36*
X91550443Y-52953519D02*
G01*
X91616627Y-52960037D01*
X91786466Y-53011557D01*
X91942991Y-53095222D01*
X91978729Y-53124552D01*
X92080186Y-53207814D01*
X92163448Y-53309271D01*
X92192778Y-53345009D01*
X92276443Y-53501534D01*
X92327963Y-53671373D01*
X92345359Y-53848000D01*
X92327963Y-54024627D01*
X92276443Y-54194466D01*
X92192778Y-54350991D01*
X92163448Y-54386729D01*
X92080186Y-54488186D01*
X91978729Y-54571448D01*
X91942991Y-54600778D01*
X91786466Y-54684443D01*
X91616627Y-54735963D01*
X91550442Y-54742482D01*
X91484260Y-54749000D01*
X91395740Y-54749000D01*
X91329558Y-54742482D01*
X91263373Y-54735963D01*
X91093534Y-54684443D01*
X90937009Y-54600778D01*
X90901271Y-54571448D01*
X90799814Y-54488186D01*
X90716552Y-54386729D01*
X90687222Y-54350991D01*
X90603557Y-54194466D01*
X90552037Y-54024627D01*
X90534641Y-53848000D01*
X90552037Y-53671373D01*
X90603557Y-53501534D01*
X90687222Y-53345009D01*
X90716552Y-53309271D01*
X90799814Y-53207814D01*
X90901271Y-53124552D01*
X90937009Y-53095222D01*
X91093534Y-53011557D01*
X91263373Y-52960037D01*
X91329557Y-52953519D01*
X91395740Y-52947000D01*
X91484260Y-52947000D01*
X91550443Y-52953519D01*
X91550443Y-52953519D01*
G37*
G36*
X94090443Y-52953519D02*
G01*
X94156627Y-52960037D01*
X94326466Y-53011557D01*
X94482991Y-53095222D01*
X94518729Y-53124552D01*
X94620186Y-53207814D01*
X94703448Y-53309271D01*
X94732778Y-53345009D01*
X94816443Y-53501534D01*
X94867963Y-53671373D01*
X94885359Y-53848000D01*
X94867963Y-54024627D01*
X94816443Y-54194466D01*
X94732778Y-54350991D01*
X94703448Y-54386729D01*
X94620186Y-54488186D01*
X94518729Y-54571448D01*
X94482991Y-54600778D01*
X94326466Y-54684443D01*
X94156627Y-54735963D01*
X94090442Y-54742482D01*
X94024260Y-54749000D01*
X93935740Y-54749000D01*
X93869558Y-54742482D01*
X93803373Y-54735963D01*
X93633534Y-54684443D01*
X93477009Y-54600778D01*
X93441271Y-54571448D01*
X93339814Y-54488186D01*
X93256552Y-54386729D01*
X93227222Y-54350991D01*
X93143557Y-54194466D01*
X93092037Y-54024627D01*
X93074641Y-53848000D01*
X93092037Y-53671373D01*
X93143557Y-53501534D01*
X93227222Y-53345009D01*
X93256552Y-53309271D01*
X93339814Y-53207814D01*
X93441271Y-53124552D01*
X93477009Y-53095222D01*
X93633534Y-53011557D01*
X93803373Y-52960037D01*
X93869557Y-52953519D01*
X93935740Y-52947000D01*
X94024260Y-52947000D01*
X94090443Y-52953519D01*
X94090443Y-52953519D01*
G37*
G36*
X96630443Y-52953519D02*
G01*
X96696627Y-52960037D01*
X96866466Y-53011557D01*
X97022991Y-53095222D01*
X97058729Y-53124552D01*
X97160186Y-53207814D01*
X97243448Y-53309271D01*
X97272778Y-53345009D01*
X97356443Y-53501534D01*
X97407963Y-53671373D01*
X97425359Y-53848000D01*
X97407963Y-54024627D01*
X97356443Y-54194466D01*
X97272778Y-54350991D01*
X97243448Y-54386729D01*
X97160186Y-54488186D01*
X97058729Y-54571448D01*
X97022991Y-54600778D01*
X96866466Y-54684443D01*
X96696627Y-54735963D01*
X96630442Y-54742482D01*
X96564260Y-54749000D01*
X96475740Y-54749000D01*
X96409558Y-54742482D01*
X96343373Y-54735963D01*
X96173534Y-54684443D01*
X96017009Y-54600778D01*
X95981271Y-54571448D01*
X95879814Y-54488186D01*
X95796552Y-54386729D01*
X95767222Y-54350991D01*
X95683557Y-54194466D01*
X95632037Y-54024627D01*
X95614641Y-53848000D01*
X95632037Y-53671373D01*
X95683557Y-53501534D01*
X95767222Y-53345009D01*
X95796552Y-53309271D01*
X95879814Y-53207814D01*
X95981271Y-53124552D01*
X96017009Y-53095222D01*
X96173534Y-53011557D01*
X96343373Y-52960037D01*
X96409557Y-52953519D01*
X96475740Y-52947000D01*
X96564260Y-52947000D01*
X96630443Y-52953519D01*
X96630443Y-52953519D01*
G37*
G36*
X99170443Y-52953519D02*
G01*
X99236627Y-52960037D01*
X99406466Y-53011557D01*
X99562991Y-53095222D01*
X99598729Y-53124552D01*
X99700186Y-53207814D01*
X99783448Y-53309271D01*
X99812778Y-53345009D01*
X99896443Y-53501534D01*
X99947963Y-53671373D01*
X99965359Y-53848000D01*
X99947963Y-54024627D01*
X99896443Y-54194466D01*
X99812778Y-54350991D01*
X99783448Y-54386729D01*
X99700186Y-54488186D01*
X99598729Y-54571448D01*
X99562991Y-54600778D01*
X99406466Y-54684443D01*
X99236627Y-54735963D01*
X99170442Y-54742482D01*
X99104260Y-54749000D01*
X99015740Y-54749000D01*
X98949558Y-54742482D01*
X98883373Y-54735963D01*
X98713534Y-54684443D01*
X98557009Y-54600778D01*
X98521271Y-54571448D01*
X98419814Y-54488186D01*
X98336552Y-54386729D01*
X98307222Y-54350991D01*
X98223557Y-54194466D01*
X98172037Y-54024627D01*
X98154641Y-53848000D01*
X98172037Y-53671373D01*
X98223557Y-53501534D01*
X98307222Y-53345009D01*
X98336552Y-53309271D01*
X98419814Y-53207814D01*
X98521271Y-53124552D01*
X98557009Y-53095222D01*
X98713534Y-53011557D01*
X98883373Y-52960037D01*
X98949557Y-52953519D01*
X99015740Y-52947000D01*
X99104260Y-52947000D01*
X99170443Y-52953519D01*
X99170443Y-52953519D01*
G37*
G36*
X101710443Y-52953519D02*
G01*
X101776627Y-52960037D01*
X101946466Y-53011557D01*
X102102991Y-53095222D01*
X102138729Y-53124552D01*
X102240186Y-53207814D01*
X102323448Y-53309271D01*
X102352778Y-53345009D01*
X102436443Y-53501534D01*
X102487963Y-53671373D01*
X102505359Y-53848000D01*
X102487963Y-54024627D01*
X102436443Y-54194466D01*
X102352778Y-54350991D01*
X102323448Y-54386729D01*
X102240186Y-54488186D01*
X102138729Y-54571448D01*
X102102991Y-54600778D01*
X101946466Y-54684443D01*
X101776627Y-54735963D01*
X101710442Y-54742482D01*
X101644260Y-54749000D01*
X101555740Y-54749000D01*
X101489558Y-54742482D01*
X101423373Y-54735963D01*
X101253534Y-54684443D01*
X101097009Y-54600778D01*
X101061271Y-54571448D01*
X100959814Y-54488186D01*
X100876552Y-54386729D01*
X100847222Y-54350991D01*
X100763557Y-54194466D01*
X100712037Y-54024627D01*
X100694641Y-53848000D01*
X100712037Y-53671373D01*
X100763557Y-53501534D01*
X100847222Y-53345009D01*
X100876552Y-53309271D01*
X100959814Y-53207814D01*
X101061271Y-53124552D01*
X101097009Y-53095222D01*
X101253534Y-53011557D01*
X101423373Y-52960037D01*
X101489557Y-52953519D01*
X101555740Y-52947000D01*
X101644260Y-52947000D01*
X101710443Y-52953519D01*
X101710443Y-52953519D01*
G37*
G36*
X99170443Y-50413519D02*
G01*
X99236627Y-50420037D01*
X99406466Y-50471557D01*
X99562991Y-50555222D01*
X99598729Y-50584552D01*
X99700186Y-50667814D01*
X99783448Y-50769271D01*
X99812778Y-50805009D01*
X99896443Y-50961534D01*
X99947963Y-51131373D01*
X99965359Y-51308000D01*
X99947963Y-51484627D01*
X99896443Y-51654466D01*
X99812778Y-51810991D01*
X99783448Y-51846729D01*
X99700186Y-51948186D01*
X99598729Y-52031448D01*
X99562991Y-52060778D01*
X99406466Y-52144443D01*
X99236627Y-52195963D01*
X99170443Y-52202481D01*
X99104260Y-52209000D01*
X99015740Y-52209000D01*
X98949557Y-52202481D01*
X98883373Y-52195963D01*
X98713534Y-52144443D01*
X98557009Y-52060778D01*
X98521271Y-52031448D01*
X98419814Y-51948186D01*
X98336552Y-51846729D01*
X98307222Y-51810991D01*
X98223557Y-51654466D01*
X98172037Y-51484627D01*
X98154641Y-51308000D01*
X98172037Y-51131373D01*
X98223557Y-50961534D01*
X98307222Y-50805009D01*
X98336552Y-50769271D01*
X98419814Y-50667814D01*
X98521271Y-50584552D01*
X98557009Y-50555222D01*
X98713534Y-50471557D01*
X98883373Y-50420037D01*
X98949558Y-50413518D01*
X99015740Y-50407000D01*
X99104260Y-50407000D01*
X99170443Y-50413519D01*
X99170443Y-50413519D01*
G37*
G36*
X96630443Y-50413519D02*
G01*
X96696627Y-50420037D01*
X96866466Y-50471557D01*
X97022991Y-50555222D01*
X97058729Y-50584552D01*
X97160186Y-50667814D01*
X97243448Y-50769271D01*
X97272778Y-50805009D01*
X97356443Y-50961534D01*
X97407963Y-51131373D01*
X97425359Y-51308000D01*
X97407963Y-51484627D01*
X97356443Y-51654466D01*
X97272778Y-51810991D01*
X97243448Y-51846729D01*
X97160186Y-51948186D01*
X97058729Y-52031448D01*
X97022991Y-52060778D01*
X96866466Y-52144443D01*
X96696627Y-52195963D01*
X96630443Y-52202481D01*
X96564260Y-52209000D01*
X96475740Y-52209000D01*
X96409557Y-52202481D01*
X96343373Y-52195963D01*
X96173534Y-52144443D01*
X96017009Y-52060778D01*
X95981271Y-52031448D01*
X95879814Y-51948186D01*
X95796552Y-51846729D01*
X95767222Y-51810991D01*
X95683557Y-51654466D01*
X95632037Y-51484627D01*
X95614641Y-51308000D01*
X95632037Y-51131373D01*
X95683557Y-50961534D01*
X95767222Y-50805009D01*
X95796552Y-50769271D01*
X95879814Y-50667814D01*
X95981271Y-50584552D01*
X96017009Y-50555222D01*
X96173534Y-50471557D01*
X96343373Y-50420037D01*
X96409558Y-50413518D01*
X96475740Y-50407000D01*
X96564260Y-50407000D01*
X96630443Y-50413519D01*
X96630443Y-50413519D01*
G37*
G36*
X86470443Y-50413519D02*
G01*
X86536627Y-50420037D01*
X86706466Y-50471557D01*
X86862991Y-50555222D01*
X86898729Y-50584552D01*
X87000186Y-50667814D01*
X87083448Y-50769271D01*
X87112778Y-50805009D01*
X87196443Y-50961534D01*
X87247963Y-51131373D01*
X87265359Y-51308000D01*
X87247963Y-51484627D01*
X87196443Y-51654466D01*
X87112778Y-51810991D01*
X87083448Y-51846729D01*
X87000186Y-51948186D01*
X86898729Y-52031448D01*
X86862991Y-52060778D01*
X86706466Y-52144443D01*
X86536627Y-52195963D01*
X86470443Y-52202481D01*
X86404260Y-52209000D01*
X86315740Y-52209000D01*
X86249557Y-52202481D01*
X86183373Y-52195963D01*
X86013534Y-52144443D01*
X85857009Y-52060778D01*
X85821271Y-52031448D01*
X85719814Y-51948186D01*
X85636552Y-51846729D01*
X85607222Y-51810991D01*
X85523557Y-51654466D01*
X85472037Y-51484627D01*
X85454641Y-51308000D01*
X85472037Y-51131373D01*
X85523557Y-50961534D01*
X85607222Y-50805009D01*
X85636552Y-50769271D01*
X85719814Y-50667814D01*
X85821271Y-50584552D01*
X85857009Y-50555222D01*
X86013534Y-50471557D01*
X86183373Y-50420037D01*
X86249558Y-50413518D01*
X86315740Y-50407000D01*
X86404260Y-50407000D01*
X86470443Y-50413519D01*
X86470443Y-50413519D01*
G37*
G36*
X94090443Y-50413519D02*
G01*
X94156627Y-50420037D01*
X94326466Y-50471557D01*
X94482991Y-50555222D01*
X94518729Y-50584552D01*
X94620186Y-50667814D01*
X94703448Y-50769271D01*
X94732778Y-50805009D01*
X94816443Y-50961534D01*
X94867963Y-51131373D01*
X94885359Y-51308000D01*
X94867963Y-51484627D01*
X94816443Y-51654466D01*
X94732778Y-51810991D01*
X94703448Y-51846729D01*
X94620186Y-51948186D01*
X94518729Y-52031448D01*
X94482991Y-52060778D01*
X94326466Y-52144443D01*
X94156627Y-52195963D01*
X94090443Y-52202481D01*
X94024260Y-52209000D01*
X93935740Y-52209000D01*
X93869557Y-52202481D01*
X93803373Y-52195963D01*
X93633534Y-52144443D01*
X93477009Y-52060778D01*
X93441271Y-52031448D01*
X93339814Y-51948186D01*
X93256552Y-51846729D01*
X93227222Y-51810991D01*
X93143557Y-51654466D01*
X93092037Y-51484627D01*
X93074641Y-51308000D01*
X93092037Y-51131373D01*
X93143557Y-50961534D01*
X93227222Y-50805009D01*
X93256552Y-50769271D01*
X93339814Y-50667814D01*
X93441271Y-50584552D01*
X93477009Y-50555222D01*
X93633534Y-50471557D01*
X93803373Y-50420037D01*
X93869558Y-50413518D01*
X93935740Y-50407000D01*
X94024260Y-50407000D01*
X94090443Y-50413519D01*
X94090443Y-50413519D01*
G37*
G36*
X104250443Y-50413519D02*
G01*
X104316627Y-50420037D01*
X104486466Y-50471557D01*
X104642991Y-50555222D01*
X104678729Y-50584552D01*
X104780186Y-50667814D01*
X104863448Y-50769271D01*
X104892778Y-50805009D01*
X104976443Y-50961534D01*
X105027963Y-51131373D01*
X105045359Y-51308000D01*
X105027963Y-51484627D01*
X104976443Y-51654466D01*
X104892778Y-51810991D01*
X104863448Y-51846729D01*
X104780186Y-51948186D01*
X104678729Y-52031448D01*
X104642991Y-52060778D01*
X104486466Y-52144443D01*
X104316627Y-52195963D01*
X104250443Y-52202481D01*
X104184260Y-52209000D01*
X104095740Y-52209000D01*
X104029557Y-52202481D01*
X103963373Y-52195963D01*
X103793534Y-52144443D01*
X103637009Y-52060778D01*
X103601271Y-52031448D01*
X103499814Y-51948186D01*
X103416552Y-51846729D01*
X103387222Y-51810991D01*
X103303557Y-51654466D01*
X103252037Y-51484627D01*
X103234641Y-51308000D01*
X103252037Y-51131373D01*
X103303557Y-50961534D01*
X103387222Y-50805009D01*
X103416552Y-50769271D01*
X103499814Y-50667814D01*
X103601271Y-50584552D01*
X103637009Y-50555222D01*
X103793534Y-50471557D01*
X103963373Y-50420037D01*
X104029558Y-50413518D01*
X104095740Y-50407000D01*
X104184260Y-50407000D01*
X104250443Y-50413519D01*
X104250443Y-50413519D01*
G37*
G36*
X91550443Y-50413519D02*
G01*
X91616627Y-50420037D01*
X91786466Y-50471557D01*
X91942991Y-50555222D01*
X91978729Y-50584552D01*
X92080186Y-50667814D01*
X92163448Y-50769271D01*
X92192778Y-50805009D01*
X92276443Y-50961534D01*
X92327963Y-51131373D01*
X92345359Y-51308000D01*
X92327963Y-51484627D01*
X92276443Y-51654466D01*
X92192778Y-51810991D01*
X92163448Y-51846729D01*
X92080186Y-51948186D01*
X91978729Y-52031448D01*
X91942991Y-52060778D01*
X91786466Y-52144443D01*
X91616627Y-52195963D01*
X91550443Y-52202481D01*
X91484260Y-52209000D01*
X91395740Y-52209000D01*
X91329557Y-52202481D01*
X91263373Y-52195963D01*
X91093534Y-52144443D01*
X90937009Y-52060778D01*
X90901271Y-52031448D01*
X90799814Y-51948186D01*
X90716552Y-51846729D01*
X90687222Y-51810991D01*
X90603557Y-51654466D01*
X90552037Y-51484627D01*
X90534641Y-51308000D01*
X90552037Y-51131373D01*
X90603557Y-50961534D01*
X90687222Y-50805009D01*
X90716552Y-50769271D01*
X90799814Y-50667814D01*
X90901271Y-50584552D01*
X90937009Y-50555222D01*
X91093534Y-50471557D01*
X91263373Y-50420037D01*
X91329558Y-50413518D01*
X91395740Y-50407000D01*
X91484260Y-50407000D01*
X91550443Y-50413519D01*
X91550443Y-50413519D01*
G37*
G36*
X106790443Y-50413519D02*
G01*
X106856627Y-50420037D01*
X107026466Y-50471557D01*
X107182991Y-50555222D01*
X107218729Y-50584552D01*
X107320186Y-50667814D01*
X107403448Y-50769271D01*
X107432778Y-50805009D01*
X107516443Y-50961534D01*
X107567963Y-51131373D01*
X107585359Y-51308000D01*
X107567963Y-51484627D01*
X107516443Y-51654466D01*
X107432778Y-51810991D01*
X107403448Y-51846729D01*
X107320186Y-51948186D01*
X107218729Y-52031448D01*
X107182991Y-52060778D01*
X107026466Y-52144443D01*
X106856627Y-52195963D01*
X106790443Y-52202481D01*
X106724260Y-52209000D01*
X106635740Y-52209000D01*
X106569557Y-52202481D01*
X106503373Y-52195963D01*
X106333534Y-52144443D01*
X106177009Y-52060778D01*
X106141271Y-52031448D01*
X106039814Y-51948186D01*
X105956552Y-51846729D01*
X105927222Y-51810991D01*
X105843557Y-51654466D01*
X105792037Y-51484627D01*
X105774641Y-51308000D01*
X105792037Y-51131373D01*
X105843557Y-50961534D01*
X105927222Y-50805009D01*
X105956552Y-50769271D01*
X106039814Y-50667814D01*
X106141271Y-50584552D01*
X106177009Y-50555222D01*
X106333534Y-50471557D01*
X106503373Y-50420037D01*
X106569558Y-50413518D01*
X106635740Y-50407000D01*
X106724260Y-50407000D01*
X106790443Y-50413519D01*
X106790443Y-50413519D01*
G37*
G36*
X89010443Y-50413519D02*
G01*
X89076627Y-50420037D01*
X89246466Y-50471557D01*
X89402991Y-50555222D01*
X89438729Y-50584552D01*
X89540186Y-50667814D01*
X89623448Y-50769271D01*
X89652778Y-50805009D01*
X89736443Y-50961534D01*
X89787963Y-51131373D01*
X89805359Y-51308000D01*
X89787963Y-51484627D01*
X89736443Y-51654466D01*
X89652778Y-51810991D01*
X89623448Y-51846729D01*
X89540186Y-51948186D01*
X89438729Y-52031448D01*
X89402991Y-52060778D01*
X89246466Y-52144443D01*
X89076627Y-52195963D01*
X89010443Y-52202481D01*
X88944260Y-52209000D01*
X88855740Y-52209000D01*
X88789557Y-52202481D01*
X88723373Y-52195963D01*
X88553534Y-52144443D01*
X88397009Y-52060778D01*
X88361271Y-52031448D01*
X88259814Y-51948186D01*
X88176552Y-51846729D01*
X88147222Y-51810991D01*
X88063557Y-51654466D01*
X88012037Y-51484627D01*
X87994641Y-51308000D01*
X88012037Y-51131373D01*
X88063557Y-50961534D01*
X88147222Y-50805009D01*
X88176552Y-50769271D01*
X88259814Y-50667814D01*
X88361271Y-50584552D01*
X88397009Y-50555222D01*
X88553534Y-50471557D01*
X88723373Y-50420037D01*
X88789558Y-50413518D01*
X88855740Y-50407000D01*
X88944260Y-50407000D01*
X89010443Y-50413519D01*
X89010443Y-50413519D01*
G37*
G36*
X83930443Y-50413519D02*
G01*
X83996627Y-50420037D01*
X84166466Y-50471557D01*
X84322991Y-50555222D01*
X84358729Y-50584552D01*
X84460186Y-50667814D01*
X84543448Y-50769271D01*
X84572778Y-50805009D01*
X84656443Y-50961534D01*
X84707963Y-51131373D01*
X84725359Y-51308000D01*
X84707963Y-51484627D01*
X84656443Y-51654466D01*
X84572778Y-51810991D01*
X84543448Y-51846729D01*
X84460186Y-51948186D01*
X84358729Y-52031448D01*
X84322991Y-52060778D01*
X84166466Y-52144443D01*
X83996627Y-52195963D01*
X83930443Y-52202481D01*
X83864260Y-52209000D01*
X83775740Y-52209000D01*
X83709557Y-52202481D01*
X83643373Y-52195963D01*
X83473534Y-52144443D01*
X83317009Y-52060778D01*
X83281271Y-52031448D01*
X83179814Y-51948186D01*
X83096552Y-51846729D01*
X83067222Y-51810991D01*
X82983557Y-51654466D01*
X82932037Y-51484627D01*
X82914641Y-51308000D01*
X82932037Y-51131373D01*
X82983557Y-50961534D01*
X83067222Y-50805009D01*
X83096552Y-50769271D01*
X83179814Y-50667814D01*
X83281271Y-50584552D01*
X83317009Y-50555222D01*
X83473534Y-50471557D01*
X83643373Y-50420037D01*
X83709558Y-50413518D01*
X83775740Y-50407000D01*
X83864260Y-50407000D01*
X83930443Y-50413519D01*
X83930443Y-50413519D01*
G37*
G36*
X81390443Y-50413519D02*
G01*
X81456627Y-50420037D01*
X81626466Y-50471557D01*
X81782991Y-50555222D01*
X81818729Y-50584552D01*
X81920186Y-50667814D01*
X82003448Y-50769271D01*
X82032778Y-50805009D01*
X82116443Y-50961534D01*
X82167963Y-51131373D01*
X82185359Y-51308000D01*
X82167963Y-51484627D01*
X82116443Y-51654466D01*
X82032778Y-51810991D01*
X82003448Y-51846729D01*
X81920186Y-51948186D01*
X81818729Y-52031448D01*
X81782991Y-52060778D01*
X81626466Y-52144443D01*
X81456627Y-52195963D01*
X81390443Y-52202481D01*
X81324260Y-52209000D01*
X81235740Y-52209000D01*
X81169557Y-52202481D01*
X81103373Y-52195963D01*
X80933534Y-52144443D01*
X80777009Y-52060778D01*
X80741271Y-52031448D01*
X80639814Y-51948186D01*
X80556552Y-51846729D01*
X80527222Y-51810991D01*
X80443557Y-51654466D01*
X80392037Y-51484627D01*
X80374641Y-51308000D01*
X80392037Y-51131373D01*
X80443557Y-50961534D01*
X80527222Y-50805009D01*
X80556552Y-50769271D01*
X80639814Y-50667814D01*
X80741271Y-50584552D01*
X80777009Y-50555222D01*
X80933534Y-50471557D01*
X81103373Y-50420037D01*
X81169558Y-50413518D01*
X81235740Y-50407000D01*
X81324260Y-50407000D01*
X81390443Y-50413519D01*
X81390443Y-50413519D01*
G37*
G36*
X101710443Y-50413519D02*
G01*
X101776627Y-50420037D01*
X101946466Y-50471557D01*
X102102991Y-50555222D01*
X102138729Y-50584552D01*
X102240186Y-50667814D01*
X102323448Y-50769271D01*
X102352778Y-50805009D01*
X102436443Y-50961534D01*
X102487963Y-51131373D01*
X102505359Y-51308000D01*
X102487963Y-51484627D01*
X102436443Y-51654466D01*
X102352778Y-51810991D01*
X102323448Y-51846729D01*
X102240186Y-51948186D01*
X102138729Y-52031448D01*
X102102991Y-52060778D01*
X101946466Y-52144443D01*
X101776627Y-52195963D01*
X101710443Y-52202481D01*
X101644260Y-52209000D01*
X101555740Y-52209000D01*
X101489557Y-52202481D01*
X101423373Y-52195963D01*
X101253534Y-52144443D01*
X101097009Y-52060778D01*
X101061271Y-52031448D01*
X100959814Y-51948186D01*
X100876552Y-51846729D01*
X100847222Y-51810991D01*
X100763557Y-51654466D01*
X100712037Y-51484627D01*
X100694641Y-51308000D01*
X100712037Y-51131373D01*
X100763557Y-50961534D01*
X100847222Y-50805009D01*
X100876552Y-50769271D01*
X100959814Y-50667814D01*
X101061271Y-50584552D01*
X101097009Y-50555222D01*
X101253534Y-50471557D01*
X101423373Y-50420037D01*
X101489558Y-50413518D01*
X101555740Y-50407000D01*
X101644260Y-50407000D01*
X101710443Y-50413519D01*
X101710443Y-50413519D01*
G37*
G36*
X78850443Y-50413519D02*
G01*
X78916627Y-50420037D01*
X79086466Y-50471557D01*
X79242991Y-50555222D01*
X79278729Y-50584552D01*
X79380186Y-50667814D01*
X79463448Y-50769271D01*
X79492778Y-50805009D01*
X79576443Y-50961534D01*
X79627963Y-51131373D01*
X79645359Y-51308000D01*
X79627963Y-51484627D01*
X79576443Y-51654466D01*
X79492778Y-51810991D01*
X79463448Y-51846729D01*
X79380186Y-51948186D01*
X79278729Y-52031448D01*
X79242991Y-52060778D01*
X79086466Y-52144443D01*
X78916627Y-52195963D01*
X78850443Y-52202481D01*
X78784260Y-52209000D01*
X78695740Y-52209000D01*
X78629557Y-52202481D01*
X78563373Y-52195963D01*
X78393534Y-52144443D01*
X78237009Y-52060778D01*
X78201271Y-52031448D01*
X78099814Y-51948186D01*
X78016552Y-51846729D01*
X77987222Y-51810991D01*
X77903557Y-51654466D01*
X77852037Y-51484627D01*
X77834641Y-51308000D01*
X77852037Y-51131373D01*
X77903557Y-50961534D01*
X77987222Y-50805009D01*
X78016552Y-50769271D01*
X78099814Y-50667814D01*
X78201271Y-50584552D01*
X78237009Y-50555222D01*
X78393534Y-50471557D01*
X78563373Y-50420037D01*
X78629558Y-50413518D01*
X78695740Y-50407000D01*
X78784260Y-50407000D01*
X78850443Y-50413519D01*
X78850443Y-50413519D01*
G37*
G36*
X76310443Y-50413519D02*
G01*
X76376627Y-50420037D01*
X76546466Y-50471557D01*
X76702991Y-50555222D01*
X76738729Y-50584552D01*
X76840186Y-50667814D01*
X76923448Y-50769271D01*
X76952778Y-50805009D01*
X77036443Y-50961534D01*
X77087963Y-51131373D01*
X77105359Y-51308000D01*
X77087963Y-51484627D01*
X77036443Y-51654466D01*
X76952778Y-51810991D01*
X76923448Y-51846729D01*
X76840186Y-51948186D01*
X76738729Y-52031448D01*
X76702991Y-52060778D01*
X76546466Y-52144443D01*
X76376627Y-52195963D01*
X76310443Y-52202481D01*
X76244260Y-52209000D01*
X76155740Y-52209000D01*
X76089557Y-52202481D01*
X76023373Y-52195963D01*
X75853534Y-52144443D01*
X75697009Y-52060778D01*
X75661271Y-52031448D01*
X75559814Y-51948186D01*
X75476552Y-51846729D01*
X75447222Y-51810991D01*
X75363557Y-51654466D01*
X75312037Y-51484627D01*
X75294641Y-51308000D01*
X75312037Y-51131373D01*
X75363557Y-50961534D01*
X75447222Y-50805009D01*
X75476552Y-50769271D01*
X75559814Y-50667814D01*
X75661271Y-50584552D01*
X75697009Y-50555222D01*
X75853534Y-50471557D01*
X76023373Y-50420037D01*
X76089558Y-50413518D01*
X76155740Y-50407000D01*
X76244260Y-50407000D01*
X76310443Y-50413519D01*
X76310443Y-50413519D01*
G37*
G36*
X73770443Y-50413519D02*
G01*
X73836627Y-50420037D01*
X74006466Y-50471557D01*
X74162991Y-50555222D01*
X74198729Y-50584552D01*
X74300186Y-50667814D01*
X74383448Y-50769271D01*
X74412778Y-50805009D01*
X74496443Y-50961534D01*
X74547963Y-51131373D01*
X74565359Y-51308000D01*
X74547963Y-51484627D01*
X74496443Y-51654466D01*
X74412778Y-51810991D01*
X74383448Y-51846729D01*
X74300186Y-51948186D01*
X74198729Y-52031448D01*
X74162991Y-52060778D01*
X74006466Y-52144443D01*
X73836627Y-52195963D01*
X73770443Y-52202481D01*
X73704260Y-52209000D01*
X73615740Y-52209000D01*
X73549557Y-52202481D01*
X73483373Y-52195963D01*
X73313534Y-52144443D01*
X73157009Y-52060778D01*
X73121271Y-52031448D01*
X73019814Y-51948186D01*
X72936552Y-51846729D01*
X72907222Y-51810991D01*
X72823557Y-51654466D01*
X72772037Y-51484627D01*
X72754641Y-51308000D01*
X72772037Y-51131373D01*
X72823557Y-50961534D01*
X72907222Y-50805009D01*
X72936552Y-50769271D01*
X73019814Y-50667814D01*
X73121271Y-50584552D01*
X73157009Y-50555222D01*
X73313534Y-50471557D01*
X73483373Y-50420037D01*
X73549558Y-50413518D01*
X73615740Y-50407000D01*
X73704260Y-50407000D01*
X73770443Y-50413519D01*
X73770443Y-50413519D01*
G37*
G36*
X71230443Y-50413519D02*
G01*
X71296627Y-50420037D01*
X71466466Y-50471557D01*
X71622991Y-50555222D01*
X71658729Y-50584552D01*
X71760186Y-50667814D01*
X71843448Y-50769271D01*
X71872778Y-50805009D01*
X71956443Y-50961534D01*
X72007963Y-51131373D01*
X72025359Y-51308000D01*
X72007963Y-51484627D01*
X71956443Y-51654466D01*
X71872778Y-51810991D01*
X71843448Y-51846729D01*
X71760186Y-51948186D01*
X71658729Y-52031448D01*
X71622991Y-52060778D01*
X71466466Y-52144443D01*
X71296627Y-52195963D01*
X71230443Y-52202481D01*
X71164260Y-52209000D01*
X71075740Y-52209000D01*
X71009557Y-52202481D01*
X70943373Y-52195963D01*
X70773534Y-52144443D01*
X70617009Y-52060778D01*
X70581271Y-52031448D01*
X70479814Y-51948186D01*
X70396552Y-51846729D01*
X70367222Y-51810991D01*
X70283557Y-51654466D01*
X70232037Y-51484627D01*
X70214641Y-51308000D01*
X70232037Y-51131373D01*
X70283557Y-50961534D01*
X70367222Y-50805009D01*
X70396552Y-50769271D01*
X70479814Y-50667814D01*
X70581271Y-50584552D01*
X70617009Y-50555222D01*
X70773534Y-50471557D01*
X70943373Y-50420037D01*
X71009558Y-50413518D01*
X71075740Y-50407000D01*
X71164260Y-50407000D01*
X71230443Y-50413519D01*
X71230443Y-50413519D01*
G37*
G36*
X68690443Y-50413519D02*
G01*
X68756627Y-50420037D01*
X68926466Y-50471557D01*
X69082991Y-50555222D01*
X69118729Y-50584552D01*
X69220186Y-50667814D01*
X69303448Y-50769271D01*
X69332778Y-50805009D01*
X69416443Y-50961534D01*
X69467963Y-51131373D01*
X69485359Y-51308000D01*
X69467963Y-51484627D01*
X69416443Y-51654466D01*
X69332778Y-51810991D01*
X69303448Y-51846729D01*
X69220186Y-51948186D01*
X69118729Y-52031448D01*
X69082991Y-52060778D01*
X68926466Y-52144443D01*
X68756627Y-52195963D01*
X68690443Y-52202481D01*
X68624260Y-52209000D01*
X68535740Y-52209000D01*
X68469557Y-52202481D01*
X68403373Y-52195963D01*
X68233534Y-52144443D01*
X68077009Y-52060778D01*
X68041271Y-52031448D01*
X67939814Y-51948186D01*
X67856552Y-51846729D01*
X67827222Y-51810991D01*
X67743557Y-51654466D01*
X67692037Y-51484627D01*
X67674641Y-51308000D01*
X67692037Y-51131373D01*
X67743557Y-50961534D01*
X67827222Y-50805009D01*
X67856552Y-50769271D01*
X67939814Y-50667814D01*
X68041271Y-50584552D01*
X68077009Y-50555222D01*
X68233534Y-50471557D01*
X68403373Y-50420037D01*
X68469558Y-50413518D01*
X68535740Y-50407000D01*
X68624260Y-50407000D01*
X68690443Y-50413519D01*
X68690443Y-50413519D01*
G37*
G36*
X58530443Y-50413519D02*
G01*
X58596627Y-50420037D01*
X58766466Y-50471557D01*
X58922991Y-50555222D01*
X58958729Y-50584552D01*
X59060186Y-50667814D01*
X59143448Y-50769271D01*
X59172778Y-50805009D01*
X59256443Y-50961534D01*
X59307963Y-51131373D01*
X59325359Y-51308000D01*
X59307963Y-51484627D01*
X59256443Y-51654466D01*
X59172778Y-51810991D01*
X59143448Y-51846729D01*
X59060186Y-51948186D01*
X58958729Y-52031448D01*
X58922991Y-52060778D01*
X58766466Y-52144443D01*
X58596627Y-52195963D01*
X58530443Y-52202481D01*
X58464260Y-52209000D01*
X58375740Y-52209000D01*
X58309557Y-52202481D01*
X58243373Y-52195963D01*
X58073534Y-52144443D01*
X57917009Y-52060778D01*
X57881271Y-52031448D01*
X57779814Y-51948186D01*
X57696552Y-51846729D01*
X57667222Y-51810991D01*
X57583557Y-51654466D01*
X57532037Y-51484627D01*
X57514641Y-51308000D01*
X57532037Y-51131373D01*
X57583557Y-50961534D01*
X57667222Y-50805009D01*
X57696552Y-50769271D01*
X57779814Y-50667814D01*
X57881271Y-50584552D01*
X57917009Y-50555222D01*
X58073534Y-50471557D01*
X58243373Y-50420037D01*
X58309558Y-50413518D01*
X58375740Y-50407000D01*
X58464260Y-50407000D01*
X58530443Y-50413519D01*
X58530443Y-50413519D01*
G37*
G36*
X66150443Y-50413519D02*
G01*
X66216627Y-50420037D01*
X66386466Y-50471557D01*
X66542991Y-50555222D01*
X66578729Y-50584552D01*
X66680186Y-50667814D01*
X66763448Y-50769271D01*
X66792778Y-50805009D01*
X66876443Y-50961534D01*
X66927963Y-51131373D01*
X66945359Y-51308000D01*
X66927963Y-51484627D01*
X66876443Y-51654466D01*
X66792778Y-51810991D01*
X66763448Y-51846729D01*
X66680186Y-51948186D01*
X66578729Y-52031448D01*
X66542991Y-52060778D01*
X66386466Y-52144443D01*
X66216627Y-52195963D01*
X66150443Y-52202481D01*
X66084260Y-52209000D01*
X65995740Y-52209000D01*
X65929557Y-52202481D01*
X65863373Y-52195963D01*
X65693534Y-52144443D01*
X65537009Y-52060778D01*
X65501271Y-52031448D01*
X65399814Y-51948186D01*
X65316552Y-51846729D01*
X65287222Y-51810991D01*
X65203557Y-51654466D01*
X65152037Y-51484627D01*
X65134641Y-51308000D01*
X65152037Y-51131373D01*
X65203557Y-50961534D01*
X65287222Y-50805009D01*
X65316552Y-50769271D01*
X65399814Y-50667814D01*
X65501271Y-50584552D01*
X65537009Y-50555222D01*
X65693534Y-50471557D01*
X65863373Y-50420037D01*
X65929558Y-50413518D01*
X65995740Y-50407000D01*
X66084260Y-50407000D01*
X66150443Y-50413519D01*
X66150443Y-50413519D01*
G37*
G36*
X61070443Y-50413519D02*
G01*
X61136627Y-50420037D01*
X61306466Y-50471557D01*
X61462991Y-50555222D01*
X61498729Y-50584552D01*
X61600186Y-50667814D01*
X61683448Y-50769271D01*
X61712778Y-50805009D01*
X61796443Y-50961534D01*
X61847963Y-51131373D01*
X61865359Y-51308000D01*
X61847963Y-51484627D01*
X61796443Y-51654466D01*
X61712778Y-51810991D01*
X61683448Y-51846729D01*
X61600186Y-51948186D01*
X61498729Y-52031448D01*
X61462991Y-52060778D01*
X61306466Y-52144443D01*
X61136627Y-52195963D01*
X61070443Y-52202481D01*
X61004260Y-52209000D01*
X60915740Y-52209000D01*
X60849557Y-52202481D01*
X60783373Y-52195963D01*
X60613534Y-52144443D01*
X60457009Y-52060778D01*
X60421271Y-52031448D01*
X60319814Y-51948186D01*
X60236552Y-51846729D01*
X60207222Y-51810991D01*
X60123557Y-51654466D01*
X60072037Y-51484627D01*
X60054641Y-51308000D01*
X60072037Y-51131373D01*
X60123557Y-50961534D01*
X60207222Y-50805009D01*
X60236552Y-50769271D01*
X60319814Y-50667814D01*
X60421271Y-50584552D01*
X60457009Y-50555222D01*
X60613534Y-50471557D01*
X60783373Y-50420037D01*
X60849558Y-50413518D01*
X60915740Y-50407000D01*
X61004260Y-50407000D01*
X61070443Y-50413519D01*
X61070443Y-50413519D01*
G37*
G36*
X63610443Y-50413519D02*
G01*
X63676627Y-50420037D01*
X63846466Y-50471557D01*
X64002991Y-50555222D01*
X64038729Y-50584552D01*
X64140186Y-50667814D01*
X64223448Y-50769271D01*
X64252778Y-50805009D01*
X64336443Y-50961534D01*
X64387963Y-51131373D01*
X64405359Y-51308000D01*
X64387963Y-51484627D01*
X64336443Y-51654466D01*
X64252778Y-51810991D01*
X64223448Y-51846729D01*
X64140186Y-51948186D01*
X64038729Y-52031448D01*
X64002991Y-52060778D01*
X63846466Y-52144443D01*
X63676627Y-52195963D01*
X63610443Y-52202481D01*
X63544260Y-52209000D01*
X63455740Y-52209000D01*
X63389557Y-52202481D01*
X63323373Y-52195963D01*
X63153534Y-52144443D01*
X62997009Y-52060778D01*
X62961271Y-52031448D01*
X62859814Y-51948186D01*
X62776552Y-51846729D01*
X62747222Y-51810991D01*
X62663557Y-51654466D01*
X62612037Y-51484627D01*
X62594641Y-51308000D01*
X62612037Y-51131373D01*
X62663557Y-50961534D01*
X62747222Y-50805009D01*
X62776552Y-50769271D01*
X62859814Y-50667814D01*
X62961271Y-50584552D01*
X62997009Y-50555222D01*
X63153534Y-50471557D01*
X63323373Y-50420037D01*
X63389558Y-50413518D01*
X63455740Y-50407000D01*
X63544260Y-50407000D01*
X63610443Y-50413519D01*
X63610443Y-50413519D01*
G37*
M02*
