M48
; DRILL file {KiCad (5.1.4-0-10_14)} date 2019 October 10, Thursday 22:30:45
; FORMAT={-:-/ absolute / inch / decimal}
; #@! TF.CreationDate,2019-10-10T22:30:45+02:00
; #@! TF.GenerationSoftware,Kicad,Pcbnew,(5.1.4-0-10_14)
; #@! TF.FileFunction,Plated,1,2,PTH
FMAT,2
INCH
T1C0.0157
T2C0.0394
T3C0.0400
%
G90
G05
T1
X2.16Y-2.28
X2.2Y-2.33
X2.24Y-2.53
X2.62Y-2.53
X2.73Y-2.53
X2.84Y-2.53
X2.95Y-2.53
X3.04Y-2.53
X3.08Y-2.415
X3.13Y-2.24
X3.525Y-2.53
X3.625Y-2.19
X3.625Y-2.53
T2
X2.3Y-2.02
X2.3Y-2.12
X2.4Y-2.02
X2.4Y-2.12
X2.5Y-2.02
X2.5Y-2.12
X2.6Y-2.02
X2.6Y-2.12
X2.7Y-2.02
X2.7Y-2.12
X2.8Y-2.02
X2.8Y-2.12
X2.9Y-2.02
X2.9Y-2.12
X3.0Y-2.02
X3.0Y-2.12
X3.1Y-2.02
X3.1Y-2.12
X3.2Y-2.02
X3.2Y-2.12
X3.3Y-2.02
X3.3Y-2.12
X3.4Y-2.02
X3.4Y-2.12
X3.5Y-2.02
X3.5Y-2.12
X3.6Y-2.02
X3.6Y-2.12
X3.7Y-2.02
X3.7Y-2.12
X3.8Y-2.02
X3.8Y-2.12
X3.9Y-2.02
X3.9Y-2.12
X4.0Y-2.02
X4.0Y-2.12
X4.1Y-2.02
X4.1Y-2.12
X4.2Y-2.02
X4.2Y-2.12
X2.075Y-2.35
X2.075Y-2.45
X2.075Y-2.55
T3
X2.7Y-2.85
X2.7Y-2.95
X2.8Y-2.85
X2.8Y-2.95
X2.9Y-2.85
X2.9Y-2.95
X3.0Y-2.85
X3.0Y-2.95
X3.1Y-2.85
X3.1Y-2.95
X3.2Y-2.85
X3.2Y-2.95
X3.3Y-2.85
X3.3Y-2.95
X3.4Y-2.85
X3.4Y-2.95
X3.5Y-2.85
X3.5Y-2.95
X3.6Y-2.85
X3.6Y-2.95
X3.7Y-2.85
X3.7Y-2.95
X3.8Y-2.85
X3.8Y-2.95
X3.9Y-2.85
X3.9Y-2.95
T0
M30
