G04 #@! TF.GenerationSoftware,KiCad,Pcbnew,(5.1.4-0-10_14)*
G04 #@! TF.CreationDate,2019-10-10T22:30:47+02:00*
G04 #@! TF.ProjectId,raspberry-to-caetla,72617370-6265-4727-9279-2d746f2d6361,1.0.8*
G04 #@! TF.SameCoordinates,Original*
G04 #@! TF.FileFunction,Legend,Top*
G04 #@! TF.FilePolarity,Positive*
%FSLAX46Y46*%
G04 Gerber Fmt 4.6, Leading zero omitted, Abs format (unit mm)*
G04 Created by KiCad (PCBNEW (5.1.4-0-10_14)) date 2019-10-10 22:30:47*
%MOMM*%
%LPD*%
G04 APERTURE LIST*
%ADD10C,0.150000*%
%ADD11C,0.010000*%
%ADD12C,0.120000*%
G04 APERTURE END LIST*
D10*
X97027833Y-57222380D02*
X96694500Y-56746190D01*
X96456404Y-57222380D02*
X96456404Y-56222380D01*
X96837357Y-56222380D01*
X96932595Y-56270000D01*
X96980214Y-56317619D01*
X97027833Y-56412857D01*
X97027833Y-56555714D01*
X96980214Y-56650952D01*
X96932595Y-56698571D01*
X96837357Y-56746190D01*
X96456404Y-56746190D01*
X97884976Y-57222380D02*
X97884976Y-56698571D01*
X97837357Y-56603333D01*
X97742119Y-56555714D01*
X97551642Y-56555714D01*
X97456404Y-56603333D01*
X97884976Y-57174761D02*
X97789738Y-57222380D01*
X97551642Y-57222380D01*
X97456404Y-57174761D01*
X97408785Y-57079523D01*
X97408785Y-56984285D01*
X97456404Y-56889047D01*
X97551642Y-56841428D01*
X97789738Y-56841428D01*
X97884976Y-56793809D01*
X98313547Y-57174761D02*
X98408785Y-57222380D01*
X98599261Y-57222380D01*
X98694500Y-57174761D01*
X98742119Y-57079523D01*
X98742119Y-57031904D01*
X98694500Y-56936666D01*
X98599261Y-56889047D01*
X98456404Y-56889047D01*
X98361166Y-56841428D01*
X98313547Y-56746190D01*
X98313547Y-56698571D01*
X98361166Y-56603333D01*
X98456404Y-56555714D01*
X98599261Y-56555714D01*
X98694500Y-56603333D01*
X99170690Y-56555714D02*
X99170690Y-57555714D01*
X99170690Y-56603333D02*
X99265928Y-56555714D01*
X99456404Y-56555714D01*
X99551642Y-56603333D01*
X99599261Y-56650952D01*
X99646880Y-56746190D01*
X99646880Y-57031904D01*
X99599261Y-57127142D01*
X99551642Y-57174761D01*
X99456404Y-57222380D01*
X99265928Y-57222380D01*
X99170690Y-57174761D01*
X100075452Y-57222380D02*
X100075452Y-56555714D01*
X100075452Y-56222380D02*
X100027833Y-56270000D01*
X100075452Y-56317619D01*
X100123071Y-56270000D01*
X100075452Y-56222380D01*
X100075452Y-56317619D01*
X100551642Y-56841428D02*
X101313547Y-56841428D01*
X102361166Y-57127142D02*
X102313547Y-57174761D01*
X102170690Y-57222380D01*
X102075452Y-57222380D01*
X101932595Y-57174761D01*
X101837357Y-57079523D01*
X101789738Y-56984285D01*
X101742119Y-56793809D01*
X101742119Y-56650952D01*
X101789738Y-56460476D01*
X101837357Y-56365238D01*
X101932595Y-56270000D01*
X102075452Y-56222380D01*
X102170690Y-56222380D01*
X102313547Y-56270000D01*
X102361166Y-56317619D01*
X103218309Y-57222380D02*
X103218309Y-56698571D01*
X103170690Y-56603333D01*
X103075452Y-56555714D01*
X102884976Y-56555714D01*
X102789738Y-56603333D01*
X103218309Y-57174761D02*
X103123071Y-57222380D01*
X102884976Y-57222380D01*
X102789738Y-57174761D01*
X102742119Y-57079523D01*
X102742119Y-56984285D01*
X102789738Y-56889047D01*
X102884976Y-56841428D01*
X103123071Y-56841428D01*
X103218309Y-56793809D01*
X104075452Y-57174761D02*
X103980214Y-57222380D01*
X103789738Y-57222380D01*
X103694500Y-57174761D01*
X103646880Y-57079523D01*
X103646880Y-56698571D01*
X103694500Y-56603333D01*
X103789738Y-56555714D01*
X103980214Y-56555714D01*
X104075452Y-56603333D01*
X104123071Y-56698571D01*
X104123071Y-56793809D01*
X103646880Y-56889047D01*
X104408785Y-56555714D02*
X104789738Y-56555714D01*
X104551642Y-56222380D02*
X104551642Y-57079523D01*
X104599261Y-57174761D01*
X104694500Y-57222380D01*
X104789738Y-57222380D01*
X105265928Y-57222380D02*
X105170690Y-57174761D01*
X105123071Y-57079523D01*
X105123071Y-56222380D01*
X106075452Y-57222380D02*
X106075452Y-56698571D01*
X106027833Y-56603333D01*
X105932595Y-56555714D01*
X105742119Y-56555714D01*
X105646880Y-56603333D01*
X106075452Y-57174761D02*
X105980214Y-57222380D01*
X105742119Y-57222380D01*
X105646880Y-57174761D01*
X105599261Y-57079523D01*
X105599261Y-56984285D01*
X105646880Y-56889047D01*
X105742119Y-56841428D01*
X105980214Y-56841428D01*
X106075452Y-56793809D01*
X107313547Y-57222380D02*
X107313547Y-56555714D01*
X107313547Y-56222380D02*
X107265928Y-56270000D01*
X107313547Y-56317619D01*
X107361166Y-56270000D01*
X107313547Y-56222380D01*
X107313547Y-56317619D01*
X107789738Y-56555714D02*
X107789738Y-57222380D01*
X107789738Y-56650952D02*
X107837357Y-56603333D01*
X107932595Y-56555714D01*
X108075452Y-56555714D01*
X108170690Y-56603333D01*
X108218309Y-56698571D01*
X108218309Y-57222380D01*
X108551642Y-56555714D02*
X108932595Y-56555714D01*
X108694500Y-56222380D02*
X108694500Y-57079523D01*
X108742119Y-57174761D01*
X108837357Y-57222380D01*
X108932595Y-57222380D01*
X109646880Y-57174761D02*
X109551642Y-57222380D01*
X109361166Y-57222380D01*
X109265928Y-57174761D01*
X109218309Y-57079523D01*
X109218309Y-56698571D01*
X109265928Y-56603333D01*
X109361166Y-56555714D01*
X109551642Y-56555714D01*
X109646880Y-56603333D01*
X109694500Y-56698571D01*
X109694500Y-56793809D01*
X109218309Y-56889047D01*
X110123071Y-57222380D02*
X110123071Y-56555714D01*
X110123071Y-56746190D02*
X110170690Y-56650952D01*
X110218309Y-56603333D01*
X110313547Y-56555714D01*
X110408785Y-56555714D01*
X110599261Y-56555714D02*
X110980214Y-56555714D01*
X110742119Y-57222380D02*
X110742119Y-56365238D01*
X110789738Y-56270000D01*
X110884976Y-56222380D01*
X110980214Y-56222380D01*
X111742119Y-57222380D02*
X111742119Y-56698571D01*
X111694500Y-56603333D01*
X111599261Y-56555714D01*
X111408785Y-56555714D01*
X111313547Y-56603333D01*
X111742119Y-57174761D02*
X111646880Y-57222380D01*
X111408785Y-57222380D01*
X111313547Y-57174761D01*
X111265928Y-57079523D01*
X111265928Y-56984285D01*
X111313547Y-56889047D01*
X111408785Y-56841428D01*
X111646880Y-56841428D01*
X111742119Y-56793809D01*
X112646880Y-57174761D02*
X112551642Y-57222380D01*
X112361166Y-57222380D01*
X112265928Y-57174761D01*
X112218309Y-57127142D01*
X112170690Y-57031904D01*
X112170690Y-56746190D01*
X112218309Y-56650952D01*
X112265928Y-56603333D01*
X112361166Y-56555714D01*
X112551642Y-56555714D01*
X112646880Y-56603333D01*
X113456404Y-57174761D02*
X113361166Y-57222380D01*
X113170690Y-57222380D01*
X113075452Y-57174761D01*
X113027833Y-57079523D01*
X113027833Y-56698571D01*
X113075452Y-56603333D01*
X113170690Y-56555714D01*
X113361166Y-56555714D01*
X113456404Y-56603333D01*
X113504023Y-56698571D01*
X113504023Y-56793809D01*
X113027833Y-56889047D01*
X101789738Y-57872380D02*
X101789738Y-58586666D01*
X101742119Y-58729523D01*
X101646880Y-58824761D01*
X101504023Y-58872380D01*
X101408785Y-58872380D01*
X102694500Y-58872380D02*
X102694500Y-58348571D01*
X102646880Y-58253333D01*
X102551642Y-58205714D01*
X102361166Y-58205714D01*
X102265928Y-58253333D01*
X102694500Y-58824761D02*
X102599261Y-58872380D01*
X102361166Y-58872380D01*
X102265928Y-58824761D01*
X102218309Y-58729523D01*
X102218309Y-58634285D01*
X102265928Y-58539047D01*
X102361166Y-58491428D01*
X102599261Y-58491428D01*
X102694500Y-58443809D01*
X103170690Y-58872380D02*
X103170690Y-57872380D01*
X103265928Y-58491428D02*
X103551642Y-58872380D01*
X103551642Y-58205714D02*
X103170690Y-58586666D01*
X104408785Y-58205714D02*
X104408785Y-58872380D01*
X103980214Y-58205714D02*
X103980214Y-58729523D01*
X104027833Y-58824761D01*
X104123071Y-58872380D01*
X104265928Y-58872380D01*
X104361166Y-58824761D01*
X104408785Y-58777142D01*
X104884976Y-58872380D02*
X104884976Y-57872380D01*
X104884976Y-58253333D02*
X104980214Y-58205714D01*
X105170690Y-58205714D01*
X105265928Y-58253333D01*
X105313547Y-58300952D01*
X105361166Y-58396190D01*
X105361166Y-58681904D01*
X105313547Y-58777142D01*
X105265928Y-58824761D01*
X105170690Y-58872380D01*
X104980214Y-58872380D01*
X104884976Y-58824761D01*
X107123071Y-58777142D02*
X107075452Y-58824761D01*
X106932595Y-58872380D01*
X106837357Y-58872380D01*
X106694500Y-58824761D01*
X106599261Y-58729523D01*
X106551642Y-58634285D01*
X106504023Y-58443809D01*
X106504023Y-58300952D01*
X106551642Y-58110476D01*
X106599261Y-58015238D01*
X106694500Y-57920000D01*
X106837357Y-57872380D01*
X106932595Y-57872380D01*
X107075452Y-57920000D01*
X107123071Y-57967619D01*
X107456404Y-58205714D02*
X107980214Y-58205714D01*
X107456404Y-58872380D01*
X107980214Y-58872380D01*
X108742119Y-58824761D02*
X108646880Y-58872380D01*
X108456404Y-58872380D01*
X108361166Y-58824761D01*
X108313547Y-58729523D01*
X108313547Y-58348571D01*
X108361166Y-58253333D01*
X108456404Y-58205714D01*
X108646880Y-58205714D01*
X108742119Y-58253333D01*
X108789738Y-58348571D01*
X108789738Y-58443809D01*
X108313547Y-58539047D01*
X109218309Y-58872380D02*
X109218309Y-57872380D01*
X109313547Y-58491428D02*
X109599261Y-58872380D01*
X109599261Y-58205714D02*
X109218309Y-58586666D01*
X110456404Y-58872380D02*
X110456404Y-58348571D01*
X110408785Y-58253333D01*
X110313547Y-58205714D01*
X110123071Y-58205714D01*
X110027833Y-58253333D01*
X110456404Y-58824761D02*
X110361166Y-58872380D01*
X110123071Y-58872380D01*
X110027833Y-58824761D01*
X109980214Y-58729523D01*
X109980214Y-58634285D01*
X110027833Y-58539047D01*
X110123071Y-58491428D01*
X110361166Y-58491428D01*
X110456404Y-58443809D01*
X110932595Y-58205714D02*
X110932595Y-58872380D01*
X110932595Y-58300952D02*
X110980214Y-58253333D01*
X111075452Y-58205714D01*
X111218309Y-58205714D01*
X111313547Y-58253333D01*
X111361166Y-58348571D01*
X111361166Y-58872380D01*
X111218309Y-57824761D02*
X111075452Y-57967619D01*
X111789738Y-58824761D02*
X111884976Y-58872380D01*
X112075452Y-58872380D01*
X112170690Y-58824761D01*
X112218309Y-58729523D01*
X112218309Y-58681904D01*
X112170690Y-58586666D01*
X112075452Y-58539047D01*
X111932595Y-58539047D01*
X111837357Y-58491428D01*
X111789738Y-58396190D01*
X111789738Y-58348571D01*
X111837357Y-58253333D01*
X111932595Y-58205714D01*
X112075452Y-58205714D01*
X112170690Y-58253333D01*
X112646880Y-58872380D02*
X112646880Y-57872380D01*
X112742119Y-58491428D02*
X113027833Y-58872380D01*
X113027833Y-58205714D02*
X112646880Y-58586666D01*
X113456404Y-58872380D02*
X113456404Y-58205714D01*
X113456404Y-57872380D02*
X113408785Y-57920000D01*
X113456404Y-57967619D01*
X113504023Y-57920000D01*
X113456404Y-57872380D01*
X113456404Y-57967619D01*
X110694500Y-59855714D02*
X110932595Y-60522380D01*
X111170690Y-59855714D01*
X112075452Y-60522380D02*
X111504023Y-60522380D01*
X111789738Y-60522380D02*
X111789738Y-59522380D01*
X111694500Y-59665238D01*
X111599261Y-59760476D01*
X111504023Y-59808095D01*
X112504023Y-60427142D02*
X112551642Y-60474761D01*
X112504023Y-60522380D01*
X112456404Y-60474761D01*
X112504023Y-60427142D01*
X112504023Y-60522380D01*
X113504023Y-60522380D02*
X112932595Y-60522380D01*
X113218309Y-60522380D02*
X113218309Y-59522380D01*
X113123071Y-59665238D01*
X113027833Y-59760476D01*
X112932595Y-59808095D01*
D11*
G36*
X108923518Y-61316119D02*
G01*
X108971115Y-61318332D01*
X109006361Y-61323222D01*
X109035774Y-61331771D01*
X109065875Y-61344964D01*
X109072105Y-61348024D01*
X109120624Y-61374813D01*
X109149798Y-61400613D01*
X109164355Y-61432544D01*
X109169021Y-61477727D01*
X109169200Y-61494286D01*
X109170200Y-61535817D01*
X109175317Y-61559518D01*
X109187722Y-61572942D01*
X109205932Y-61581733D01*
X109244847Y-61590519D01*
X109290192Y-61583748D01*
X109291657Y-61583345D01*
X109321161Y-61578848D01*
X109371375Y-61575221D01*
X109438173Y-61572455D01*
X109517431Y-61570537D01*
X109605026Y-61569459D01*
X109696832Y-61569210D01*
X109788726Y-61569778D01*
X109876582Y-61571155D01*
X109956278Y-61573329D01*
X110023688Y-61576289D01*
X110074689Y-61580027D01*
X110105155Y-61584530D01*
X110108098Y-61585407D01*
X110139189Y-61597531D01*
X110158239Y-61607351D01*
X110159800Y-61608728D01*
X110174763Y-61616370D01*
X110205775Y-61627438D01*
X110226475Y-61633793D01*
X110261194Y-61645716D01*
X110283001Y-61656708D01*
X110286800Y-61661272D01*
X110297410Y-61669466D01*
X110311071Y-61671200D01*
X110338080Y-61681971D01*
X110366296Y-61708901D01*
X110389322Y-61743911D01*
X110400763Y-61778925D01*
X110401100Y-61784886D01*
X110404191Y-61839902D01*
X110415402Y-61875697D01*
X110437640Y-61897912D01*
X110465433Y-61909730D01*
X110501409Y-61919641D01*
X110528821Y-61924929D01*
X110533049Y-61925200D01*
X110552872Y-61930696D01*
X110585600Y-61944283D01*
X110622001Y-61961602D01*
X110652838Y-61978298D01*
X110667800Y-61988767D01*
X110682838Y-61996439D01*
X110712817Y-62007897D01*
X110724950Y-62012045D01*
X110783404Y-62033133D01*
X110843516Y-62058711D01*
X110912633Y-62092070D01*
X110971263Y-62122313D01*
X111002213Y-62141767D01*
X111023618Y-62160413D01*
X111042363Y-62176257D01*
X111051262Y-62179200D01*
X111077663Y-62190274D01*
X111093034Y-62220029D01*
X111094993Y-62263262D01*
X111093758Y-62271949D01*
X111084242Y-62330341D01*
X111079387Y-62369768D01*
X111079315Y-62396255D01*
X111084148Y-62415828D01*
X111094008Y-62434512D01*
X111097145Y-62439550D01*
X111133968Y-62475553D01*
X111177058Y-62494237D01*
X111235848Y-62513481D01*
X111278008Y-62531046D01*
X111300208Y-62545438D01*
X111302800Y-62550600D01*
X111313394Y-62558568D01*
X111326659Y-62560200D01*
X111349623Y-62571719D01*
X111365670Y-62596779D01*
X111375764Y-62632409D01*
X111381605Y-62675211D01*
X111382831Y-62716695D01*
X111379080Y-62748373D01*
X111372650Y-62760686D01*
X111356453Y-62778612D01*
X111346401Y-62794301D01*
X111324202Y-62821142D01*
X111309284Y-62832401D01*
X111284562Y-62849856D01*
X111253782Y-62875551D01*
X111247924Y-62880875D01*
X111219871Y-62903135D01*
X111197039Y-62915129D01*
X111192966Y-62915800D01*
X111177311Y-62923303D01*
X111175800Y-62928500D01*
X111165769Y-62940322D01*
X111159925Y-62941229D01*
X111141332Y-62948975D01*
X111112888Y-62968488D01*
X111099600Y-62979299D01*
X111071386Y-63002013D01*
X111051244Y-63015632D01*
X111046715Y-63017370D01*
X111033488Y-63025513D01*
X111009093Y-63046254D01*
X110992764Y-63061601D01*
X110958509Y-63089796D01*
X110924550Y-63109954D01*
X110912299Y-63114432D01*
X110878323Y-63129327D01*
X110856810Y-63146430D01*
X110833831Y-63164698D01*
X110817962Y-63169799D01*
X110793118Y-63176905D01*
X110777486Y-63186010D01*
X110762623Y-63208378D01*
X110767812Y-63231218D01*
X110789670Y-63245201D01*
X110799333Y-63246278D01*
X110831591Y-63252791D01*
X110874390Y-63268733D01*
X110917146Y-63289436D01*
X110949272Y-63310227D01*
X110954068Y-63314553D01*
X110964813Y-63335272D01*
X110971135Y-63365729D01*
X110972404Y-63396619D01*
X110967993Y-63418640D01*
X110961440Y-63423800D01*
X110949425Y-63434289D01*
X110935406Y-63459753D01*
X110934500Y-63461900D01*
X110921006Y-63488059D01*
X110909633Y-63499935D01*
X110909040Y-63500000D01*
X110897596Y-63510335D01*
X110892314Y-63522225D01*
X110873592Y-63563365D01*
X110843753Y-63611486D01*
X110809870Y-63655842D01*
X110791625Y-63675166D01*
X110774169Y-63697854D01*
X110769400Y-63712372D01*
X110762830Y-63727392D01*
X110758846Y-63728600D01*
X110746249Y-63738705D01*
X110730597Y-63763059D01*
X110730357Y-63763525D01*
X110710473Y-63795532D01*
X110692099Y-63817500D01*
X110673242Y-63839072D01*
X110666612Y-63850493D01*
X110650162Y-63878104D01*
X110616684Y-63920311D01*
X110568230Y-63974946D01*
X110506852Y-64039838D01*
X110434599Y-64112817D01*
X110353525Y-64191712D01*
X110267962Y-64272241D01*
X110181486Y-64352332D01*
X110198213Y-64422057D01*
X110209115Y-64461344D01*
X110219663Y-64489434D01*
X110225470Y-64498291D01*
X110233596Y-64514653D01*
X110236000Y-64535799D01*
X110240442Y-64559305D01*
X110248700Y-64566800D01*
X110256507Y-64578099D01*
X110260984Y-64606467D01*
X110261400Y-64619929D01*
X110265455Y-64657228D01*
X110275982Y-64705493D01*
X110290524Y-64756431D01*
X110306623Y-64801747D01*
X110321821Y-64833148D01*
X110326379Y-64839215D01*
X110335347Y-64860636D01*
X110337600Y-64880662D01*
X110342537Y-64914391D01*
X110348995Y-64932097D01*
X110358537Y-64955898D01*
X110373043Y-65000308D01*
X110392886Y-65066539D01*
X110418437Y-65155805D01*
X110427787Y-65189100D01*
X110439203Y-65226034D01*
X110449453Y-65252897D01*
X110452682Y-65258950D01*
X110461627Y-65283066D01*
X110471021Y-65328593D01*
X110480143Y-65391568D01*
X110485580Y-65439925D01*
X110491338Y-65477158D01*
X110498876Y-65501359D01*
X110503875Y-65506600D01*
X110511545Y-65517754D01*
X110515318Y-65545123D01*
X110515400Y-65550300D01*
X110518765Y-65581933D01*
X110526979Y-65600987D01*
X110528100Y-65601850D01*
X110537572Y-65619179D01*
X110540800Y-65643879D01*
X110544070Y-65676792D01*
X110553204Y-65729119D01*
X110567188Y-65795820D01*
X110585007Y-65871860D01*
X110593717Y-65906650D01*
X110602667Y-65952325D01*
X110609203Y-66004432D01*
X110610327Y-66019342D01*
X110615494Y-66067925D01*
X110624027Y-66114776D01*
X110627237Y-66127292D01*
X110637196Y-66166002D01*
X110648594Y-66216209D01*
X110655482Y-66249550D01*
X110671151Y-66317954D01*
X110689454Y-66372336D01*
X110707381Y-66411302D01*
X110717082Y-66439970D01*
X110718600Y-66452577D01*
X110723768Y-66469610D01*
X110728207Y-66471799D01*
X110737647Y-66482834D01*
X110749222Y-66510234D01*
X110760155Y-66545444D01*
X110767665Y-66579912D01*
X110769400Y-66598599D01*
X110774071Y-66619354D01*
X110780619Y-66624200D01*
X110790781Y-66636164D01*
X110801972Y-66669253D01*
X110813366Y-66719256D01*
X110824134Y-66781967D01*
X110833450Y-66853176D01*
X110840487Y-66928675D01*
X110840511Y-66929000D01*
X110845373Y-66976162D01*
X110851922Y-67015969D01*
X110857732Y-67036950D01*
X110873329Y-67079558D01*
X110885803Y-67131598D01*
X110897049Y-67200998D01*
X110897195Y-67202050D01*
X110905845Y-67259268D01*
X110916048Y-67319960D01*
X110921217Y-67348100D01*
X110951099Y-67559820D01*
X110962474Y-67786095D01*
X110955245Y-68023976D01*
X110947017Y-68122800D01*
X110938486Y-68200494D01*
X110929318Y-68259617D01*
X110917877Y-68306978D01*
X110902527Y-68349387D01*
X110882218Y-68392502D01*
X110873287Y-68422717D01*
X110871000Y-68446477D01*
X110866674Y-68470427D01*
X110858300Y-68478400D01*
X110848004Y-68489044D01*
X110845600Y-68503972D01*
X110840209Y-68537267D01*
X110834902Y-68551597D01*
X110805809Y-68612142D01*
X110786459Y-68654063D01*
X110775126Y-68681398D01*
X110770086Y-68698186D01*
X110769364Y-68705039D01*
X110761602Y-68727463D01*
X110741346Y-68761501D01*
X110713226Y-68800011D01*
X110690370Y-68826869D01*
X110673362Y-68849153D01*
X110667800Y-68862325D01*
X110659933Y-68878591D01*
X110642400Y-68900425D01*
X110623888Y-68925576D01*
X110617000Y-68944344D01*
X110609299Y-68959647D01*
X110604300Y-68961000D01*
X110592500Y-68971029D01*
X110591600Y-68976891D01*
X110583398Y-68993081D01*
X110561636Y-69021857D01*
X110530573Y-69057706D01*
X110521750Y-69067238D01*
X110489171Y-69103009D01*
X110464701Y-69131863D01*
X110452532Y-69148794D01*
X110451900Y-69150675D01*
X110443750Y-69163806D01*
X110422470Y-69189256D01*
X110395213Y-69218816D01*
X110361568Y-69255515D01*
X110332486Y-69289973D01*
X110317553Y-69309988D01*
X110298236Y-69332865D01*
X110282164Y-69342086D01*
X110266693Y-69351798D01*
X110245124Y-69376053D01*
X110237073Y-69387214D01*
X110212308Y-69418615D01*
X110188493Y-69441235D01*
X110183098Y-69444724D01*
X110164080Y-69460351D01*
X110159800Y-69470042D01*
X110151070Y-69483322D01*
X110127310Y-69509940D01*
X110092163Y-69546015D01*
X110049905Y-69587070D01*
X109998540Y-69636243D01*
X109946422Y-69686947D01*
X109900623Y-69732263D01*
X109875280Y-69757927D01*
X109777617Y-69858135D01*
X109696265Y-69940717D01*
X109630229Y-70006640D01*
X109578515Y-70056870D01*
X109540127Y-70092373D01*
X109514071Y-70114115D01*
X109499468Y-70123028D01*
X109478838Y-70137133D01*
X109474000Y-70149305D01*
X109467181Y-70165654D01*
X109461877Y-70167500D01*
X109445520Y-70175733D01*
X109421431Y-70195890D01*
X109418004Y-70199250D01*
X109392639Y-70220617D01*
X109372635Y-70230848D01*
X109370996Y-70231000D01*
X109354272Y-70239477D01*
X109327324Y-70261315D01*
X109305941Y-70281800D01*
X109275377Y-70309885D01*
X109249483Y-70328333D01*
X109238072Y-70332600D01*
X109221792Y-70338584D01*
X109220000Y-70343153D01*
X109209917Y-70355808D01*
X109185634Y-70371551D01*
X109185294Y-70371728D01*
X109152253Y-70392994D01*
X109117364Y-70421157D01*
X109113560Y-70424675D01*
X109087329Y-70446878D01*
X109067890Y-70458898D01*
X109064809Y-70459600D01*
X109046192Y-70467102D01*
X109034745Y-70475475D01*
X109015419Y-70491696D01*
X108983864Y-70517692D01*
X108953897Y-70542150D01*
X108907212Y-70587611D01*
X108868314Y-70643829D01*
X108832723Y-70717502D01*
X108826517Y-70732650D01*
X108820151Y-70757009D01*
X108812527Y-70798506D01*
X108805100Y-70849025D01*
X108803747Y-70859650D01*
X108793550Y-70962889D01*
X108792073Y-71046466D01*
X108800437Y-71114955D01*
X108819763Y-71172932D01*
X108851175Y-71224971D01*
X108895792Y-71275647D01*
X108908850Y-71288361D01*
X108968497Y-71345928D01*
X109009940Y-71387917D01*
X109034176Y-71415379D01*
X109042198Y-71429369D01*
X109042200Y-71429490D01*
X109050700Y-71445981D01*
X109065027Y-71461410D01*
X109086999Y-71485209D01*
X109112706Y-71518320D01*
X109118390Y-71526400D01*
X109139100Y-71555420D01*
X109154109Y-71574448D01*
X109156835Y-71577200D01*
X109166968Y-71591229D01*
X109184131Y-71620061D01*
X109195547Y-71640700D01*
X109214395Y-71674580D01*
X109228628Y-71698202D01*
X109233010Y-71704200D01*
X109242194Y-71718221D01*
X109258590Y-71747367D01*
X109271088Y-71770875D01*
X109290237Y-71804507D01*
X109305836Y-71826405D01*
X109312053Y-71831200D01*
X109319816Y-71841862D01*
X109321600Y-71856600D01*
X109325629Y-71877255D01*
X109331199Y-71882000D01*
X109341886Y-71892524D01*
X109355583Y-71918350D01*
X109357664Y-71923275D01*
X109379447Y-71976108D01*
X109395483Y-72013435D01*
X109409381Y-72043362D01*
X109424750Y-72073996D01*
X109424870Y-72074229D01*
X109440099Y-72108674D01*
X109448197Y-72136362D01*
X109448600Y-72140904D01*
X109453484Y-72158734D01*
X109458207Y-72161400D01*
X109467279Y-72172326D01*
X109478891Y-72199234D01*
X109490034Y-72233319D01*
X109497702Y-72265777D01*
X109499400Y-72282022D01*
X109505010Y-72309855D01*
X109510618Y-72323497D01*
X109537048Y-72383436D01*
X109558490Y-72447004D01*
X109572147Y-72504914D01*
X109575600Y-72539377D01*
X109578876Y-72569236D01*
X109586768Y-72585900D01*
X109586896Y-72585982D01*
X109593912Y-72595261D01*
X109600836Y-72616615D01*
X109608583Y-72653978D01*
X109618072Y-72711286D01*
X109621878Y-72736154D01*
X109629310Y-72768873D01*
X109638525Y-72789134D01*
X109640441Y-72790879D01*
X109647246Y-72806744D01*
X109651302Y-72838716D01*
X109651800Y-72856001D01*
X109655219Y-72904838D01*
X109663695Y-72952886D01*
X109666255Y-72962352D01*
X109670449Y-72973753D01*
X109675138Y-72984131D01*
X109679201Y-72993535D01*
X109681520Y-73002012D01*
X109680975Y-73009610D01*
X109676447Y-73016377D01*
X109666817Y-73022360D01*
X109650965Y-73027607D01*
X109627772Y-73032166D01*
X109596118Y-73036084D01*
X109554885Y-73039409D01*
X109502952Y-73042190D01*
X109439200Y-73044473D01*
X109362511Y-73046306D01*
X109271764Y-73047737D01*
X109165840Y-73048814D01*
X109043621Y-73049585D01*
X108903986Y-73050096D01*
X108745816Y-73050397D01*
X108567991Y-73050533D01*
X108369394Y-73050554D01*
X108148903Y-73050508D01*
X107905400Y-73050440D01*
X107637766Y-73050400D01*
X107600298Y-73050400D01*
X107333623Y-73050390D01*
X107091202Y-73050352D01*
X106871888Y-73050274D01*
X106674537Y-73050143D01*
X106498002Y-73049946D01*
X106341136Y-73049671D01*
X106202795Y-73049306D01*
X106081831Y-73048838D01*
X105977100Y-73048253D01*
X105887454Y-73047541D01*
X105811748Y-73046688D01*
X105748836Y-73045681D01*
X105697572Y-73044509D01*
X105656810Y-73043158D01*
X105625404Y-73041617D01*
X105602207Y-73039872D01*
X105586074Y-73037911D01*
X105575859Y-73035721D01*
X105570416Y-73033291D01*
X105568599Y-73030606D01*
X105569024Y-73028175D01*
X105579522Y-72997066D01*
X105584563Y-72977375D01*
X105593607Y-72955099D01*
X105601980Y-72948800D01*
X105611620Y-72938350D01*
X105613200Y-72927476D01*
X105618673Y-72892760D01*
X105633635Y-72842456D01*
X105655897Y-72783532D01*
X105665459Y-72761135D01*
X105680023Y-72723665D01*
X105688622Y-72693000D01*
X105689591Y-72684935D01*
X105693963Y-72658327D01*
X105704388Y-72621947D01*
X105717305Y-72586446D01*
X105729156Y-72562475D01*
X105731496Y-72559570D01*
X105738370Y-72541188D01*
X105740200Y-72521233D01*
X105744828Y-72498398D01*
X105752900Y-72491600D01*
X105764233Y-72481342D01*
X105765600Y-72472951D01*
X105771064Y-72455266D01*
X105785764Y-72420872D01*
X105807161Y-72374837D01*
X105832715Y-72322233D01*
X105859887Y-72268127D01*
X105886137Y-72217590D01*
X105908925Y-72175691D01*
X105925712Y-72147499D01*
X105933329Y-72138116D01*
X105942704Y-72123501D01*
X105943400Y-72117091D01*
X105948999Y-72096320D01*
X105962858Y-72064113D01*
X105980564Y-72029165D01*
X105997705Y-72000167D01*
X106009870Y-71985813D01*
X106010075Y-71985716D01*
X106018030Y-71971182D01*
X106019600Y-71957141D01*
X106024188Y-71937072D01*
X106030129Y-71932800D01*
X106040861Y-71922254D01*
X106057414Y-71895077D01*
X106070400Y-71869300D01*
X106088511Y-71834363D01*
X106103820Y-71811299D01*
X106110670Y-71805800D01*
X106119231Y-71795144D01*
X106121200Y-71780400D01*
X106126518Y-71759762D01*
X106133900Y-71755000D01*
X106145568Y-71744901D01*
X106146600Y-71738344D01*
X106154652Y-71717562D01*
X106172000Y-71694425D01*
X106190417Y-71670408D01*
X106197400Y-71653596D01*
X106205793Y-71638147D01*
X106227669Y-71611366D01*
X106254550Y-71582881D01*
X106284229Y-71551470D01*
X106304891Y-71526292D01*
X106311700Y-71513900D01*
X106319839Y-71498940D01*
X106340887Y-71472517D01*
X106362500Y-71448667D01*
X106389965Y-71418096D01*
X106408411Y-71394309D01*
X106413300Y-71384632D01*
X106423066Y-71374340D01*
X106426334Y-71374000D01*
X106441495Y-71365614D01*
X106468065Y-71343758D01*
X106496518Y-71316850D01*
X106527922Y-71287171D01*
X106553083Y-71266510D01*
X106565456Y-71259700D01*
X106581576Y-71251475D01*
X106605541Y-71231336D01*
X106608995Y-71227950D01*
X106633150Y-71206701D01*
X106650583Y-71196385D01*
X106651984Y-71196200D01*
X106666876Y-71184835D01*
X106680349Y-71156002D01*
X106689575Y-71117596D01*
X106691990Y-71084477D01*
X106683413Y-71020399D01*
X106658325Y-70959009D01*
X106614679Y-70897133D01*
X106550427Y-70831600D01*
X106501931Y-70789857D01*
X106464716Y-70759037D01*
X106433882Y-70732991D01*
X106416068Y-70717330D01*
X106416012Y-70717277D01*
X106393883Y-70700133D01*
X106363026Y-70680142D01*
X106362037Y-70679556D01*
X106336722Y-70661996D01*
X106324582Y-70648452D01*
X106324400Y-70647361D01*
X106314260Y-70638184D01*
X106307831Y-70637400D01*
X106289570Y-70629354D01*
X106261129Y-70608796D01*
X106242735Y-70592950D01*
X106213436Y-70567705D01*
X106191404Y-70551600D01*
X106184446Y-70548500D01*
X106169977Y-70540543D01*
X106145091Y-70520525D01*
X106133900Y-70510400D01*
X106107074Y-70487176D01*
X106087686Y-70473681D01*
X106083700Y-70472300D01*
X106068454Y-70464726D01*
X106044623Y-70446429D01*
X106043768Y-70445686D01*
X106014260Y-70423220D01*
X105974676Y-70396970D01*
X105956100Y-70385721D01*
X105917682Y-70361714D01*
X105885078Y-70338659D01*
X105874330Y-70329785D01*
X105851592Y-70312733D01*
X105837719Y-70307200D01*
X105820579Y-70298762D01*
X105805189Y-70284888D01*
X105778373Y-70262388D01*
X105749725Y-70244642D01*
X105725213Y-70229001D01*
X105714803Y-70216296D01*
X105714800Y-70216153D01*
X105704144Y-70207573D01*
X105689400Y-70205600D01*
X105668747Y-70201340D01*
X105664000Y-70195448D01*
X105653882Y-70184868D01*
X105627662Y-70165932D01*
X105591541Y-70142438D01*
X105551719Y-70118187D01*
X105514396Y-70096979D01*
X105485771Y-70082613D01*
X105473332Y-70078600D01*
X105461124Y-70070428D01*
X105460800Y-70068046D01*
X105450702Y-70055431D01*
X105426367Y-70039725D01*
X105425875Y-70039471D01*
X105391384Y-70018447D01*
X105366330Y-69999225D01*
X105341595Y-69982252D01*
X105325055Y-69977000D01*
X105309752Y-69969299D01*
X105308400Y-69964300D01*
X105297902Y-69953572D01*
X105285893Y-69951600D01*
X105262511Y-69944042D01*
X105230809Y-69925090D01*
X105219218Y-69916411D01*
X105182703Y-69889679D01*
X105147316Y-69867340D01*
X105140125Y-69863465D01*
X105115630Y-69848407D01*
X105105203Y-69836829D01*
X105105200Y-69836694D01*
X105094749Y-69826180D01*
X105069364Y-69812853D01*
X105067100Y-69811900D01*
X105040912Y-69797980D01*
X105029060Y-69785612D01*
X105029000Y-69784959D01*
X105018349Y-69775888D01*
X105003600Y-69773800D01*
X104982953Y-69769120D01*
X104978200Y-69762640D01*
X104967710Y-69750625D01*
X104942246Y-69736606D01*
X104940100Y-69735700D01*
X104913912Y-69721780D01*
X104902060Y-69709412D01*
X104902000Y-69708759D01*
X104891830Y-69698574D01*
X104884833Y-69697600D01*
X104865625Y-69689388D01*
X104838056Y-69668804D01*
X104827799Y-69659500D01*
X104798933Y-69635883D01*
X104774545Y-69622520D01*
X104768765Y-69621400D01*
X104751709Y-69616257D01*
X104749500Y-69611875D01*
X104739289Y-69599894D01*
X104720925Y-69589121D01*
X104671082Y-69564183D01*
X104621004Y-69536209D01*
X104578692Y-69509880D01*
X104553601Y-69491225D01*
X104528831Y-69474261D01*
X104512255Y-69469000D01*
X104496952Y-69461299D01*
X104495600Y-69456300D01*
X104485819Y-69444110D01*
X104482013Y-69443600D01*
X104464319Y-69436558D01*
X104433335Y-69418428D01*
X104395829Y-69393702D01*
X104358572Y-69366872D01*
X104328333Y-69342432D01*
X104324930Y-69339351D01*
X104302232Y-69322197D01*
X104288319Y-69316600D01*
X104271324Y-69308077D01*
X104255789Y-69293772D01*
X104232025Y-69271781D01*
X104198957Y-69245982D01*
X104190800Y-69240206D01*
X104154314Y-69211732D01*
X104114373Y-69175938D01*
X104099720Y-69161434D01*
X104071588Y-69134350D01*
X104049950Y-69116923D01*
X104042570Y-69113384D01*
X104026932Y-69105781D01*
X104001524Y-69086987D01*
X103995149Y-69081634D01*
X103969301Y-69061151D01*
X103951747Y-69050381D01*
X103949704Y-69049900D01*
X103938014Y-69041530D01*
X103911647Y-69018512D01*
X103874059Y-68983987D01*
X103828707Y-68941091D01*
X103808804Y-68921942D01*
X103757015Y-68872953D01*
X103707237Y-68827787D01*
X103664361Y-68790756D01*
X103633283Y-68766171D01*
X103627578Y-68762246D01*
X103597446Y-68739407D01*
X103557876Y-68704823D01*
X103512584Y-68662292D01*
X103465288Y-68615613D01*
X103419702Y-68568586D01*
X103379543Y-68525009D01*
X103348529Y-68488682D01*
X103330374Y-68463404D01*
X103327200Y-68455182D01*
X103319496Y-68439082D01*
X103304861Y-68420469D01*
X103284431Y-68396470D01*
X103256350Y-68361721D01*
X103238299Y-68338700D01*
X103209356Y-68302045D01*
X103183230Y-68270201D01*
X103171738Y-68256930D01*
X103154755Y-68233041D01*
X103149400Y-68217623D01*
X103140775Y-68198813D01*
X103124000Y-68179950D01*
X103104897Y-68156808D01*
X103098600Y-68139881D01*
X103091064Y-68124284D01*
X103085900Y-68122800D01*
X103074231Y-68112701D01*
X103073200Y-68106144D01*
X103065147Y-68085362D01*
X103047800Y-68062225D01*
X103029199Y-68035979D01*
X103022400Y-68015381D01*
X103017205Y-67998121D01*
X103012581Y-67995800D01*
X103002693Y-67985242D01*
X102985305Y-67957254D01*
X102963780Y-67917366D01*
X102958606Y-67907105D01*
X102936641Y-67865238D01*
X102918096Y-67833962D01*
X102906321Y-67818822D01*
X102904925Y-67818205D01*
X102896136Y-67807849D01*
X102895400Y-67801481D01*
X102890302Y-67777601D01*
X102878290Y-67748744D01*
X102864286Y-67725043D01*
X102854125Y-67716499D01*
X102845618Y-67706092D01*
X102844600Y-67697689D01*
X102839391Y-67675281D01*
X102826406Y-67642745D01*
X102809608Y-67608103D01*
X102792959Y-67579376D01*
X102780419Y-67564586D01*
X102778569Y-67564000D01*
X102769195Y-67553867D01*
X102768400Y-67547481D01*
X102763302Y-67523601D01*
X102751290Y-67494744D01*
X102737286Y-67471043D01*
X102727125Y-67462499D01*
X102719972Y-67451527D01*
X102717600Y-67430477D01*
X102713055Y-67396323D01*
X102706137Y-67376502D01*
X102695732Y-67351045D01*
X102683121Y-67313107D01*
X102678450Y-67297300D01*
X102667060Y-67260396D01*
X102657129Y-67233536D01*
X102654100Y-67227450D01*
X102645755Y-67208345D01*
X102634079Y-67174781D01*
X102628700Y-67157600D01*
X102616564Y-67120766D01*
X102605917Y-67093914D01*
X102602607Y-67087750D01*
X102594202Y-67066801D01*
X102587183Y-67036950D01*
X102578174Y-66992572D01*
X102576692Y-66986385D01*
X107597134Y-66986385D01*
X107600974Y-67030196D01*
X107611163Y-67087846D01*
X107614104Y-67102371D01*
X107627897Y-67133996D01*
X107654706Y-67173409D01*
X107688202Y-67213112D01*
X107722057Y-67245604D01*
X107749943Y-67263386D01*
X107749975Y-67263397D01*
X107768801Y-67279068D01*
X107772200Y-67290551D01*
X107780769Y-67304433D01*
X107809065Y-67309938D01*
X107819825Y-67310194D01*
X107856506Y-67313487D01*
X107884038Y-67321305D01*
X107886500Y-67322700D01*
X107898983Y-67330394D01*
X107910783Y-67333862D01*
X107928738Y-67332965D01*
X107959684Y-67327565D01*
X107995506Y-67320479D01*
X108080281Y-67293022D01*
X108150816Y-67246287D01*
X108209182Y-67178573D01*
X108244716Y-67116122D01*
X108269331Y-67050799D01*
X108279880Y-66988804D01*
X108275536Y-66936861D01*
X108268889Y-66919302D01*
X108256964Y-66895263D01*
X108239253Y-66858727D01*
X108229009Y-66837345D01*
X108205853Y-66798006D01*
X108175744Y-66758847D01*
X108144132Y-66725799D01*
X108116468Y-66704791D01*
X108103124Y-66700400D01*
X108084804Y-66694612D01*
X108054781Y-66680202D01*
X108045250Y-66675000D01*
X108001998Y-66658962D01*
X107948954Y-66650481D01*
X107896675Y-66650306D01*
X107855716Y-66659187D01*
X107851402Y-66661240D01*
X107824108Y-66673783D01*
X107788879Y-66687882D01*
X107788075Y-66688181D01*
X107760463Y-66701298D01*
X107747045Y-66713333D01*
X107746800Y-66714640D01*
X107736597Y-66724762D01*
X107729210Y-66725800D01*
X107710625Y-66735549D01*
X107689784Y-66759146D01*
X107688896Y-66760481D01*
X107665782Y-66791589D01*
X107644763Y-66814456D01*
X107630174Y-66837194D01*
X107615410Y-66875172D01*
X107607279Y-66904983D01*
X107599337Y-66947589D01*
X107597134Y-66986385D01*
X102576692Y-66986385D01*
X102565703Y-66940536D01*
X102551843Y-66888527D01*
X102538665Y-66844232D01*
X102528241Y-66815336D01*
X102526463Y-66811697D01*
X102517907Y-66783586D01*
X102514399Y-66747622D01*
X102511771Y-66717078D01*
X102504709Y-66669566D01*
X102494453Y-66612878D01*
X102487745Y-66579884D01*
X102477050Y-66524904D01*
X102469924Y-66474510D01*
X102465916Y-66421807D01*
X102464574Y-66359903D01*
X102465266Y-66298096D01*
X109802965Y-66298096D01*
X109803551Y-66337471D01*
X109812829Y-66360948D01*
X109815259Y-66362836D01*
X109825473Y-66379118D01*
X109833768Y-66406917D01*
X109848153Y-66442072D01*
X109872613Y-66475548D01*
X109873508Y-66476454D01*
X109895011Y-66501197D01*
X109905576Y-66519713D01*
X109905800Y-66521426D01*
X109916261Y-66534202D01*
X109942426Y-66550806D01*
X109953425Y-66556267D01*
X109984750Y-66571922D01*
X110004841Y-66583966D01*
X110007400Y-66586218D01*
X110023572Y-66595178D01*
X110054241Y-66606383D01*
X110089110Y-66616545D01*
X110117886Y-66622377D01*
X110121700Y-66622718D01*
X110144621Y-66619395D01*
X110180358Y-66609713D01*
X110197387Y-66604110D01*
X110261090Y-66577553D01*
X110316245Y-66546326D01*
X110358494Y-66513604D01*
X110383480Y-66482565D01*
X110388400Y-66464872D01*
X110394603Y-66448333D01*
X110399559Y-66446400D01*
X110414402Y-66434670D01*
X110427779Y-66403365D01*
X110438105Y-66358307D01*
X110443799Y-66305320D01*
X110444429Y-66281300D01*
X110441241Y-66226682D01*
X110432733Y-66177464D01*
X110420487Y-66139468D01*
X110406087Y-66118517D01*
X110399559Y-66116200D01*
X110388916Y-66106110D01*
X110387998Y-66100325D01*
X110379157Y-66078984D01*
X110358601Y-66051928D01*
X110334099Y-66027742D01*
X110313418Y-66015014D01*
X110310452Y-66014600D01*
X110290724Y-66006538D01*
X110266103Y-65987652D01*
X110247409Y-65973810D01*
X110223137Y-65965369D01*
X110186682Y-65960925D01*
X110131680Y-65959077D01*
X110077777Y-65959045D01*
X110042451Y-65961857D01*
X110018923Y-65968850D01*
X110000415Y-65981364D01*
X109995225Y-65986025D01*
X109964827Y-66006245D01*
X109935155Y-66014600D01*
X109911376Y-66021734D01*
X109905800Y-66039279D01*
X109896079Y-66065324D01*
X109879900Y-66082100D01*
X109858675Y-66106955D01*
X109838926Y-66147251D01*
X109822096Y-66196718D01*
X109809628Y-66249089D01*
X109802965Y-66298096D01*
X102465266Y-66298096D01*
X102465448Y-66281903D01*
X102466176Y-66250259D01*
X102468963Y-66164926D01*
X102472775Y-66100735D01*
X102478066Y-66053431D01*
X102485291Y-66018763D01*
X102493407Y-65995793D01*
X102506642Y-65959561D01*
X102507301Y-65934341D01*
X102500130Y-65916418D01*
X102484517Y-65897436D01*
X102459101Y-65889055D01*
X102428869Y-65887600D01*
X102362500Y-65878553D01*
X102311340Y-65850702D01*
X102301937Y-65842051D01*
X102290446Y-65818651D01*
X102286173Y-65786152D01*
X102289516Y-65756206D01*
X102298499Y-65741550D01*
X102310161Y-65723184D01*
X102311199Y-65715262D01*
X102316159Y-65693067D01*
X102328661Y-65658676D01*
X102335381Y-65642986D01*
X102356507Y-65595129D01*
X102377952Y-65545356D01*
X102381791Y-65536272D01*
X102402117Y-65499908D01*
X102426174Y-65472691D01*
X102433810Y-65467451D01*
X102455982Y-65452060D01*
X102463600Y-65440953D01*
X102474150Y-65432106D01*
X102486709Y-65430399D01*
X102518509Y-65418761D01*
X102544766Y-65388006D01*
X102561423Y-65344373D01*
X102565199Y-65309653D01*
X102562673Y-65275604D01*
X102556282Y-65255199D01*
X102552500Y-65252600D01*
X102542079Y-65241996D01*
X102539800Y-65227949D01*
X102533968Y-65203637D01*
X102527100Y-65195450D01*
X102521905Y-65180760D01*
X102518019Y-65148296D01*
X102515528Y-65104674D01*
X102514515Y-65056512D01*
X102515065Y-65010424D01*
X102517264Y-64973028D01*
X102521196Y-64950940D01*
X102523925Y-64947700D01*
X102535556Y-64937136D01*
X102549582Y-64912383D01*
X102561080Y-64883576D01*
X102565200Y-64862718D01*
X102572955Y-64847510D01*
X102577900Y-64846200D01*
X102589464Y-64836049D01*
X102590599Y-64828933D01*
X102596054Y-64810613D01*
X102610030Y-64777387D01*
X102628941Y-64736678D01*
X102649205Y-64695911D01*
X102667235Y-64662510D01*
X102679449Y-64643900D01*
X102680369Y-64643000D01*
X102690190Y-64628980D01*
X102707149Y-64600167D01*
X102718547Y-64579500D01*
X102737897Y-64546032D01*
X102753452Y-64523391D01*
X102758875Y-64518116D01*
X102767149Y-64503537D01*
X102768400Y-64492345D01*
X102777948Y-64468664D01*
X102793800Y-64452499D01*
X102813637Y-64429677D01*
X102819200Y-64411596D01*
X102825102Y-64392532D01*
X102831900Y-64389000D01*
X102842218Y-64378363D01*
X102844600Y-64363600D01*
X102849027Y-64342949D01*
X102855153Y-64338200D01*
X102867764Y-64328100D01*
X102883457Y-64303760D01*
X102883708Y-64303275D01*
X102898388Y-64276668D01*
X102908251Y-64262000D01*
X102917236Y-64247901D01*
X102933213Y-64218602D01*
X102945192Y-64195325D01*
X102964045Y-64161574D01*
X102979814Y-64139681D01*
X102986296Y-64135000D01*
X102996264Y-64124931D01*
X102997015Y-64119125D01*
X103004644Y-64099292D01*
X103023226Y-64072129D01*
X103025590Y-64069262D01*
X103046675Y-64042772D01*
X103076772Y-64003250D01*
X103110103Y-63958309D01*
X103117179Y-63948612D01*
X103147125Y-63908499D01*
X103171994Y-63877128D01*
X103187680Y-63859612D01*
X103190204Y-63857716D01*
X103199818Y-63843106D01*
X103200258Y-63838666D01*
X103208377Y-63820939D01*
X103228691Y-63794063D01*
X103238358Y-63783263D01*
X103261602Y-63756318D01*
X103275059Y-63736566D01*
X103276400Y-63732447D01*
X103285170Y-63715972D01*
X103307809Y-63688544D01*
X103338808Y-63655631D01*
X103372657Y-63622703D01*
X103403848Y-63595228D01*
X103426872Y-63578675D01*
X103433791Y-63576199D01*
X103451560Y-63570696D01*
X103454199Y-63565400D01*
X103464700Y-63554792D01*
X103492373Y-63536898D01*
X103531477Y-63515392D01*
X103535969Y-63513096D01*
X103580780Y-63488853D01*
X103619428Y-63465311D01*
X103643388Y-63447696D01*
X103666675Y-63429965D01*
X103681882Y-63423800D01*
X103711681Y-63414547D01*
X103752681Y-63389161D01*
X103800041Y-63351201D01*
X103848917Y-63304223D01*
X103858402Y-63294108D01*
X103891182Y-63259404D01*
X103937568Y-63211502D01*
X103993045Y-63155004D01*
X104053098Y-63094511D01*
X104104820Y-63042941D01*
X104166717Y-62981973D01*
X104214472Y-62936365D01*
X104251682Y-62903294D01*
X104281939Y-62879936D01*
X104308840Y-62863468D01*
X104335976Y-62851065D01*
X104360488Y-62842100D01*
X104410151Y-62827405D01*
X104457405Y-62817298D01*
X104487144Y-62814200D01*
X104526493Y-62818328D01*
X104563252Y-62828754D01*
X104589371Y-62842542D01*
X104597200Y-62854338D01*
X104607182Y-62864160D01*
X104631260Y-62864407D01*
X104660629Y-62856494D01*
X104686483Y-62841833D01*
X104689025Y-62839600D01*
X104714176Y-62821088D01*
X104732944Y-62814200D01*
X104748254Y-62807006D01*
X104749599Y-62802355D01*
X104760079Y-62789449D01*
X104774924Y-62782473D01*
X104803997Y-62768510D01*
X104816199Y-62759382D01*
X104834823Y-62746448D01*
X104869177Y-62726271D01*
X104912260Y-62702939D01*
X104917874Y-62700023D01*
X104958802Y-62677691D01*
X104989101Y-62658910D01*
X105003208Y-62647184D01*
X105003599Y-62646058D01*
X105014261Y-62638204D01*
X105029000Y-62636400D01*
X105049637Y-62631081D01*
X105054400Y-62623700D01*
X105065036Y-62613381D01*
X105079800Y-62611000D01*
X105100503Y-62606998D01*
X105105299Y-62601475D01*
X105115602Y-62590472D01*
X105139422Y-62576326D01*
X105166365Y-62564457D01*
X105184462Y-62560199D01*
X105200623Y-62552338D01*
X105222425Y-62534799D01*
X105241789Y-62521204D01*
X105268065Y-62513387D01*
X105308109Y-62509949D01*
X105347011Y-62509399D01*
X105397636Y-62508644D01*
X105430637Y-62504939D01*
X105453779Y-62496128D01*
X105474827Y-62480056D01*
X105484200Y-62471300D01*
X105509828Y-62448049D01*
X105527206Y-62434563D01*
X105530276Y-62433199D01*
X105542787Y-62426100D01*
X105569508Y-62407519D01*
X105603417Y-62382408D01*
X105649309Y-62350278D01*
X105697723Y-62320493D01*
X105727500Y-62304738D01*
X105761851Y-62287478D01*
X105785493Y-62273547D01*
X105791000Y-62268966D01*
X105805212Y-62256380D01*
X105832617Y-62236326D01*
X105865775Y-62213783D01*
X105897245Y-62193728D01*
X105919588Y-62181141D01*
X105925148Y-62179200D01*
X105939571Y-62170758D01*
X105954610Y-62156177D01*
X105983414Y-62130373D01*
X106026277Y-62099147D01*
X106074485Y-62068323D01*
X106119323Y-62043724D01*
X106130725Y-62038468D01*
X106158096Y-62024188D01*
X106171675Y-62012341D01*
X106172000Y-62010999D01*
X106182662Y-62003193D01*
X106197400Y-62001400D01*
X106218037Y-61996081D01*
X106222800Y-61988700D01*
X106233436Y-61978381D01*
X106248200Y-61976000D01*
X106268837Y-61970681D01*
X106273600Y-61963300D01*
X106284236Y-61952981D01*
X106299000Y-61950600D01*
X106319646Y-61945920D01*
X106324400Y-61939440D01*
X106334889Y-61927425D01*
X106360353Y-61913406D01*
X106362500Y-61912499D01*
X106388687Y-61898580D01*
X106400539Y-61886212D01*
X106400600Y-61885559D01*
X106411203Y-61876360D01*
X106424941Y-61874400D01*
X106447183Y-61869935D01*
X106453516Y-61864516D01*
X106466488Y-61854219D01*
X106496994Y-61836166D01*
X106539464Y-61813162D01*
X106588330Y-61788011D01*
X106638025Y-61763516D01*
X106682980Y-61742480D01*
X106717625Y-61727707D01*
X106736394Y-61722002D01*
X106736569Y-61721999D01*
X106753839Y-61715319D01*
X106756200Y-61709300D01*
X106767235Y-61700382D01*
X106793825Y-61696600D01*
X106794300Y-61696600D01*
X106821063Y-61693814D01*
X106832397Y-61687102D01*
X106832400Y-61686992D01*
X106843497Y-61677335D01*
X106871196Y-61665783D01*
X106907108Y-61654977D01*
X106942843Y-61647560D01*
X106963173Y-61645800D01*
X106994124Y-61656650D01*
X107027801Y-61685116D01*
X107057913Y-61725066D01*
X107071304Y-61751172D01*
X107080040Y-61784590D01*
X107085490Y-61830190D01*
X107086399Y-61855947D01*
X107087651Y-61896379D01*
X107092731Y-61917351D01*
X107103627Y-61924735D01*
X107109831Y-61925200D01*
X107136273Y-61916277D01*
X107154465Y-61901772D01*
X107179801Y-61883248D01*
X107217162Y-61865606D01*
X107229458Y-61861305D01*
X107273119Y-61843897D01*
X107317979Y-61820525D01*
X107353979Y-61796738D01*
X107365800Y-61786111D01*
X107388441Y-61769832D01*
X107420185Y-61754711D01*
X107446785Y-61747441D01*
X107448177Y-61747400D01*
X107465188Y-61740595D01*
X107467400Y-61734700D01*
X107478036Y-61724381D01*
X107492800Y-61722000D01*
X107513437Y-61716681D01*
X107518200Y-61709300D01*
X107528836Y-61698981D01*
X107543600Y-61696600D01*
X107564237Y-61691281D01*
X107569000Y-61683900D01*
X107579636Y-61673581D01*
X107594400Y-61671200D01*
X107615037Y-61665881D01*
X107619800Y-61658500D01*
X107630645Y-61648870D01*
X107650800Y-61645800D01*
X107677691Y-61641117D01*
X107689650Y-61633099D01*
X107707310Y-61622955D01*
X107725959Y-61620400D01*
X107753978Y-61616056D01*
X107766484Y-61609908D01*
X107785303Y-61600408D01*
X107818802Y-61588612D01*
X107835700Y-61583647D01*
X107880430Y-61571063D01*
X107922095Y-61558963D01*
X107931851Y-61556039D01*
X107968902Y-61547436D01*
X107998526Y-61544200D01*
X108020383Y-61540343D01*
X108026200Y-61534272D01*
X108038241Y-61524391D01*
X108072101Y-61512394D01*
X108124378Y-61499212D01*
X108191675Y-61485775D01*
X108223050Y-61480371D01*
X108277630Y-61469077D01*
X108330703Y-61454358D01*
X108365786Y-61441454D01*
X108400692Y-61426905D01*
X108426503Y-61418249D01*
X108432600Y-61417199D01*
X108451209Y-61412305D01*
X108483196Y-61399938D01*
X108499413Y-61392861D01*
X108580634Y-61358558D01*
X108650368Y-61335835D01*
X108718507Y-61322554D01*
X108794942Y-61316580D01*
X108857051Y-61315600D01*
X108923518Y-61316119D01*
X108923518Y-61316119D01*
G37*
X108923518Y-61316119D02*
X108971115Y-61318332D01*
X109006361Y-61323222D01*
X109035774Y-61331771D01*
X109065875Y-61344964D01*
X109072105Y-61348024D01*
X109120624Y-61374813D01*
X109149798Y-61400613D01*
X109164355Y-61432544D01*
X109169021Y-61477727D01*
X109169200Y-61494286D01*
X109170200Y-61535817D01*
X109175317Y-61559518D01*
X109187722Y-61572942D01*
X109205932Y-61581733D01*
X109244847Y-61590519D01*
X109290192Y-61583748D01*
X109291657Y-61583345D01*
X109321161Y-61578848D01*
X109371375Y-61575221D01*
X109438173Y-61572455D01*
X109517431Y-61570537D01*
X109605026Y-61569459D01*
X109696832Y-61569210D01*
X109788726Y-61569778D01*
X109876582Y-61571155D01*
X109956278Y-61573329D01*
X110023688Y-61576289D01*
X110074689Y-61580027D01*
X110105155Y-61584530D01*
X110108098Y-61585407D01*
X110139189Y-61597531D01*
X110158239Y-61607351D01*
X110159800Y-61608728D01*
X110174763Y-61616370D01*
X110205775Y-61627438D01*
X110226475Y-61633793D01*
X110261194Y-61645716D01*
X110283001Y-61656708D01*
X110286800Y-61661272D01*
X110297410Y-61669466D01*
X110311071Y-61671200D01*
X110338080Y-61681971D01*
X110366296Y-61708901D01*
X110389322Y-61743911D01*
X110400763Y-61778925D01*
X110401100Y-61784886D01*
X110404191Y-61839902D01*
X110415402Y-61875697D01*
X110437640Y-61897912D01*
X110465433Y-61909730D01*
X110501409Y-61919641D01*
X110528821Y-61924929D01*
X110533049Y-61925200D01*
X110552872Y-61930696D01*
X110585600Y-61944283D01*
X110622001Y-61961602D01*
X110652838Y-61978298D01*
X110667800Y-61988767D01*
X110682838Y-61996439D01*
X110712817Y-62007897D01*
X110724950Y-62012045D01*
X110783404Y-62033133D01*
X110843516Y-62058711D01*
X110912633Y-62092070D01*
X110971263Y-62122313D01*
X111002213Y-62141767D01*
X111023618Y-62160413D01*
X111042363Y-62176257D01*
X111051262Y-62179200D01*
X111077663Y-62190274D01*
X111093034Y-62220029D01*
X111094993Y-62263262D01*
X111093758Y-62271949D01*
X111084242Y-62330341D01*
X111079387Y-62369768D01*
X111079315Y-62396255D01*
X111084148Y-62415828D01*
X111094008Y-62434512D01*
X111097145Y-62439550D01*
X111133968Y-62475553D01*
X111177058Y-62494237D01*
X111235848Y-62513481D01*
X111278008Y-62531046D01*
X111300208Y-62545438D01*
X111302800Y-62550600D01*
X111313394Y-62558568D01*
X111326659Y-62560200D01*
X111349623Y-62571719D01*
X111365670Y-62596779D01*
X111375764Y-62632409D01*
X111381605Y-62675211D01*
X111382831Y-62716695D01*
X111379080Y-62748373D01*
X111372650Y-62760686D01*
X111356453Y-62778612D01*
X111346401Y-62794301D01*
X111324202Y-62821142D01*
X111309284Y-62832401D01*
X111284562Y-62849856D01*
X111253782Y-62875551D01*
X111247924Y-62880875D01*
X111219871Y-62903135D01*
X111197039Y-62915129D01*
X111192966Y-62915800D01*
X111177311Y-62923303D01*
X111175800Y-62928500D01*
X111165769Y-62940322D01*
X111159925Y-62941229D01*
X111141332Y-62948975D01*
X111112888Y-62968488D01*
X111099600Y-62979299D01*
X111071386Y-63002013D01*
X111051244Y-63015632D01*
X111046715Y-63017370D01*
X111033488Y-63025513D01*
X111009093Y-63046254D01*
X110992764Y-63061601D01*
X110958509Y-63089796D01*
X110924550Y-63109954D01*
X110912299Y-63114432D01*
X110878323Y-63129327D01*
X110856810Y-63146430D01*
X110833831Y-63164698D01*
X110817962Y-63169799D01*
X110793118Y-63176905D01*
X110777486Y-63186010D01*
X110762623Y-63208378D01*
X110767812Y-63231218D01*
X110789670Y-63245201D01*
X110799333Y-63246278D01*
X110831591Y-63252791D01*
X110874390Y-63268733D01*
X110917146Y-63289436D01*
X110949272Y-63310227D01*
X110954068Y-63314553D01*
X110964813Y-63335272D01*
X110971135Y-63365729D01*
X110972404Y-63396619D01*
X110967993Y-63418640D01*
X110961440Y-63423800D01*
X110949425Y-63434289D01*
X110935406Y-63459753D01*
X110934500Y-63461900D01*
X110921006Y-63488059D01*
X110909633Y-63499935D01*
X110909040Y-63500000D01*
X110897596Y-63510335D01*
X110892314Y-63522225D01*
X110873592Y-63563365D01*
X110843753Y-63611486D01*
X110809870Y-63655842D01*
X110791625Y-63675166D01*
X110774169Y-63697854D01*
X110769400Y-63712372D01*
X110762830Y-63727392D01*
X110758846Y-63728600D01*
X110746249Y-63738705D01*
X110730597Y-63763059D01*
X110730357Y-63763525D01*
X110710473Y-63795532D01*
X110692099Y-63817500D01*
X110673242Y-63839072D01*
X110666612Y-63850493D01*
X110650162Y-63878104D01*
X110616684Y-63920311D01*
X110568230Y-63974946D01*
X110506852Y-64039838D01*
X110434599Y-64112817D01*
X110353525Y-64191712D01*
X110267962Y-64272241D01*
X110181486Y-64352332D01*
X110198213Y-64422057D01*
X110209115Y-64461344D01*
X110219663Y-64489434D01*
X110225470Y-64498291D01*
X110233596Y-64514653D01*
X110236000Y-64535799D01*
X110240442Y-64559305D01*
X110248700Y-64566800D01*
X110256507Y-64578099D01*
X110260984Y-64606467D01*
X110261400Y-64619929D01*
X110265455Y-64657228D01*
X110275982Y-64705493D01*
X110290524Y-64756431D01*
X110306623Y-64801747D01*
X110321821Y-64833148D01*
X110326379Y-64839215D01*
X110335347Y-64860636D01*
X110337600Y-64880662D01*
X110342537Y-64914391D01*
X110348995Y-64932097D01*
X110358537Y-64955898D01*
X110373043Y-65000308D01*
X110392886Y-65066539D01*
X110418437Y-65155805D01*
X110427787Y-65189100D01*
X110439203Y-65226034D01*
X110449453Y-65252897D01*
X110452682Y-65258950D01*
X110461627Y-65283066D01*
X110471021Y-65328593D01*
X110480143Y-65391568D01*
X110485580Y-65439925D01*
X110491338Y-65477158D01*
X110498876Y-65501359D01*
X110503875Y-65506600D01*
X110511545Y-65517754D01*
X110515318Y-65545123D01*
X110515400Y-65550300D01*
X110518765Y-65581933D01*
X110526979Y-65600987D01*
X110528100Y-65601850D01*
X110537572Y-65619179D01*
X110540800Y-65643879D01*
X110544070Y-65676792D01*
X110553204Y-65729119D01*
X110567188Y-65795820D01*
X110585007Y-65871860D01*
X110593717Y-65906650D01*
X110602667Y-65952325D01*
X110609203Y-66004432D01*
X110610327Y-66019342D01*
X110615494Y-66067925D01*
X110624027Y-66114776D01*
X110627237Y-66127292D01*
X110637196Y-66166002D01*
X110648594Y-66216209D01*
X110655482Y-66249550D01*
X110671151Y-66317954D01*
X110689454Y-66372336D01*
X110707381Y-66411302D01*
X110717082Y-66439970D01*
X110718600Y-66452577D01*
X110723768Y-66469610D01*
X110728207Y-66471799D01*
X110737647Y-66482834D01*
X110749222Y-66510234D01*
X110760155Y-66545444D01*
X110767665Y-66579912D01*
X110769400Y-66598599D01*
X110774071Y-66619354D01*
X110780619Y-66624200D01*
X110790781Y-66636164D01*
X110801972Y-66669253D01*
X110813366Y-66719256D01*
X110824134Y-66781967D01*
X110833450Y-66853176D01*
X110840487Y-66928675D01*
X110840511Y-66929000D01*
X110845373Y-66976162D01*
X110851922Y-67015969D01*
X110857732Y-67036950D01*
X110873329Y-67079558D01*
X110885803Y-67131598D01*
X110897049Y-67200998D01*
X110897195Y-67202050D01*
X110905845Y-67259268D01*
X110916048Y-67319960D01*
X110921217Y-67348100D01*
X110951099Y-67559820D01*
X110962474Y-67786095D01*
X110955245Y-68023976D01*
X110947017Y-68122800D01*
X110938486Y-68200494D01*
X110929318Y-68259617D01*
X110917877Y-68306978D01*
X110902527Y-68349387D01*
X110882218Y-68392502D01*
X110873287Y-68422717D01*
X110871000Y-68446477D01*
X110866674Y-68470427D01*
X110858300Y-68478400D01*
X110848004Y-68489044D01*
X110845600Y-68503972D01*
X110840209Y-68537267D01*
X110834902Y-68551597D01*
X110805809Y-68612142D01*
X110786459Y-68654063D01*
X110775126Y-68681398D01*
X110770086Y-68698186D01*
X110769364Y-68705039D01*
X110761602Y-68727463D01*
X110741346Y-68761501D01*
X110713226Y-68800011D01*
X110690370Y-68826869D01*
X110673362Y-68849153D01*
X110667800Y-68862325D01*
X110659933Y-68878591D01*
X110642400Y-68900425D01*
X110623888Y-68925576D01*
X110617000Y-68944344D01*
X110609299Y-68959647D01*
X110604300Y-68961000D01*
X110592500Y-68971029D01*
X110591600Y-68976891D01*
X110583398Y-68993081D01*
X110561636Y-69021857D01*
X110530573Y-69057706D01*
X110521750Y-69067238D01*
X110489171Y-69103009D01*
X110464701Y-69131863D01*
X110452532Y-69148794D01*
X110451900Y-69150675D01*
X110443750Y-69163806D01*
X110422470Y-69189256D01*
X110395213Y-69218816D01*
X110361568Y-69255515D01*
X110332486Y-69289973D01*
X110317553Y-69309988D01*
X110298236Y-69332865D01*
X110282164Y-69342086D01*
X110266693Y-69351798D01*
X110245124Y-69376053D01*
X110237073Y-69387214D01*
X110212308Y-69418615D01*
X110188493Y-69441235D01*
X110183098Y-69444724D01*
X110164080Y-69460351D01*
X110159800Y-69470042D01*
X110151070Y-69483322D01*
X110127310Y-69509940D01*
X110092163Y-69546015D01*
X110049905Y-69587070D01*
X109998540Y-69636243D01*
X109946422Y-69686947D01*
X109900623Y-69732263D01*
X109875280Y-69757927D01*
X109777617Y-69858135D01*
X109696265Y-69940717D01*
X109630229Y-70006640D01*
X109578515Y-70056870D01*
X109540127Y-70092373D01*
X109514071Y-70114115D01*
X109499468Y-70123028D01*
X109478838Y-70137133D01*
X109474000Y-70149305D01*
X109467181Y-70165654D01*
X109461877Y-70167500D01*
X109445520Y-70175733D01*
X109421431Y-70195890D01*
X109418004Y-70199250D01*
X109392639Y-70220617D01*
X109372635Y-70230848D01*
X109370996Y-70231000D01*
X109354272Y-70239477D01*
X109327324Y-70261315D01*
X109305941Y-70281800D01*
X109275377Y-70309885D01*
X109249483Y-70328333D01*
X109238072Y-70332600D01*
X109221792Y-70338584D01*
X109220000Y-70343153D01*
X109209917Y-70355808D01*
X109185634Y-70371551D01*
X109185294Y-70371728D01*
X109152253Y-70392994D01*
X109117364Y-70421157D01*
X109113560Y-70424675D01*
X109087329Y-70446878D01*
X109067890Y-70458898D01*
X109064809Y-70459600D01*
X109046192Y-70467102D01*
X109034745Y-70475475D01*
X109015419Y-70491696D01*
X108983864Y-70517692D01*
X108953897Y-70542150D01*
X108907212Y-70587611D01*
X108868314Y-70643829D01*
X108832723Y-70717502D01*
X108826517Y-70732650D01*
X108820151Y-70757009D01*
X108812527Y-70798506D01*
X108805100Y-70849025D01*
X108803747Y-70859650D01*
X108793550Y-70962889D01*
X108792073Y-71046466D01*
X108800437Y-71114955D01*
X108819763Y-71172932D01*
X108851175Y-71224971D01*
X108895792Y-71275647D01*
X108908850Y-71288361D01*
X108968497Y-71345928D01*
X109009940Y-71387917D01*
X109034176Y-71415379D01*
X109042198Y-71429369D01*
X109042200Y-71429490D01*
X109050700Y-71445981D01*
X109065027Y-71461410D01*
X109086999Y-71485209D01*
X109112706Y-71518320D01*
X109118390Y-71526400D01*
X109139100Y-71555420D01*
X109154109Y-71574448D01*
X109156835Y-71577200D01*
X109166968Y-71591229D01*
X109184131Y-71620061D01*
X109195547Y-71640700D01*
X109214395Y-71674580D01*
X109228628Y-71698202D01*
X109233010Y-71704200D01*
X109242194Y-71718221D01*
X109258590Y-71747367D01*
X109271088Y-71770875D01*
X109290237Y-71804507D01*
X109305836Y-71826405D01*
X109312053Y-71831200D01*
X109319816Y-71841862D01*
X109321600Y-71856600D01*
X109325629Y-71877255D01*
X109331199Y-71882000D01*
X109341886Y-71892524D01*
X109355583Y-71918350D01*
X109357664Y-71923275D01*
X109379447Y-71976108D01*
X109395483Y-72013435D01*
X109409381Y-72043362D01*
X109424750Y-72073996D01*
X109424870Y-72074229D01*
X109440099Y-72108674D01*
X109448197Y-72136362D01*
X109448600Y-72140904D01*
X109453484Y-72158734D01*
X109458207Y-72161400D01*
X109467279Y-72172326D01*
X109478891Y-72199234D01*
X109490034Y-72233319D01*
X109497702Y-72265777D01*
X109499400Y-72282022D01*
X109505010Y-72309855D01*
X109510618Y-72323497D01*
X109537048Y-72383436D01*
X109558490Y-72447004D01*
X109572147Y-72504914D01*
X109575600Y-72539377D01*
X109578876Y-72569236D01*
X109586768Y-72585900D01*
X109586896Y-72585982D01*
X109593912Y-72595261D01*
X109600836Y-72616615D01*
X109608583Y-72653978D01*
X109618072Y-72711286D01*
X109621878Y-72736154D01*
X109629310Y-72768873D01*
X109638525Y-72789134D01*
X109640441Y-72790879D01*
X109647246Y-72806744D01*
X109651302Y-72838716D01*
X109651800Y-72856001D01*
X109655219Y-72904838D01*
X109663695Y-72952886D01*
X109666255Y-72962352D01*
X109670449Y-72973753D01*
X109675138Y-72984131D01*
X109679201Y-72993535D01*
X109681520Y-73002012D01*
X109680975Y-73009610D01*
X109676447Y-73016377D01*
X109666817Y-73022360D01*
X109650965Y-73027607D01*
X109627772Y-73032166D01*
X109596118Y-73036084D01*
X109554885Y-73039409D01*
X109502952Y-73042190D01*
X109439200Y-73044473D01*
X109362511Y-73046306D01*
X109271764Y-73047737D01*
X109165840Y-73048814D01*
X109043621Y-73049585D01*
X108903986Y-73050096D01*
X108745816Y-73050397D01*
X108567991Y-73050533D01*
X108369394Y-73050554D01*
X108148903Y-73050508D01*
X107905400Y-73050440D01*
X107637766Y-73050400D01*
X107600298Y-73050400D01*
X107333623Y-73050390D01*
X107091202Y-73050352D01*
X106871888Y-73050274D01*
X106674537Y-73050143D01*
X106498002Y-73049946D01*
X106341136Y-73049671D01*
X106202795Y-73049306D01*
X106081831Y-73048838D01*
X105977100Y-73048253D01*
X105887454Y-73047541D01*
X105811748Y-73046688D01*
X105748836Y-73045681D01*
X105697572Y-73044509D01*
X105656810Y-73043158D01*
X105625404Y-73041617D01*
X105602207Y-73039872D01*
X105586074Y-73037911D01*
X105575859Y-73035721D01*
X105570416Y-73033291D01*
X105568599Y-73030606D01*
X105569024Y-73028175D01*
X105579522Y-72997066D01*
X105584563Y-72977375D01*
X105593607Y-72955099D01*
X105601980Y-72948800D01*
X105611620Y-72938350D01*
X105613200Y-72927476D01*
X105618673Y-72892760D01*
X105633635Y-72842456D01*
X105655897Y-72783532D01*
X105665459Y-72761135D01*
X105680023Y-72723665D01*
X105688622Y-72693000D01*
X105689591Y-72684935D01*
X105693963Y-72658327D01*
X105704388Y-72621947D01*
X105717305Y-72586446D01*
X105729156Y-72562475D01*
X105731496Y-72559570D01*
X105738370Y-72541188D01*
X105740200Y-72521233D01*
X105744828Y-72498398D01*
X105752900Y-72491600D01*
X105764233Y-72481342D01*
X105765600Y-72472951D01*
X105771064Y-72455266D01*
X105785764Y-72420872D01*
X105807161Y-72374837D01*
X105832715Y-72322233D01*
X105859887Y-72268127D01*
X105886137Y-72217590D01*
X105908925Y-72175691D01*
X105925712Y-72147499D01*
X105933329Y-72138116D01*
X105942704Y-72123501D01*
X105943400Y-72117091D01*
X105948999Y-72096320D01*
X105962858Y-72064113D01*
X105980564Y-72029165D01*
X105997705Y-72000167D01*
X106009870Y-71985813D01*
X106010075Y-71985716D01*
X106018030Y-71971182D01*
X106019600Y-71957141D01*
X106024188Y-71937072D01*
X106030129Y-71932800D01*
X106040861Y-71922254D01*
X106057414Y-71895077D01*
X106070400Y-71869300D01*
X106088511Y-71834363D01*
X106103820Y-71811299D01*
X106110670Y-71805800D01*
X106119231Y-71795144D01*
X106121200Y-71780400D01*
X106126518Y-71759762D01*
X106133900Y-71755000D01*
X106145568Y-71744901D01*
X106146600Y-71738344D01*
X106154652Y-71717562D01*
X106172000Y-71694425D01*
X106190417Y-71670408D01*
X106197400Y-71653596D01*
X106205793Y-71638147D01*
X106227669Y-71611366D01*
X106254550Y-71582881D01*
X106284229Y-71551470D01*
X106304891Y-71526292D01*
X106311700Y-71513900D01*
X106319839Y-71498940D01*
X106340887Y-71472517D01*
X106362500Y-71448667D01*
X106389965Y-71418096D01*
X106408411Y-71394309D01*
X106413300Y-71384632D01*
X106423066Y-71374340D01*
X106426334Y-71374000D01*
X106441495Y-71365614D01*
X106468065Y-71343758D01*
X106496518Y-71316850D01*
X106527922Y-71287171D01*
X106553083Y-71266510D01*
X106565456Y-71259700D01*
X106581576Y-71251475D01*
X106605541Y-71231336D01*
X106608995Y-71227950D01*
X106633150Y-71206701D01*
X106650583Y-71196385D01*
X106651984Y-71196200D01*
X106666876Y-71184835D01*
X106680349Y-71156002D01*
X106689575Y-71117596D01*
X106691990Y-71084477D01*
X106683413Y-71020399D01*
X106658325Y-70959009D01*
X106614679Y-70897133D01*
X106550427Y-70831600D01*
X106501931Y-70789857D01*
X106464716Y-70759037D01*
X106433882Y-70732991D01*
X106416068Y-70717330D01*
X106416012Y-70717277D01*
X106393883Y-70700133D01*
X106363026Y-70680142D01*
X106362037Y-70679556D01*
X106336722Y-70661996D01*
X106324582Y-70648452D01*
X106324400Y-70647361D01*
X106314260Y-70638184D01*
X106307831Y-70637400D01*
X106289570Y-70629354D01*
X106261129Y-70608796D01*
X106242735Y-70592950D01*
X106213436Y-70567705D01*
X106191404Y-70551600D01*
X106184446Y-70548500D01*
X106169977Y-70540543D01*
X106145091Y-70520525D01*
X106133900Y-70510400D01*
X106107074Y-70487176D01*
X106087686Y-70473681D01*
X106083700Y-70472300D01*
X106068454Y-70464726D01*
X106044623Y-70446429D01*
X106043768Y-70445686D01*
X106014260Y-70423220D01*
X105974676Y-70396970D01*
X105956100Y-70385721D01*
X105917682Y-70361714D01*
X105885078Y-70338659D01*
X105874330Y-70329785D01*
X105851592Y-70312733D01*
X105837719Y-70307200D01*
X105820579Y-70298762D01*
X105805189Y-70284888D01*
X105778373Y-70262388D01*
X105749725Y-70244642D01*
X105725213Y-70229001D01*
X105714803Y-70216296D01*
X105714800Y-70216153D01*
X105704144Y-70207573D01*
X105689400Y-70205600D01*
X105668747Y-70201340D01*
X105664000Y-70195448D01*
X105653882Y-70184868D01*
X105627662Y-70165932D01*
X105591541Y-70142438D01*
X105551719Y-70118187D01*
X105514396Y-70096979D01*
X105485771Y-70082613D01*
X105473332Y-70078600D01*
X105461124Y-70070428D01*
X105460800Y-70068046D01*
X105450702Y-70055431D01*
X105426367Y-70039725D01*
X105425875Y-70039471D01*
X105391384Y-70018447D01*
X105366330Y-69999225D01*
X105341595Y-69982252D01*
X105325055Y-69977000D01*
X105309752Y-69969299D01*
X105308400Y-69964300D01*
X105297902Y-69953572D01*
X105285893Y-69951600D01*
X105262511Y-69944042D01*
X105230809Y-69925090D01*
X105219218Y-69916411D01*
X105182703Y-69889679D01*
X105147316Y-69867340D01*
X105140125Y-69863465D01*
X105115630Y-69848407D01*
X105105203Y-69836829D01*
X105105200Y-69836694D01*
X105094749Y-69826180D01*
X105069364Y-69812853D01*
X105067100Y-69811900D01*
X105040912Y-69797980D01*
X105029060Y-69785612D01*
X105029000Y-69784959D01*
X105018349Y-69775888D01*
X105003600Y-69773800D01*
X104982953Y-69769120D01*
X104978200Y-69762640D01*
X104967710Y-69750625D01*
X104942246Y-69736606D01*
X104940100Y-69735700D01*
X104913912Y-69721780D01*
X104902060Y-69709412D01*
X104902000Y-69708759D01*
X104891830Y-69698574D01*
X104884833Y-69697600D01*
X104865625Y-69689388D01*
X104838056Y-69668804D01*
X104827799Y-69659500D01*
X104798933Y-69635883D01*
X104774545Y-69622520D01*
X104768765Y-69621400D01*
X104751709Y-69616257D01*
X104749500Y-69611875D01*
X104739289Y-69599894D01*
X104720925Y-69589121D01*
X104671082Y-69564183D01*
X104621004Y-69536209D01*
X104578692Y-69509880D01*
X104553601Y-69491225D01*
X104528831Y-69474261D01*
X104512255Y-69469000D01*
X104496952Y-69461299D01*
X104495600Y-69456300D01*
X104485819Y-69444110D01*
X104482013Y-69443600D01*
X104464319Y-69436558D01*
X104433335Y-69418428D01*
X104395829Y-69393702D01*
X104358572Y-69366872D01*
X104328333Y-69342432D01*
X104324930Y-69339351D01*
X104302232Y-69322197D01*
X104288319Y-69316600D01*
X104271324Y-69308077D01*
X104255789Y-69293772D01*
X104232025Y-69271781D01*
X104198957Y-69245982D01*
X104190800Y-69240206D01*
X104154314Y-69211732D01*
X104114373Y-69175938D01*
X104099720Y-69161434D01*
X104071588Y-69134350D01*
X104049950Y-69116923D01*
X104042570Y-69113384D01*
X104026932Y-69105781D01*
X104001524Y-69086987D01*
X103995149Y-69081634D01*
X103969301Y-69061151D01*
X103951747Y-69050381D01*
X103949704Y-69049900D01*
X103938014Y-69041530D01*
X103911647Y-69018512D01*
X103874059Y-68983987D01*
X103828707Y-68941091D01*
X103808804Y-68921942D01*
X103757015Y-68872953D01*
X103707237Y-68827787D01*
X103664361Y-68790756D01*
X103633283Y-68766171D01*
X103627578Y-68762246D01*
X103597446Y-68739407D01*
X103557876Y-68704823D01*
X103512584Y-68662292D01*
X103465288Y-68615613D01*
X103419702Y-68568586D01*
X103379543Y-68525009D01*
X103348529Y-68488682D01*
X103330374Y-68463404D01*
X103327200Y-68455182D01*
X103319496Y-68439082D01*
X103304861Y-68420469D01*
X103284431Y-68396470D01*
X103256350Y-68361721D01*
X103238299Y-68338700D01*
X103209356Y-68302045D01*
X103183230Y-68270201D01*
X103171738Y-68256930D01*
X103154755Y-68233041D01*
X103149400Y-68217623D01*
X103140775Y-68198813D01*
X103124000Y-68179950D01*
X103104897Y-68156808D01*
X103098600Y-68139881D01*
X103091064Y-68124284D01*
X103085900Y-68122800D01*
X103074231Y-68112701D01*
X103073200Y-68106144D01*
X103065147Y-68085362D01*
X103047800Y-68062225D01*
X103029199Y-68035979D01*
X103022400Y-68015381D01*
X103017205Y-67998121D01*
X103012581Y-67995800D01*
X103002693Y-67985242D01*
X102985305Y-67957254D01*
X102963780Y-67917366D01*
X102958606Y-67907105D01*
X102936641Y-67865238D01*
X102918096Y-67833962D01*
X102906321Y-67818822D01*
X102904925Y-67818205D01*
X102896136Y-67807849D01*
X102895400Y-67801481D01*
X102890302Y-67777601D01*
X102878290Y-67748744D01*
X102864286Y-67725043D01*
X102854125Y-67716499D01*
X102845618Y-67706092D01*
X102844600Y-67697689D01*
X102839391Y-67675281D01*
X102826406Y-67642745D01*
X102809608Y-67608103D01*
X102792959Y-67579376D01*
X102780419Y-67564586D01*
X102778569Y-67564000D01*
X102769195Y-67553867D01*
X102768400Y-67547481D01*
X102763302Y-67523601D01*
X102751290Y-67494744D01*
X102737286Y-67471043D01*
X102727125Y-67462499D01*
X102719972Y-67451527D01*
X102717600Y-67430477D01*
X102713055Y-67396323D01*
X102706137Y-67376502D01*
X102695732Y-67351045D01*
X102683121Y-67313107D01*
X102678450Y-67297300D01*
X102667060Y-67260396D01*
X102657129Y-67233536D01*
X102654100Y-67227450D01*
X102645755Y-67208345D01*
X102634079Y-67174781D01*
X102628700Y-67157600D01*
X102616564Y-67120766D01*
X102605917Y-67093914D01*
X102602607Y-67087750D01*
X102594202Y-67066801D01*
X102587183Y-67036950D01*
X102578174Y-66992572D01*
X102576692Y-66986385D01*
X107597134Y-66986385D01*
X107600974Y-67030196D01*
X107611163Y-67087846D01*
X107614104Y-67102371D01*
X107627897Y-67133996D01*
X107654706Y-67173409D01*
X107688202Y-67213112D01*
X107722057Y-67245604D01*
X107749943Y-67263386D01*
X107749975Y-67263397D01*
X107768801Y-67279068D01*
X107772200Y-67290551D01*
X107780769Y-67304433D01*
X107809065Y-67309938D01*
X107819825Y-67310194D01*
X107856506Y-67313487D01*
X107884038Y-67321305D01*
X107886500Y-67322700D01*
X107898983Y-67330394D01*
X107910783Y-67333862D01*
X107928738Y-67332965D01*
X107959684Y-67327565D01*
X107995506Y-67320479D01*
X108080281Y-67293022D01*
X108150816Y-67246287D01*
X108209182Y-67178573D01*
X108244716Y-67116122D01*
X108269331Y-67050799D01*
X108279880Y-66988804D01*
X108275536Y-66936861D01*
X108268889Y-66919302D01*
X108256964Y-66895263D01*
X108239253Y-66858727D01*
X108229009Y-66837345D01*
X108205853Y-66798006D01*
X108175744Y-66758847D01*
X108144132Y-66725799D01*
X108116468Y-66704791D01*
X108103124Y-66700400D01*
X108084804Y-66694612D01*
X108054781Y-66680202D01*
X108045250Y-66675000D01*
X108001998Y-66658962D01*
X107948954Y-66650481D01*
X107896675Y-66650306D01*
X107855716Y-66659187D01*
X107851402Y-66661240D01*
X107824108Y-66673783D01*
X107788879Y-66687882D01*
X107788075Y-66688181D01*
X107760463Y-66701298D01*
X107747045Y-66713333D01*
X107746800Y-66714640D01*
X107736597Y-66724762D01*
X107729210Y-66725800D01*
X107710625Y-66735549D01*
X107689784Y-66759146D01*
X107688896Y-66760481D01*
X107665782Y-66791589D01*
X107644763Y-66814456D01*
X107630174Y-66837194D01*
X107615410Y-66875172D01*
X107607279Y-66904983D01*
X107599337Y-66947589D01*
X107597134Y-66986385D01*
X102576692Y-66986385D01*
X102565703Y-66940536D01*
X102551843Y-66888527D01*
X102538665Y-66844232D01*
X102528241Y-66815336D01*
X102526463Y-66811697D01*
X102517907Y-66783586D01*
X102514399Y-66747622D01*
X102511771Y-66717078D01*
X102504709Y-66669566D01*
X102494453Y-66612878D01*
X102487745Y-66579884D01*
X102477050Y-66524904D01*
X102469924Y-66474510D01*
X102465916Y-66421807D01*
X102464574Y-66359903D01*
X102465266Y-66298096D01*
X109802965Y-66298096D01*
X109803551Y-66337471D01*
X109812829Y-66360948D01*
X109815259Y-66362836D01*
X109825473Y-66379118D01*
X109833768Y-66406917D01*
X109848153Y-66442072D01*
X109872613Y-66475548D01*
X109873508Y-66476454D01*
X109895011Y-66501197D01*
X109905576Y-66519713D01*
X109905800Y-66521426D01*
X109916261Y-66534202D01*
X109942426Y-66550806D01*
X109953425Y-66556267D01*
X109984750Y-66571922D01*
X110004841Y-66583966D01*
X110007400Y-66586218D01*
X110023572Y-66595178D01*
X110054241Y-66606383D01*
X110089110Y-66616545D01*
X110117886Y-66622377D01*
X110121700Y-66622718D01*
X110144621Y-66619395D01*
X110180358Y-66609713D01*
X110197387Y-66604110D01*
X110261090Y-66577553D01*
X110316245Y-66546326D01*
X110358494Y-66513604D01*
X110383480Y-66482565D01*
X110388400Y-66464872D01*
X110394603Y-66448333D01*
X110399559Y-66446400D01*
X110414402Y-66434670D01*
X110427779Y-66403365D01*
X110438105Y-66358307D01*
X110443799Y-66305320D01*
X110444429Y-66281300D01*
X110441241Y-66226682D01*
X110432733Y-66177464D01*
X110420487Y-66139468D01*
X110406087Y-66118517D01*
X110399559Y-66116200D01*
X110388916Y-66106110D01*
X110387998Y-66100325D01*
X110379157Y-66078984D01*
X110358601Y-66051928D01*
X110334099Y-66027742D01*
X110313418Y-66015014D01*
X110310452Y-66014600D01*
X110290724Y-66006538D01*
X110266103Y-65987652D01*
X110247409Y-65973810D01*
X110223137Y-65965369D01*
X110186682Y-65960925D01*
X110131680Y-65959077D01*
X110077777Y-65959045D01*
X110042451Y-65961857D01*
X110018923Y-65968850D01*
X110000415Y-65981364D01*
X109995225Y-65986025D01*
X109964827Y-66006245D01*
X109935155Y-66014600D01*
X109911376Y-66021734D01*
X109905800Y-66039279D01*
X109896079Y-66065324D01*
X109879900Y-66082100D01*
X109858675Y-66106955D01*
X109838926Y-66147251D01*
X109822096Y-66196718D01*
X109809628Y-66249089D01*
X109802965Y-66298096D01*
X102465266Y-66298096D01*
X102465448Y-66281903D01*
X102466176Y-66250259D01*
X102468963Y-66164926D01*
X102472775Y-66100735D01*
X102478066Y-66053431D01*
X102485291Y-66018763D01*
X102493407Y-65995793D01*
X102506642Y-65959561D01*
X102507301Y-65934341D01*
X102500130Y-65916418D01*
X102484517Y-65897436D01*
X102459101Y-65889055D01*
X102428869Y-65887600D01*
X102362500Y-65878553D01*
X102311340Y-65850702D01*
X102301937Y-65842051D01*
X102290446Y-65818651D01*
X102286173Y-65786152D01*
X102289516Y-65756206D01*
X102298499Y-65741550D01*
X102310161Y-65723184D01*
X102311199Y-65715262D01*
X102316159Y-65693067D01*
X102328661Y-65658676D01*
X102335381Y-65642986D01*
X102356507Y-65595129D01*
X102377952Y-65545356D01*
X102381791Y-65536272D01*
X102402117Y-65499908D01*
X102426174Y-65472691D01*
X102433810Y-65467451D01*
X102455982Y-65452060D01*
X102463600Y-65440953D01*
X102474150Y-65432106D01*
X102486709Y-65430399D01*
X102518509Y-65418761D01*
X102544766Y-65388006D01*
X102561423Y-65344373D01*
X102565199Y-65309653D01*
X102562673Y-65275604D01*
X102556282Y-65255199D01*
X102552500Y-65252600D01*
X102542079Y-65241996D01*
X102539800Y-65227949D01*
X102533968Y-65203637D01*
X102527100Y-65195450D01*
X102521905Y-65180760D01*
X102518019Y-65148296D01*
X102515528Y-65104674D01*
X102514515Y-65056512D01*
X102515065Y-65010424D01*
X102517264Y-64973028D01*
X102521196Y-64950940D01*
X102523925Y-64947700D01*
X102535556Y-64937136D01*
X102549582Y-64912383D01*
X102561080Y-64883576D01*
X102565200Y-64862718D01*
X102572955Y-64847510D01*
X102577900Y-64846200D01*
X102589464Y-64836049D01*
X102590599Y-64828933D01*
X102596054Y-64810613D01*
X102610030Y-64777387D01*
X102628941Y-64736678D01*
X102649205Y-64695911D01*
X102667235Y-64662510D01*
X102679449Y-64643900D01*
X102680369Y-64643000D01*
X102690190Y-64628980D01*
X102707149Y-64600167D01*
X102718547Y-64579500D01*
X102737897Y-64546032D01*
X102753452Y-64523391D01*
X102758875Y-64518116D01*
X102767149Y-64503537D01*
X102768400Y-64492345D01*
X102777948Y-64468664D01*
X102793800Y-64452499D01*
X102813637Y-64429677D01*
X102819200Y-64411596D01*
X102825102Y-64392532D01*
X102831900Y-64389000D01*
X102842218Y-64378363D01*
X102844600Y-64363600D01*
X102849027Y-64342949D01*
X102855153Y-64338200D01*
X102867764Y-64328100D01*
X102883457Y-64303760D01*
X102883708Y-64303275D01*
X102898388Y-64276668D01*
X102908251Y-64262000D01*
X102917236Y-64247901D01*
X102933213Y-64218602D01*
X102945192Y-64195325D01*
X102964045Y-64161574D01*
X102979814Y-64139681D01*
X102986296Y-64135000D01*
X102996264Y-64124931D01*
X102997015Y-64119125D01*
X103004644Y-64099292D01*
X103023226Y-64072129D01*
X103025590Y-64069262D01*
X103046675Y-64042772D01*
X103076772Y-64003250D01*
X103110103Y-63958309D01*
X103117179Y-63948612D01*
X103147125Y-63908499D01*
X103171994Y-63877128D01*
X103187680Y-63859612D01*
X103190204Y-63857716D01*
X103199818Y-63843106D01*
X103200258Y-63838666D01*
X103208377Y-63820939D01*
X103228691Y-63794063D01*
X103238358Y-63783263D01*
X103261602Y-63756318D01*
X103275059Y-63736566D01*
X103276400Y-63732447D01*
X103285170Y-63715972D01*
X103307809Y-63688544D01*
X103338808Y-63655631D01*
X103372657Y-63622703D01*
X103403848Y-63595228D01*
X103426872Y-63578675D01*
X103433791Y-63576199D01*
X103451560Y-63570696D01*
X103454199Y-63565400D01*
X103464700Y-63554792D01*
X103492373Y-63536898D01*
X103531477Y-63515392D01*
X103535969Y-63513096D01*
X103580780Y-63488853D01*
X103619428Y-63465311D01*
X103643388Y-63447696D01*
X103666675Y-63429965D01*
X103681882Y-63423800D01*
X103711681Y-63414547D01*
X103752681Y-63389161D01*
X103800041Y-63351201D01*
X103848917Y-63304223D01*
X103858402Y-63294108D01*
X103891182Y-63259404D01*
X103937568Y-63211502D01*
X103993045Y-63155004D01*
X104053098Y-63094511D01*
X104104820Y-63042941D01*
X104166717Y-62981973D01*
X104214472Y-62936365D01*
X104251682Y-62903294D01*
X104281939Y-62879936D01*
X104308840Y-62863468D01*
X104335976Y-62851065D01*
X104360488Y-62842100D01*
X104410151Y-62827405D01*
X104457405Y-62817298D01*
X104487144Y-62814200D01*
X104526493Y-62818328D01*
X104563252Y-62828754D01*
X104589371Y-62842542D01*
X104597200Y-62854338D01*
X104607182Y-62864160D01*
X104631260Y-62864407D01*
X104660629Y-62856494D01*
X104686483Y-62841833D01*
X104689025Y-62839600D01*
X104714176Y-62821088D01*
X104732944Y-62814200D01*
X104748254Y-62807006D01*
X104749599Y-62802355D01*
X104760079Y-62789449D01*
X104774924Y-62782473D01*
X104803997Y-62768510D01*
X104816199Y-62759382D01*
X104834823Y-62746448D01*
X104869177Y-62726271D01*
X104912260Y-62702939D01*
X104917874Y-62700023D01*
X104958802Y-62677691D01*
X104989101Y-62658910D01*
X105003208Y-62647184D01*
X105003599Y-62646058D01*
X105014261Y-62638204D01*
X105029000Y-62636400D01*
X105049637Y-62631081D01*
X105054400Y-62623700D01*
X105065036Y-62613381D01*
X105079800Y-62611000D01*
X105100503Y-62606998D01*
X105105299Y-62601475D01*
X105115602Y-62590472D01*
X105139422Y-62576326D01*
X105166365Y-62564457D01*
X105184462Y-62560199D01*
X105200623Y-62552338D01*
X105222425Y-62534799D01*
X105241789Y-62521204D01*
X105268065Y-62513387D01*
X105308109Y-62509949D01*
X105347011Y-62509399D01*
X105397636Y-62508644D01*
X105430637Y-62504939D01*
X105453779Y-62496128D01*
X105474827Y-62480056D01*
X105484200Y-62471300D01*
X105509828Y-62448049D01*
X105527206Y-62434563D01*
X105530276Y-62433199D01*
X105542787Y-62426100D01*
X105569508Y-62407519D01*
X105603417Y-62382408D01*
X105649309Y-62350278D01*
X105697723Y-62320493D01*
X105727500Y-62304738D01*
X105761851Y-62287478D01*
X105785493Y-62273547D01*
X105791000Y-62268966D01*
X105805212Y-62256380D01*
X105832617Y-62236326D01*
X105865775Y-62213783D01*
X105897245Y-62193728D01*
X105919588Y-62181141D01*
X105925148Y-62179200D01*
X105939571Y-62170758D01*
X105954610Y-62156177D01*
X105983414Y-62130373D01*
X106026277Y-62099147D01*
X106074485Y-62068323D01*
X106119323Y-62043724D01*
X106130725Y-62038468D01*
X106158096Y-62024188D01*
X106171675Y-62012341D01*
X106172000Y-62010999D01*
X106182662Y-62003193D01*
X106197400Y-62001400D01*
X106218037Y-61996081D01*
X106222800Y-61988700D01*
X106233436Y-61978381D01*
X106248200Y-61976000D01*
X106268837Y-61970681D01*
X106273600Y-61963300D01*
X106284236Y-61952981D01*
X106299000Y-61950600D01*
X106319646Y-61945920D01*
X106324400Y-61939440D01*
X106334889Y-61927425D01*
X106360353Y-61913406D01*
X106362500Y-61912499D01*
X106388687Y-61898580D01*
X106400539Y-61886212D01*
X106400600Y-61885559D01*
X106411203Y-61876360D01*
X106424941Y-61874400D01*
X106447183Y-61869935D01*
X106453516Y-61864516D01*
X106466488Y-61854219D01*
X106496994Y-61836166D01*
X106539464Y-61813162D01*
X106588330Y-61788011D01*
X106638025Y-61763516D01*
X106682980Y-61742480D01*
X106717625Y-61727707D01*
X106736394Y-61722002D01*
X106736569Y-61721999D01*
X106753839Y-61715319D01*
X106756200Y-61709300D01*
X106767235Y-61700382D01*
X106793825Y-61696600D01*
X106794300Y-61696600D01*
X106821063Y-61693814D01*
X106832397Y-61687102D01*
X106832400Y-61686992D01*
X106843497Y-61677335D01*
X106871196Y-61665783D01*
X106907108Y-61654977D01*
X106942843Y-61647560D01*
X106963173Y-61645800D01*
X106994124Y-61656650D01*
X107027801Y-61685116D01*
X107057913Y-61725066D01*
X107071304Y-61751172D01*
X107080040Y-61784590D01*
X107085490Y-61830190D01*
X107086399Y-61855947D01*
X107087651Y-61896379D01*
X107092731Y-61917351D01*
X107103627Y-61924735D01*
X107109831Y-61925200D01*
X107136273Y-61916277D01*
X107154465Y-61901772D01*
X107179801Y-61883248D01*
X107217162Y-61865606D01*
X107229458Y-61861305D01*
X107273119Y-61843897D01*
X107317979Y-61820525D01*
X107353979Y-61796738D01*
X107365800Y-61786111D01*
X107388441Y-61769832D01*
X107420185Y-61754711D01*
X107446785Y-61747441D01*
X107448177Y-61747400D01*
X107465188Y-61740595D01*
X107467400Y-61734700D01*
X107478036Y-61724381D01*
X107492800Y-61722000D01*
X107513437Y-61716681D01*
X107518200Y-61709300D01*
X107528836Y-61698981D01*
X107543600Y-61696600D01*
X107564237Y-61691281D01*
X107569000Y-61683900D01*
X107579636Y-61673581D01*
X107594400Y-61671200D01*
X107615037Y-61665881D01*
X107619800Y-61658500D01*
X107630645Y-61648870D01*
X107650800Y-61645800D01*
X107677691Y-61641117D01*
X107689650Y-61633099D01*
X107707310Y-61622955D01*
X107725959Y-61620400D01*
X107753978Y-61616056D01*
X107766484Y-61609908D01*
X107785303Y-61600408D01*
X107818802Y-61588612D01*
X107835700Y-61583647D01*
X107880430Y-61571063D01*
X107922095Y-61558963D01*
X107931851Y-61556039D01*
X107968902Y-61547436D01*
X107998526Y-61544200D01*
X108020383Y-61540343D01*
X108026200Y-61534272D01*
X108038241Y-61524391D01*
X108072101Y-61512394D01*
X108124378Y-61499212D01*
X108191675Y-61485775D01*
X108223050Y-61480371D01*
X108277630Y-61469077D01*
X108330703Y-61454358D01*
X108365786Y-61441454D01*
X108400692Y-61426905D01*
X108426503Y-61418249D01*
X108432600Y-61417199D01*
X108451209Y-61412305D01*
X108483196Y-61399938D01*
X108499413Y-61392861D01*
X108580634Y-61358558D01*
X108650368Y-61335835D01*
X108718507Y-61322554D01*
X108794942Y-61316580D01*
X108857051Y-61315600D01*
X108923518Y-61316119D01*
D12*
X100604000Y-63554000D02*
X100604000Y-61104000D01*
X97384000Y-61754000D02*
X97384000Y-63554000D01*
X62205000Y-60611000D02*
X62205000Y-63061000D01*
X65425000Y-62411000D02*
X65425000Y-60611000D01*
X66015000Y-60611000D02*
X66015000Y-63061000D01*
X69235000Y-62411000D02*
X69235000Y-60611000D01*
X69764000Y-60695000D02*
X69764000Y-63145000D01*
X72984000Y-62495000D02*
X72984000Y-60695000D01*
X73447000Y-60695000D02*
X73447000Y-63145000D01*
X76667000Y-62495000D02*
X76667000Y-60695000D01*
X74220000Y-66289422D02*
X74220000Y-66806578D01*
X75640000Y-66289422D02*
X75640000Y-66806578D01*
X104660000Y-68735000D02*
X104660000Y-71275000D01*
X104660000Y-68735000D02*
X102120000Y-68735000D01*
X104410000Y-68985000D02*
X104410000Y-78335000D01*
X63230000Y-68985000D02*
X104410000Y-68985000D01*
X63230000Y-78335000D02*
X63230000Y-68985000D01*
X104410000Y-78335000D02*
X63230000Y-78335000D01*
X80160000Y-58330000D02*
X79860000Y-58330000D01*
X92560000Y-66130000D02*
X92860000Y-66130000D01*
X92560000Y-56530000D02*
X92560000Y-58330000D01*
X92860000Y-58330000D02*
X92860000Y-66130000D01*
X80160000Y-66130000D02*
X79860000Y-66130000D01*
X79860000Y-66130000D02*
X79860000Y-58330000D01*
X92560000Y-58330000D02*
X92860000Y-58330000D01*
X65838000Y-66367922D02*
X65838000Y-66885078D01*
X67258000Y-66367922D02*
X67258000Y-66885078D01*
X68632000Y-66289422D02*
X68632000Y-66806578D01*
X70052000Y-66289422D02*
X70052000Y-66806578D01*
X71426000Y-66289422D02*
X71426000Y-66806578D01*
X72846000Y-66289422D02*
X72846000Y-66806578D01*
X57896000Y-67292000D02*
X57896000Y-70092000D01*
X57896000Y-70092000D02*
X55896000Y-70092000D01*
X55896000Y-70092000D02*
X55896000Y-67292000D01*
X55896000Y-67292000D02*
X57896000Y-67292000D01*
X52705000Y-58360000D02*
X54035000Y-58360000D01*
X54035000Y-58360000D02*
X54035000Y-59690000D01*
X54035000Y-60960000D02*
X54035000Y-66100000D01*
X51375000Y-66100000D02*
X54035000Y-66100000D01*
X51375000Y-60960000D02*
X51375000Y-66100000D01*
X51375000Y-60960000D02*
X54035000Y-60960000D01*
X59615000Y-61541922D02*
X59615000Y-62059078D01*
X61035000Y-61541922D02*
X61035000Y-62059078D01*
X61035000Y-66885078D02*
X61035000Y-66367922D01*
X59615000Y-66885078D02*
X59615000Y-66367922D01*
X95452000Y-62821078D02*
X95452000Y-62303922D01*
X94032000Y-62821078D02*
X94032000Y-62303922D01*
D10*
X101346380Y-63415904D02*
X102155904Y-63415904D01*
X102251142Y-63368285D01*
X102298761Y-63320666D01*
X102346380Y-63225428D01*
X102346380Y-63034952D01*
X102298761Y-62939714D01*
X102251142Y-62892095D01*
X102155904Y-62844476D01*
X101346380Y-62844476D01*
X101346380Y-61939714D02*
X101346380Y-62130190D01*
X101394000Y-62225428D01*
X101441619Y-62273047D01*
X101584476Y-62368285D01*
X101774952Y-62415904D01*
X102155904Y-62415904D01*
X102251142Y-62368285D01*
X102298761Y-62320666D01*
X102346380Y-62225428D01*
X102346380Y-62034952D01*
X102298761Y-61939714D01*
X102251142Y-61892095D01*
X102155904Y-61844476D01*
X101917809Y-61844476D01*
X101822571Y-61892095D01*
X101774952Y-61939714D01*
X101727333Y-62034952D01*
X101727333Y-62225428D01*
X101774952Y-62320666D01*
X101822571Y-62368285D01*
X101917809Y-62415904D01*
X63246095Y-58380380D02*
X63246095Y-59189904D01*
X63293714Y-59285142D01*
X63341333Y-59332761D01*
X63436571Y-59380380D01*
X63627047Y-59380380D01*
X63722285Y-59332761D01*
X63769904Y-59285142D01*
X63817523Y-59189904D01*
X63817523Y-58380380D01*
X64769904Y-58380380D02*
X64293714Y-58380380D01*
X64246095Y-58856571D01*
X64293714Y-58808952D01*
X64388952Y-58761333D01*
X64627047Y-58761333D01*
X64722285Y-58808952D01*
X64769904Y-58856571D01*
X64817523Y-58951809D01*
X64817523Y-59189904D01*
X64769904Y-59285142D01*
X64722285Y-59332761D01*
X64627047Y-59380380D01*
X64388952Y-59380380D01*
X64293714Y-59332761D01*
X64246095Y-59285142D01*
X66802095Y-58380380D02*
X66802095Y-59189904D01*
X66849714Y-59285142D01*
X66897333Y-59332761D01*
X66992571Y-59380380D01*
X67183047Y-59380380D01*
X67278285Y-59332761D01*
X67325904Y-59285142D01*
X67373523Y-59189904D01*
X67373523Y-58380380D01*
X68278285Y-58713714D02*
X68278285Y-59380380D01*
X68040190Y-58332761D02*
X67802095Y-59047047D01*
X68421142Y-59047047D01*
X70358095Y-58380380D02*
X70358095Y-59189904D01*
X70405714Y-59285142D01*
X70453333Y-59332761D01*
X70548571Y-59380380D01*
X70739047Y-59380380D01*
X70834285Y-59332761D01*
X70881904Y-59285142D01*
X70929523Y-59189904D01*
X70929523Y-58380380D01*
X71310476Y-58380380D02*
X71929523Y-58380380D01*
X71596190Y-58761333D01*
X71739047Y-58761333D01*
X71834285Y-58808952D01*
X71881904Y-58856571D01*
X71929523Y-58951809D01*
X71929523Y-59189904D01*
X71881904Y-59285142D01*
X71834285Y-59332761D01*
X71739047Y-59380380D01*
X71453333Y-59380380D01*
X71358095Y-59332761D01*
X71310476Y-59285142D01*
X74422095Y-58380380D02*
X74422095Y-59189904D01*
X74469714Y-59285142D01*
X74517333Y-59332761D01*
X74612571Y-59380380D01*
X74803047Y-59380380D01*
X74898285Y-59332761D01*
X74945904Y-59285142D01*
X74993523Y-59189904D01*
X74993523Y-58380380D01*
X75993523Y-59380380D02*
X75422095Y-59380380D01*
X75707809Y-59380380D02*
X75707809Y-58380380D01*
X75612571Y-58523238D01*
X75517333Y-58618476D01*
X75422095Y-58666095D01*
X77032380Y-66714666D02*
X76556190Y-67048000D01*
X77032380Y-67286095D02*
X76032380Y-67286095D01*
X76032380Y-66905142D01*
X76080000Y-66809904D01*
X76127619Y-66762285D01*
X76222857Y-66714666D01*
X76365714Y-66714666D01*
X76460952Y-66762285D01*
X76508571Y-66809904D01*
X76556190Y-66905142D01*
X76556190Y-67286095D01*
X77032380Y-65762285D02*
X77032380Y-66333714D01*
X77032380Y-66048000D02*
X76032380Y-66048000D01*
X76175238Y-66143238D01*
X76270476Y-66238476D01*
X76318095Y-66333714D01*
X105116380Y-73993333D02*
X105830666Y-73993333D01*
X105973523Y-74040952D01*
X106068761Y-74136190D01*
X106116380Y-74279047D01*
X106116380Y-74374285D01*
X105116380Y-73612380D02*
X105116380Y-72993333D01*
X105497333Y-73326666D01*
X105497333Y-73183809D01*
X105544952Y-73088571D01*
X105592571Y-73040952D01*
X105687809Y-72993333D01*
X105925904Y-72993333D01*
X106021142Y-73040952D01*
X106068761Y-73088571D01*
X106116380Y-73183809D01*
X106116380Y-73469523D01*
X106068761Y-73564761D01*
X106021142Y-73612380D01*
X78192380Y-63245904D02*
X79001904Y-63245904D01*
X79097142Y-63198285D01*
X79144761Y-63150666D01*
X79192380Y-63055428D01*
X79192380Y-62864952D01*
X79144761Y-62769714D01*
X79097142Y-62722095D01*
X79001904Y-62674476D01*
X78192380Y-62674476D01*
X78287619Y-62245904D02*
X78240000Y-62198285D01*
X78192380Y-62103047D01*
X78192380Y-61864952D01*
X78240000Y-61769714D01*
X78287619Y-61722095D01*
X78382857Y-61674476D01*
X78478095Y-61674476D01*
X78620952Y-61722095D01*
X79192380Y-62293523D01*
X79192380Y-61674476D01*
X68650380Y-66793166D02*
X68174190Y-67126500D01*
X68650380Y-67364595D02*
X67650380Y-67364595D01*
X67650380Y-66983642D01*
X67698000Y-66888404D01*
X67745619Y-66840785D01*
X67840857Y-66793166D01*
X67983714Y-66793166D01*
X68078952Y-66840785D01*
X68126571Y-66888404D01*
X68174190Y-66983642D01*
X68174190Y-67364595D01*
X67983714Y-65936023D02*
X68650380Y-65936023D01*
X67602761Y-66174119D02*
X68317047Y-66412214D01*
X68317047Y-65793166D01*
X71444380Y-66714666D02*
X70968190Y-67048000D01*
X71444380Y-67286095D02*
X70444380Y-67286095D01*
X70444380Y-66905142D01*
X70492000Y-66809904D01*
X70539619Y-66762285D01*
X70634857Y-66714666D01*
X70777714Y-66714666D01*
X70872952Y-66762285D01*
X70920571Y-66809904D01*
X70968190Y-66905142D01*
X70968190Y-67286095D01*
X70444380Y-66381333D02*
X70444380Y-65762285D01*
X70825333Y-66095619D01*
X70825333Y-65952761D01*
X70872952Y-65857523D01*
X70920571Y-65809904D01*
X71015809Y-65762285D01*
X71253904Y-65762285D01*
X71349142Y-65809904D01*
X71396761Y-65857523D01*
X71444380Y-65952761D01*
X71444380Y-66238476D01*
X71396761Y-66333714D01*
X71349142Y-66381333D01*
X74238380Y-66714666D02*
X73762190Y-67048000D01*
X74238380Y-67286095D02*
X73238380Y-67286095D01*
X73238380Y-66905142D01*
X73286000Y-66809904D01*
X73333619Y-66762285D01*
X73428857Y-66714666D01*
X73571714Y-66714666D01*
X73666952Y-66762285D01*
X73714571Y-66809904D01*
X73762190Y-66905142D01*
X73762190Y-67286095D01*
X73333619Y-66333714D02*
X73286000Y-66286095D01*
X73238380Y-66190857D01*
X73238380Y-65952761D01*
X73286000Y-65857523D01*
X73333619Y-65809904D01*
X73428857Y-65762285D01*
X73524095Y-65762285D01*
X73666952Y-65809904D01*
X74238380Y-66381333D01*
X74238380Y-65762285D01*
X55316380Y-71001523D02*
X54316380Y-71001523D01*
X54316380Y-70620571D01*
X54364000Y-70525333D01*
X54411619Y-70477714D01*
X54506857Y-70430095D01*
X54649714Y-70430095D01*
X54744952Y-70477714D01*
X54792571Y-70525333D01*
X54840190Y-70620571D01*
X54840190Y-71001523D01*
X54316380Y-69811047D02*
X54316380Y-69620571D01*
X54364000Y-69525333D01*
X54459238Y-69430095D01*
X54649714Y-69382476D01*
X54983047Y-69382476D01*
X55173523Y-69430095D01*
X55268761Y-69525333D01*
X55316380Y-69620571D01*
X55316380Y-69811047D01*
X55268761Y-69906285D01*
X55173523Y-70001523D01*
X54983047Y-70049142D01*
X54649714Y-70049142D01*
X54459238Y-70001523D01*
X54364000Y-69906285D01*
X54316380Y-69811047D01*
X54316380Y-69049142D02*
X55316380Y-68811047D01*
X54602095Y-68620571D01*
X55316380Y-68430095D01*
X54316380Y-68192000D01*
X54792571Y-67811047D02*
X54792571Y-67477714D01*
X55316380Y-67334857D02*
X55316380Y-67811047D01*
X54316380Y-67811047D01*
X54316380Y-67334857D01*
X55316380Y-66334857D02*
X54840190Y-66668190D01*
X55316380Y-66906285D02*
X54316380Y-66906285D01*
X54316380Y-66525333D01*
X54364000Y-66430095D01*
X54411619Y-66382476D01*
X54506857Y-66334857D01*
X54649714Y-66334857D01*
X54744952Y-66382476D01*
X54792571Y-66430095D01*
X54840190Y-66525333D01*
X54840190Y-66906285D01*
X51109761Y-56372380D02*
X51109761Y-57181904D01*
X51157380Y-57277142D01*
X51205000Y-57324761D01*
X51300238Y-57372380D01*
X51490714Y-57372380D01*
X51585952Y-57324761D01*
X51633571Y-57277142D01*
X51681190Y-57181904D01*
X51681190Y-56372380D01*
X52109761Y-57086666D02*
X52585952Y-57086666D01*
X52014523Y-57372380D02*
X52347857Y-56372380D01*
X52681190Y-57372380D01*
X53585952Y-57372380D02*
X53252619Y-56896190D01*
X53014523Y-57372380D02*
X53014523Y-56372380D01*
X53395476Y-56372380D01*
X53490714Y-56420000D01*
X53538333Y-56467619D01*
X53585952Y-56562857D01*
X53585952Y-56705714D01*
X53538333Y-56800952D01*
X53490714Y-56848571D01*
X53395476Y-56896190D01*
X53014523Y-56896190D01*
X53871666Y-56372380D02*
X54443095Y-56372380D01*
X54157380Y-57372380D02*
X54157380Y-56372380D01*
X58777142Y-61967166D02*
X58824761Y-62014785D01*
X58872380Y-62157642D01*
X58872380Y-62252880D01*
X58824761Y-62395738D01*
X58729523Y-62490976D01*
X58634285Y-62538595D01*
X58443809Y-62586214D01*
X58300952Y-62586214D01*
X58110476Y-62538595D01*
X58015238Y-62490976D01*
X57920000Y-62395738D01*
X57872380Y-62252880D01*
X57872380Y-62157642D01*
X57920000Y-62014785D01*
X57967619Y-61967166D01*
X57872380Y-61633833D02*
X57872380Y-61014785D01*
X58253333Y-61348119D01*
X58253333Y-61205261D01*
X58300952Y-61110023D01*
X58348571Y-61062404D01*
X58443809Y-61014785D01*
X58681904Y-61014785D01*
X58777142Y-61062404D01*
X58824761Y-61110023D01*
X58872380Y-61205261D01*
X58872380Y-61490976D01*
X58824761Y-61586214D01*
X58777142Y-61633833D01*
X62587142Y-66793166D02*
X62634761Y-66840785D01*
X62682380Y-66983642D01*
X62682380Y-67078880D01*
X62634761Y-67221738D01*
X62539523Y-67316976D01*
X62444285Y-67364595D01*
X62253809Y-67412214D01*
X62110952Y-67412214D01*
X61920476Y-67364595D01*
X61825238Y-67316976D01*
X61730000Y-67221738D01*
X61682380Y-67078880D01*
X61682380Y-66983642D01*
X61730000Y-66840785D01*
X61777619Y-66793166D01*
X61777619Y-66412214D02*
X61730000Y-66364595D01*
X61682380Y-66269357D01*
X61682380Y-66031261D01*
X61730000Y-65936023D01*
X61777619Y-65888404D01*
X61872857Y-65840785D01*
X61968095Y-65840785D01*
X62110952Y-65888404D01*
X62682380Y-66459833D01*
X62682380Y-65840785D01*
X96877142Y-62729166D02*
X96924761Y-62776785D01*
X96972380Y-62919642D01*
X96972380Y-63014880D01*
X96924761Y-63157738D01*
X96829523Y-63252976D01*
X96734285Y-63300595D01*
X96543809Y-63348214D01*
X96400952Y-63348214D01*
X96210476Y-63300595D01*
X96115238Y-63252976D01*
X96020000Y-63157738D01*
X95972380Y-63014880D01*
X95972380Y-62919642D01*
X96020000Y-62776785D01*
X96067619Y-62729166D01*
X96972380Y-61776785D02*
X96972380Y-62348214D01*
X96972380Y-62062500D02*
X95972380Y-62062500D01*
X96115238Y-62157738D01*
X96210476Y-62252976D01*
X96258095Y-62348214D01*
M02*
